<?xml version="1.0" standalone="no"?><!DOCTYPE svg PUBLIC "-//W3C//DTD SVG 1.1//EN" "http://www.w3.org/Graphics/SVG/1.1/DTD/svg11.dtd"><svg t="1599873355436" class="icon" viewBox="0 0 1024 1024" version="1.1" xmlns="http://www.w3.org/2000/svg" p-id="3272" xmlns:xlink="http://www.w3.org/1999/xlink" width="128" height="128"><defs><style type="text/css"></style></defs><path d="M43.16334875 144.67720906A93.61116281 93.61116281 0 0 1 136.48427938 51.17767437h751.07720906A93.49953469 93.49953469 0 0 1 980.83776781 144.67720906v563.16279094a93.63348844 93.63348844 0 0 1-93.298605 93.47720906H136.46195375A93.49953469 93.49953469 0 0 1 43.16334875 707.84V144.67720906z m93.76744219 47.26325625v468.63627844c0 25.60744219 20.98604625 46.97302312 46.88372062 46.97302406h656.37209344a46.88372062 46.88372062 0 0 0 46.88372062-46.97302406V191.94046531c0-25.60744219-20.98604625-46.99534875-46.88372062-46.99534875H183.81451156a46.88372062 46.88372062 0 0 0-46.88372062 46.99534875z m93.76744125 421.75255782V238.73488344l562.60465125 0.11162812-0.04465125 374.95813969S230.69823219 613.60372062 230.69823219 613.69302313zM43.16334875 941.9906975c0-25.87534875 21.34325625-46.88372062 46.50418594-46.88372062h844.66604625c25.67441906 0 46.50418594 20.82976781 46.50418687 46.88372062 0 25.89767438-21.32093062 46.88372062-46.50418687 46.88372156H89.66753469A46.54883719 46.54883719 0 0 1 43.16334875 941.9906975z" p-id="3273" fill="#ffffff"></path></svg>