<?xml version="1.0" standalone="no"?><!DOCTYPE svg PUBLIC "-//W3C//DTD SVG 1.1//EN" "http://www.w3.org/Graphics/SVG/1.1/DTD/svg11.dtd"><svg t="1599873238219" class="icon" viewBox="0 0 1024 1024" version="1.1" xmlns="http://www.w3.org/2000/svg" p-id="2574" xmlns:xlink="http://www.w3.org/1999/xlink" width="128" height="128"><defs><style type="text/css"></style></defs><path d="M536.51911111 899.12206222L621.22666667 548.40888889 512 439.18222222 402.77333333 548.40888889 487.48088889 899.12206222 293.46019555 512C147.91111111 512 75.09333333 609.83296 75.09333333 730.45333333L75.09333333 1021.72444445 948.90666667 1021.72444445 948.90666667 730.45333333C948.90666667 609.83296 876.08888889 512 730.54208 512L536.51911111 899.12206222ZM293.54666667 220.72888889C293.54666667 100.07893333 391.35232 2.27555555 512 2.27555555 632.64768 2.27555555 730.45333333 100.07893333 730.45333333 220.72888889 730.45333333 341.37656889 632.64768 439.18222222 512 439.18222222 391.35232 439.18222222 293.54666667 341.37656889 293.54666667 220.72888889" p-id="2575" fill="#ffffff"></path></svg>