<?xml version="1.0" standalone="no"?><!DOCTYPE svg PUBLIC "-//W3C//DTD SVG 1.1//EN" "http://www.w3.org/Graphics/SVG/1.1/DTD/svg11.dtd"><svg t="1600217754620" class="icon" viewBox="0 0 1024 1024" version="1.1" xmlns="http://www.w3.org/2000/svg" p-id="3015" xmlns:xlink="http://www.w3.org/1999/xlink" width="128" height="128"><defs><style type="text/css"></style></defs><path d="M571.48416 379.15648c0-2.4064-4.608-4.864-4.90496-7.19872-0.3072-2.38592-2.73408-4.28032-3.34848-6.5536-0.6144-2.31424 1.8432-5.70368 0.93184-7.8848-0.91136-2.2016-6.3488-2.10944-7.53664-4.15744-1.18784-2.05824 0.34816-5.76512-1.09568-7.63904-1.44384-1.88416-1.92512-4.84352-3.60448-6.52288-1.67936-1.67936-1.85344-5.7856-3.7376-7.22944-1.87392-1.44384-5.91872-0.50176-7.97696-1.6896-2.048-1.18784-4.31104-2.6112-6.51264-3.52256-2.18112-0.90112-6.2464 3.98336-8.5504 3.36896-2.27328-0.60416-4.07552-1.37216-6.46144-1.6896-2.32448-0.3072-4.28032-8.69376-6.68672-8.69376-2.4064 0-4.52608 7.12704-6.85056 7.43424-2.38592 0.3072-5.71392-3.95264-7.9872-3.34848-2.31424 0.6144-2.44736 7.46496-4.62848 8.37632-2.2016 0.91136-4.38272 0.95232-6.42048 2.14016-2.05824 1.18784-5.19168 0.44032-7.0656 1.88416-1.88416 1.44384-5.69344 0.94208-7.3728 2.62144-1.67936 1.67936 1.82272 7.7824 0.36864 9.66656-1.44384 1.87392-3.30752 2.92864-4.49536 4.98688-1.18784 2.048-6.2976 2.05824-7.20896 4.25984-0.90112 2.18112 3.77856 6.08256 3.15392 8.38656-0.60416 2.27328-4.05504 3.65568-4.36224 6.0416-0.3072 2.32448 0.11264 4.5568 0.11264 6.9632 0 2.4064-1.47456 4.78208-1.16736 7.10656 0.3072 2.38592-2.0992 5.4784-1.49504 7.75168 0.6144 2.31424 1.7408 4.83328 2.64192 7.0144 0.91136 2.2016 6.03136 2.38592 7.2192 4.43392 1.18784 2.05824 1.08544 4.83328 2.52928 6.71744 1.44384 1.88416 5.07904 1.57696 6.7584 3.24608 1.67936 1.67936 0.3072 6.68672 2.19136 8.13056 1.87392 1.44384 4.82304 1.49504 6.88128 2.68288 2.048 1.18784 4.97664 0.29696 7.17824 1.21856 2.18112 0.90112 4.74112-0.6144 7.05536 0 2.27328 0.60416 3.30752 6.52288 5.69344 6.83008 2.32448 0.3072 4.85376 0.79872 7.26016 0.79872s4.15744-6.49216 6.48192-6.78912c2.38592-0.3072 4.9152 2.43712 7.18848 1.83296 2.31424-0.6144 4.93568 0.08192 7.1168-0.8192 2.2016-0.91136 5.7344 0.48128 7.7824-0.69632 2.05824-1.18784 2.51904-5.05856 4.4032-6.5024 1.88416-1.44384 0.31744-6.31808 1.9968-7.99744 1.67936-1.67936 5.36576-1.024 6.8096-2.90816 1.44384-1.87392 8.21248-0.44032 9.41056-2.49856 1.18784-2.048-3.76832-7.33184-2.85696-9.53344 0.90112-2.18112 0.8704-4.352 1.4848-6.656 0.60416-2.27328 7.13728-3.44064 7.45472-5.81632 0.31744-2.33472 2.22208-5.14048 2.22208-7.54688z" fill="#FF5629" opacity=".5" p-id="3016"></path><path d="M302.47936 387.67616c0.03072-2.4576-1.18784-4.84352-1.06496-7.28064 0.11264-2.4576-3.06176-5.10976-2.8672-7.54688 0.2048-2.44736 0.93184-4.88448 1.21856-7.31136 0.28672-2.43712 2.42688-4.62848 2.79552-7.03488 0.36864-2.42688 0.3584-4.89472 0.80896-7.29088 0.45056-2.4064 5.65248-3.7376 6.18496-6.12352 0.53248-2.39616-3.62496-5.82656-3.00032-8.18176 0.62464-2.37568 5.07904-3.57376 5.77536-5.91872 0.70656-2.34496-2.73408-5.92896-1.9456-8.2432 0.78848-2.32448 0.1536-5.18144 1.01376-7.46496 0.8704-2.29376-0.2048-5.44768 0.73728-7.70048 0.94208-2.26304 5.49888-3.00032 6.51264-5.2224 1.024-2.22208 6.31808-2.29376 7.41376-4.47488 1.10592-2.18112 0.9216-4.88448 2.0992-7.02464 1.1776-2.1504-4.70016-8.3456-3.45088-10.4448 1.24928-2.0992 8.84736-0.32768 10.16832-2.37568 1.32096-2.05824 3.15392-3.65568 4.54656-5.66272 1.39264-2.00704-3.69664-8.72448-2.23232-10.68032 1.46432-1.95584 10.752 2.14016 12.27776 0.22528 1.52576-1.90464 1.93536-4.5568 3.52256-6.41024 1.59744-1.85344 3.59424-3.16416 5.25312-4.9664 1.65888-1.792 1.18784-5.48864 2.90816-7.22944 1.72032-1.7408 2.42688-4.48512 4.1984-6.16448 1.78176-1.67936 6.67648 0.17408 8.50944-1.4336 1.83296-1.61792-1.36192-9.10336 0.53248-10.65984 1.88416-1.54624 5.70368-0.768 7.63904-2.2528 1.9456-1.4848 5.98016-0.03072 7.97696-1.44384 1.98656-1.41312 4.01408-2.57024 6.06208-3.92192 2.03776-1.34144-0.03072-9.19552 2.048-10.47552 2.08896-1.26976 7.18848 2.49856 9.3184 1.30048 2.12992-1.19808 2.64192-5.38624 4.8128-6.51264 2.17088-1.1264 4.63872-1.77152 6.85056-2.816 2.2016-1.04448 3.93216-3.30752 6.18496-4.28032 2.24256-0.9728 5.65248 0.78848 7.92576-0.1024 2.27328-0.89088 6.144 2.77504 8.448 1.96608 2.304-0.80896 3.54304-4.42368 5.87776-5.15072 2.32448-0.72704 3.33824-6.02112 5.69344-6.66624 2.3552-0.64512 6.05184 3.93216 8.43776 3.36896 2.37568-0.5632 4.1984-3.44064 6.59456-3.92192 2.38592-0.48128 5.03808 0.63488 7.45472 0.23552 2.4064-0.39936 4.13696-5.5808 6.57408-5.888 2.41664-0.3072 4.94592-0.75776 7.38304-0.98304 2.42688-0.22528 5.36576 6.30784 7.81312 6.16448 2.43712-0.14336 4.7104-2.38592 7.168-2.43712 2.43712-0.06144 4.85376-3.4304 7.31136-3.40992 2.4576-0.02048 4.864 3.9936 7.30112 4.05504 2.4576 0.06144 5.07904-4.05504 7.51616-3.91168 2.44736 0.14336 4.62848 4.01408 7.05536 4.23936 2.44736 0.22528 4.7616 1.00352 7.17824 1.32096 2.43712 0.31744 4.5568 2.06848 6.9632 2.46784 2.41664 0.39936 5.40672-2.63168 7.79264-2.1504 2.4064 0.48128 4.4032 2.69312 6.76864 3.25632 2.38592 0.5632 3.76832 4.5568 6.11328 5.21216 2.36544 0.64512 6.5536-5.15072 8.87808-4.42368 2.33472 0.73728 5.75488-1.42336 8.04864-0.6144 2.31424 0.80896 2.94912 6.3488 5.21216 7.23968 2.28352 0.89088 6.51264-2.74432 8.7552-1.77152 2.24256 0.9728 3.01056 5.44768 5.21216 6.5024 2.21184 1.05472 5.96992-0.80896 8.13056 0.31744 2.17088 1.1264 3.1232 4.72064 5.25312 5.91872 2.12992 1.19808 2.3552 5.64224 4.43392 6.912 2.08896 1.28 3.90144 2.83648 5.9392 4.17792 2.03776 1.35168 3.4304 3.47136 5.41696 4.88448 1.9968 1.41312 8.09984-2.74432 10.04544-1.25952 1.9456 1.4848-0.29696 8.25344 1.59744 9.80992 1.8944 1.55648 6.84032-0.53248 8.67328 1.08544 1.83296 1.61792 3.85024 3.1232 5.632 4.80256 1.78176 1.67936 3.18464 3.81952 4.89472 5.56032 1.72032 1.7408 0.5632 6.18496 2.22208 7.9872 1.65888 1.792 8.97024-1.3824 10.56768 0.47104 1.59744 1.85344 2.6624 4.352 4.18816 6.25664 1.52576 1.90464-4.29056 9.48224-2.83648 11.43808 1.46432 1.95584 4.1472 2.85696 5.53984 4.87424 1.39264 2.00704 5.7856 1.95584 7.10656 4.01408s2.99008 3.92192 4.23936 6.02112c1.24928 2.0992-2.74432 7.10656-1.56672 9.24672 1.1776 2.14016 10.51648-0.02048 11.61216 2.16064 1.09568 2.18112 1.40288 4.88448 2.42688 7.10656 1.024 2.21184-3.00032 6.66624-2.05824 8.92928 0.94208 2.2528-0.93184 5.48864-0.06144 7.77216 0.86016 2.28352 6.32832 2.82624 7.1168 5.14048 0.77824 2.31424-0.7168 5.30432-0.01024 7.64928 0.69632 2.33472 4.08576 3.8912 4.7104 6.25664 0.6144 2.3552 1.4848 4.67968 2.01728 7.07584 0.53248 2.37568 1.61792 4.67968 2.06848 7.08608 0.45056 2.39616-4.17792 5.61152-3.80928 8.0384 0.36864 2.4064 2.65216 4.47488 2.93888 6.912 0.28672 2.41664 2.53952 4.61824 2.73408 7.0656 0.19456 2.42688-1.3312 4.95616-1.21856 7.41376 0.11264 2.43712-2.44736 4.82304-2.41664 7.28064-0.02048 2.43712 8.45824 5.02784 8.35584 7.45472-0.1024 2.42688 0.256 5.04832 0.07168 7.46496-0.18432 2.42688-3.584 4.6592-3.85024 7.0656-0.27648 2.41664-5.9392 4.096-6.2976 6.49216-0.3584 2.4064-0.58368 4.70016-1.024 7.08608-0.44032 2.39616 0.89088 5.04832 0.36864 7.41376-0.52224 2.37568 1.32096 5.30432 0.7168 7.64928-0.60416 2.3552-6.17472 3.26656-6.8608 5.59104-0.69632 2.33472 3.03104 5.98016 2.2528 8.27392-0.768 2.304-0.19456 5.12-1.05472 7.39328-0.84992 2.27328-4.01408 3.65568-4.94592 5.89824-0.93184 2.24256-1.05472 4.83328-2.05824 7.04512-1.01376 2.21184 0.1024 5.48864-0.98304 7.65952-1.08544 2.17088-2.48832 4.28032-3.65568 6.41024-1.16736 2.12992-8.58112 0.65536-9.82016 2.74432-1.23904 2.08896 2.46784 7.14752 1.15712 9.19552-1.31072 2.03776-7.43424 0.79872-8.81664 2.79552s4.2496 9.0112 2.79552 10.9568c-1.45408 1.9456-7.94624 0.03072-9.46176 1.92512-1.51552 1.8944-4.64896 2.28352-6.23616 4.12672-1.5872 1.83296-1.20832 5.2736-2.85696 7.05536-1.64864 1.78176-4.53632 2.23232-6.2464 3.96288-1.71008 1.72032 1.57696 8.57088-0.19456 10.24-1.76128 1.65888-7.8848-1.46432-9.71776 0.13312-1.82272 1.59744-3.25632 3.51232-5.14048 5.04832-1.88416 1.52576-0.37888 7.39328-2.31424 8.8576-1.93536 1.46432-3.36896 3.82976-5.35552 5.23264-1.97632 1.39264-6.78912-1.26976-8.82688 0.06144-2.02752 1.32096-5.67296-0.0512-7.75168 1.20832-2.07872 1.24928-0.43008 7.81312-2.56 9.00096-2.77504 2.3552-7.40352-2.68288-10.02496-0.1536-2.62144 2.53952-0.0512 5.19168-2.67264 7.7312-2.6112 2.52928 0.82944 6.08256-1.78176 8.61184s-2.92864 2.2016-5.53984 4.73088c-2.6112 2.52928-4.64896 0.43008-7.26016 2.95936-2.62144 2.53952-5.29408-0.21504-7.92576 2.32448-2.62144 2.53952-1.60768 3.584-4.22912 6.12352s-1.13664 4.07552-3.74784 6.6048c-2.59072 2.5088-4.97664 0.0512-7.56736 2.57024-2.6112 2.52928 1.65888 6.94272-0.95232 9.48224-2.63168 2.54976-8.17152-3.1744-10.79296-0.62464-2.62144 2.53952-1.61792 3.584-4.23936 6.12352-2.64192 2.54976 1.2288 6.54336-1.41312 9.10336s-1.3824 3.85024-4.02432 6.41024c-2.65216 2.57024-8.02816-2.99008-10.67008-0.41984s-2.93888 2.27328-5.5808 4.84352c-1.88416 1.83296-2.85696 3.57376-5.00736 4.90496-2.22208 1.37216-4.3008 1.14688-6.71744 1.96608a27.6992 27.6992 0 0 1-6.62528 1.60768c-2.56 0.27648-4.21888-0.1536-6.78912-0.44032-2.54976-0.27648-4.94592 1.78176-7.39328 0.94208-2.41664-0.82944-3.59424-3.00032-5.81632-4.36224-2.1504-1.32096-6.7072 0.73728-8.59136-1.09568-2.56-2.47808-3.86048-1.14688-6.42048-3.62496-2.57024-2.48832-3.55328-1.47456-6.12352-3.96288-2.58048-2.49856 1.792-7.00416-0.78848-9.50272-2.57024-2.48832-4.41344-0.58368-6.98368-3.08224-2.57024-2.48832-2.93888-2.0992-5.50912-4.58752-2.57024-2.48832-3.45088-1.57696-6.02112-4.07552-2.58048-2.49856 2.38592-7.6288-0.19456-10.12736s-3.10272-1.95584-5.6832-4.4544c-2.58048-2.49856-7.9872 3.08224-10.56768 0.58368-2.54976-2.47808-1.01376-4.06528-3.56352-6.54336-2.57024-2.49856-0.28672-4.85376-2.85696-7.35232-2.58048-2.5088-2.27328-2.82624-4.85376-5.33504-2.58048-2.49856-5.13024 0.12288-7.71072-2.37568-2.59072-2.51904-1.78176-3.34848-4.37248-5.86752-2.60096-2.51904-2.43712-2.68288-5.03808-5.20192-2.60096-2.52928-3.62496-1.47456-6.22592-4.00384-2.60096-2.52928 1.56672-7.17824-1.1776-9.55392-2.06848-1.26976-9.29792 4.25984-11.30496 2.9184-2.02752-1.34144-0.74752-7.54688-2.7136-8.94976-1.97632-1.41312-4.53632-1.9456-6.4512-3.42016-1.92512-1.47456-4.18816-2.5088-6.05184-4.0448-1.86368-1.54624-3.55328-3.28704-5.36576-4.89472-1.81248-1.60768-0.18432-6.8096-1.93536-8.46848-1.75104-1.66912-6.26688-0.37888-7.95648-2.10944-1.6896-1.73056-6.46144-0.6144-8.0896-2.39616-1.62816-1.792-3.79904-3.26656-5.35552-5.10976-1.56672-1.8432 1.06496-7.17824-0.43008-9.07264-1.49504-1.8944 0-5.92896-1.4336-7.87456-1.4336-1.9456-3.52256-3.2256-4.88448-5.2224s-5.75488-1.91488-7.04512-3.95264c-1.29024-2.048 0.9728-6.144-0.24576-8.23296-1.21856-2.08896-2.84672-3.77856-3.9936-5.90848-1.14688-2.12992-10.05568-0.28672-11.12064-2.44736-1.06496-2.17088 0.64512-5.77536-0.34816-7.97696-0.99328-2.2016 3.56352-6.73792 2.65216-8.97024-0.91136-2.23232-9.99424-1.32096-10.82368-3.584-0.82944-2.26304 6.81984-7.48544 6.07232-9.78944-0.74752-2.29376-9.51296-2.11968-10.1888-4.44416-0.6656-2.31424 5.55008-6.52288 4.95616-8.86784-0.58368-2.34496-0.7168-4.67968-1.2288-7.04512-0.50176-2.3552-4.51584-3.97312-4.94592-6.35904-0.41984-2.37568 4.11648-5.46816 3.77856-7.86432-0.33792-2.38592-8.42752-3.79904-8.68352-6.20544-0.256-2.39616 6.57408-5.40672 6.4-7.82336-0.16384-2.4064-0.64512-4.66944-0.73728-7.09632 0.02048-2.39616-0.57344-4.66944-0.57344-7.08608z m209.57184 213.13536c3.71712-0.07168 3.81952-4.34176 6.5024-6.92224 2.68288-2.57024 0.36864-4.98688 3.04128-7.55712 2.68288-2.58048 3.0208-2.22208 5.70368-4.80256 2.69312-2.59072 3.97312-1.26976 6.66624-3.86048 2.69312-2.58048 2.39616-2.88768 5.08928-5.4784 2.69312-2.58048 6.03136 0.89088 8.72448-1.6896 2.6624-2.56-0.69632-6.06208 1.96608-8.62208 2.68288-2.58048 5.43744 0.27648 8.12032-2.304 2.70336-2.59072-0.32768-5.74464 2.37568-8.33536 2.69312-2.59072 1.60768-3.71712 4.31104-6.30784 2.7136-2.60096 1.20832-4.16768 3.92192-6.76864 2.7136-2.6112 5.38624 0.17408 8.09984-2.42688 2.72384-2.6112 6.00064 0.79872 8.72448-1.81248s1.25952-3.69664 4.21888-6.03136c1.40288-1.10592-2.70336-7.69024-1.11616-8.50944 2.19136-1.20832 7.91552 4.01408 10.0352 2.70336 2.12992-1.31072 4.67968-2.2016 6.72768-3.60448 2.05824-1.41312-0.6656-9.3696 1.31072-10.87488 1.98656-1.50528 10.07616 4.63872 11.9808 3.05152 1.91488-1.59744 3.0208-4.42368 4.84352-6.10304 1.83296-1.6896 4.17792-3.11296 5.91872-4.88448 1.7408-1.78176 1.42336-5.66272 3.072-7.5264 1.65888-1.86368 2.16064-4.73088 3.72736-6.66624s6.85056-1.14688 8.31488-3.15392c1.46432-2.00704-3.4816-8.50944-2.11968-10.58816 1.37216-2.07872 5.1712-2.53952 6.43072-4.67968 1.26976-2.14016 5.632-2.63168 6.78912-4.83328 1.15712-2.2016 2.5088-4.48512 3.56352-6.73792 1.05472-2.2528-5.03808-7.61856-4.096-9.92256 0.94208-2.304 7.26016-2.47808 8.0896-4.82304 0.82944-2.34496-1.65888-5.76512-0.94208-8.15104 0.7168-2.37568 1.85344-4.56704 2.4576-6.98368 0.59392-2.4064-0.19456-5.03808 0.29696-7.4752 0.48128-2.43712 3.77856-4.33152 4.1472-6.79936 0.3584-2.4576 5.4272-4.46464 5.67296-6.94272 0.24576-2.46784-2.58048-5.34528-2.4576-7.8336 0.12288-2.47808-4.59776-5.05856-4.59776-7.55712-0.02048-2.5088 5.25312-5.14048 5.13024-7.61856-0.13312-2.49856-2.74432-4.864-3.00032-7.33184-0.256-2.48832 0.99328-5.20192 0.62464-7.65952-0.36864-2.47808-5.59104-4.06528-6.07232-6.49216-0.49152-2.4576-1.15712-4.70016-1.76128-7.10656-0.60416-2.42688 5.23264-6.61504 4.51584-8.99072-0.7168-2.39616-3.56352-4.20864-4.39296-6.54336-0.82944-2.3552-4.84352-3.47136-5.7856-5.77536-0.94208-2.31424 1.73056-6.1952 0.67584-8.448-1.05472-2.26304-5.9392-2.6112-7.09632-4.82304-1.15712-2.21184 0.8704-6.16448-0.39936-8.31488-1.25952-2.1504-2.18112-4.608-3.54304-6.69696-1.36192-2.08896-1.66912-5.05856-3.13344-7.07584-1.46432-2.01728-5.81632-1.93536-7.3728-3.88096-1.55648-1.9456-1.85344-4.99712-3.49184-6.8608-1.64864-1.87392-0.84992-6.20544-2.58048-7.99744-1.73056-1.792-8.30464 1.20832-10.11712-0.50176-1.81248-1.71008-5.64224-0.94208-7.53664-2.56-1.8944-1.61792-0.60416-6.97344-2.57024-8.4992-1.96608-1.52576-6.84032 1.06496-8.87808-0.36864-2.03776-1.4336-1.90464-5.86752-4.00384-7.19872-2.0992-1.3312-5.84704 0.3072-8.00768-0.9216-2.16064-1.2288-2.93888-4.73088-5.1712-5.85728-2.21184-1.1264-2.8672-5.56032-5.14048-6.57408-2.26304-1.024-4.52608-2.34496-6.85056-3.25632-2.31424-0.91136-4.4544-2.72384-6.81984-3.52256-2.3552-0.79872-6.79936 5.12-9.20576 4.43392-2.38592-0.68608-3.10272-7.7824-5.5296-8.35584-2.41664-0.5632-5.86752 3.60448-8.32512 3.14368-2.43712-0.45056-4.85376-0.58368-7.33184-0.9216-2.4576-0.33792-4.79232-1.14688-7.29088-1.36192-2.46784-0.21504-4.74112-4.27008-7.23968-4.37248-2.47808-0.1024-5.03808 7.43424-7.54688 7.45472-0.09216 0-0.27648-0.768-0.36864-0.768-2.5088-0.04096-5.08928-9.25696-7.56736-9.17504-2.49856 0.08192-5.08928 1.88416-7.56736 2.07872-2.49856 0.19456-4.6592 4.12672-7.12704 4.44416-2.47808 0.31744-4.85376 1.1264-7.29088 1.55648-2.46784 0.43008-6.17472-4.88448-8.6016-4.34176-2.43712 0.55296-2.62144 10.15808-5.0176 10.81344-2.4064 0.6656-4.88448 0.48128-7.23968 1.25952-2.37568 0.77824-6.53312-3.55328-8.8576-2.6624-2.33472 0.89088-5.91872-0.80896-8.192 0.19456-2.28352 1.00352-2.54976 6.61504-4.78208 7.72096-2.23232 1.11616-5.5808 0.23552-7.75168 1.45408-2.18112 1.21856-2.92864 4.95616-5.03808 6.26688-2.11968 1.32096-4.01408 2.9184-6.07232 4.33152-2.048 1.41312-3.67616 3.33824-5.66272 4.85376-1.98656 1.51552-7.15776-0.8704-9.07264 0.72704-1.90464 1.60768-2.56 4.83328-4.39296 6.52288-1.83296 1.6896-2.23232 4.9152-3.98336 6.68672-1.75104 1.77152-4.7104 2.4576-6.36928 4.32128-1.65888 1.85344-5.36576 2.1504-6.93248 4.08576-1.56672 1.93536 3.65568 9.12384 2.18112 11.13088-1.47456 2.00704-2.3552 4.15744-3.7376 6.23616-1.3824 2.06848-5.30432 2.34496-6.58432 4.48512-1.28 2.12992-7.22944 1.66912-8.40704 3.87072-1.1776 2.19136-2.24256 4.63872-3.31776 6.89152-1.06496 2.24256-0.4608 5.38624-1.42336 7.68-0.96256 2.29376 0.44032 5.53984-0.41984 7.8848-0.84992 2.33472-6.51264 3.14368-7.26016 5.5296-0.73728 2.37568 3.03104 6.13376 2.4064 8.5504-0.62464 2.4064 0.27648 5.10976-0.23552 7.55712-0.50176 2.42688-3.33824 4.41344-3.72736 6.89152-0.38912 2.44736 0.2048 5.04832-0.07168 7.53664-0.26624 2.46784 1.93536 5.08928 1.78176 7.58784-0.1536 2.47808-0.512 4.83328-0.54272 7.34208l-7.17824-0.01024c0 2.43712 5.85728 4.82304 5.95968 7.23968 0.11264 2.43712-5.48864 5.34528-5.26336 7.75168 0.22528 2.42688 9.1136 3.85024 9.45152 6.2464 0.33792 2.4064-5.49888 5.79584-5.04832 8.17152 0.45056 2.38592-1.10592 5.376-0.54272 7.7312 0.5632 2.36544 3.70688 4.1984 4.38272 6.53312 0.67584 2.33472-0.23552 5.30432 0.54272 7.59808 0.78848 2.29376 8.38656 2.08896 9.27744 4.34176 0.89088 2.2528-4.07552 6.98368-3.072 9.19552 1.00352 2.21184 2.60096 4.28032 3.69664 6.44096 1.10592 2.16064 7.1168 1.64864 8.32512 3.74784 1.20832 2.10944 3.28704 3.4816 4.58752 5.5296s-1.45408 6.71744-0.06144 8.704c1.40288 1.98656 0.41984 5.85728 1.90464 7.7824 1.49504 1.91488 8.11008-0.33792 9.68704 1.50528 1.57696 1.8432-2.03776 8.40704-0.36864 10.17856 1.65888 1.76128 6.07232 0.9728 7.82336 2.65216 1.7408 1.67936 6.8096-0.37888 8.64256 1.21856 1.82272 1.59744 3.24608 3.3792 5.15072 4.89472 1.8944 1.50528 1.97632 5.2224 3.9424 6.64576 1.96608 1.41312 1.83296 5.98016 3.88096 7.31136 2.02752 1.32096 4.94592 1.40288 7.04512 2.64192 1.3312 0.78848 2.56-1.1264 3.80928-0.2048 1.29024 0.95232-1.04448 3.60448 0.13312 4.68992 2.63168 2.42688 6.79936-2.048 9.41056 0.4096 2.60096 2.43712-2.84672 8.2432-0.24576 10.69056 2.60096 2.43712 3.584 1.3824 6.18496 3.81952 2.60096 2.44736 6.41024-1.60768 9.0112 0.82944 2.6112 2.4576 3.85024 1.13664 6.46144 3.59424 2.6112 2.44736-2.68288 8.07936-0.07168 10.52672s2.33472 2.74432 4.93568 5.19168c2.58048 2.42688 3.1232 1.8432 5.71392 4.27008 2.60096 2.44736 1.85344 3.23584 4.46464 5.6832 2.62144 2.4576 2.70336 2.36544 5.3248 4.82304 2.6112 2.4576 2.31424 2.77504 4.92544 5.23264 2.62144 2.46784 4.37248 0.60416 6.99392 3.072 2.63168 2.46784 1.61792 3.54304 4.2496 6.01088 2.64192 2.47808 6.8096-1.19808 8.52992 1.98656 2.39616 4.46464 0.768 8.51968 4.38272 8.448z" fill="#FF5629" p-id="3017"></path><path d="M741.20192 630.86592c-3.14368-2.2016-4.3008 2.49856-8.1408 2.49856-3.85024 0-3.85024-4.6592-7.70048-4.6592-3.84 0-3.84 2.37568-7.69024 2.37568-3.84 0-3.84 2.49856-7.68 2.49856s-3.84-5.632-7.66976-5.632c-3.85024 0-3.85024-0.52224-7.71072-0.52224s-3.86048 3.56352-7.72096 3.56352c-3.87072 0-3.87072 2.28352-7.74144 2.28352s-3.87072-5.14048-7.74144-5.14048c-2.37568 0-4.95616 4.08576-7.14752 3.50208-2.27328-0.60416-3.50208-3.62496-5.49888-4.78208-2.01728-1.16736-6.144 0.16384-7.7824-1.47456-1.6384-1.6384 2.05824-7.12704 0.89088-9.14432-1.14688-1.98656-4.6592-2.3552-5.26336-4.62848-0.58368-2.19136-1.56672-4.25984-1.56672-6.64576 0-2.37568 1.14688-4.4032 1.73056-6.6048 0.60416-2.27328-2.0992-6.18496-0.94208-8.17152 1.16736-2.01728 1.77152-5.75488 3.40992-7.39328 1.6384-1.6384 8.92928 3.90144 10.94656 2.74432 1.98656-1.14688 3.26656-1.1264 5.53984-1.73056 2.19136-0.58368 3.29728-8.64256 5.67296-8.64256 3.66592 0 3.66592 4.9664 7.33184 4.9664 3.6864 0 3.6864 2.89792 7.3728 2.89792 3.67616 0 3.67616-1.31072 7.35232-1.31072s3.67616 0.38912 7.35232 0.38912c3.6864 0 3.6864-8.5504 7.3728-8.5504s3.6864 9.51296 7.36256 9.51296 3.67616-0.29696 7.36256-0.29696c3.67616 0 3.67616 0.7168 7.34208 0.7168 3.69664 0 3.69664-4.99712 7.38304-4.99712 3.69664 0 3.69664 0.16384 7.39328 0.16384 3.70688 0 3.70688 3.88096 7.41376 3.88096s3.65568-8.64256 7.36256-8.68352c2.34496-0.12288 5.31456 1.67936 7.53664 2.1504 2.27328 0.48128 3.87072 4.096 5.91872 5.13024 2.05824 1.03424 3.24608 3.18464 4.9664 4.7104 1.71008 1.51552 7.94624-0.17408 9.216 1.76128 1.24928 1.8944 1.09568 5.67296 1.8432 7.89504 1.18784 3.54304 2.31424 3.16416 3.49184 6.7072 1.1776 3.5328-4.18816 5.3248-3.00032 8.8576 1.1776 3.5328 3.66592 2.70336 4.84352 6.23616 1.1776 3.5328-3.3792 5.04832-2.2016 8.58112 1.1776 3.5328 4.37248 2.46784 5.56032 5.9904l2.34496 7.07584c1.1776 3.54304 6.00064 1.93536 7.17824 5.46816 1.1776 3.54304-8.09984 6.64576-6.92224 10.1888 1.1776 3.5328 5.72416 2.01728 6.912 5.56032 1.1776 3.5328-3.01056 4.93568-1.83296 8.46848 1.1776 3.51232 4.75136 2.31424 5.92896 5.82656 1.16736 3.51232 1.67936 3.34848 2.84672 6.8608 1.1776 3.51232-2.54976 4.7616-1.37216 8.27392 1.1776 3.52256 4.43392 2.43712 5.61152 5.95968 1.1776 3.54304-1.25952 4.352-0.08192 7.89504 1.18784 3.55328 4.44416 2.4576 5.632 6.01088 1.1776 3.5328-3.20512 4.99712-2.02752 8.54016 1.1776 3.5328 0.77824 3.66592 1.95584 7.19872 1.1776 3.54304 3.77856 2.67264 4.95616 6.21568 1.18784 3.55328 0.39936 3.81952 1.5872 7.3728 1.18784 3.54304 6.2976 1.8432 7.4752 5.38624 1.18784 3.54304 3.81952 2.67264 5.00736 6.21568 1.18784 3.56352-5.60128 5.82656-4.41344 9.37984 1.18784 3.55328-0.99328 4.28032 0.19456 7.8336 1.18784 3.55328 6.68672 1.71008 7.87456 5.26336 1.18784 3.54304 3.30752 2.83648 4.49536 6.37952 1.18784 3.56352-5.07904 5.65248-3.8912 9.216 1.18784 3.56352 0.84992 3.6864 2.03776 7.24992 1.19808 3.57376 6.44096 1.82272 7.63904 5.40672s0.3584 3.86048 1.55648 7.43424c0.768 2.2528 3.52256 4.74112 3.66592 7.00416 0.1536 2.34496 0.64512 5.76512 0.19456 8.01792-0.4608 2.28352-6.35904 3.20512-7.38304 5.28384-1.024 2.07872-4.62848 1.66912-6.15424 3.42016-1.51552 1.73056-0.83968 4.9152-2.79552 6.21568-1.88416 1.25952-4.21888 0.47104-6.47168 1.23904-3.19488 1.08544-5.60128 6.26688-8.97024 6.08256-3.69664-0.06144-3.67616-0.256-7.3728-0.256s-3.69664 3.46112-7.40352 3.46112c-3.69664 0-3.69664-2.14016-7.39328-2.14016s-3.69664-4.73088-7.39328-4.73088-3.69664 0.27648-7.39328 0.27648-3.69664 3.60448-7.39328 3.60448-3.69664-0.59392-7.39328-0.59392-3.69664-2.23232-7.39328-2.23232-3.69664 1.28-7.39328 1.28-3.69664 4.38272-7.39328 4.38272-3.69664-9.20576-7.39328-9.20576-3.69664 3.4304-7.40352 3.4304c-3.69664 0-3.69664 3.90144-7.40352 3.90144s-3.70688-5.38624-7.40352-5.38624c-3.70688 0-3.70688 0.1536-7.41376 0.1536s-3.70688 3.38944-7.41376 3.38944-3.70688-1.4848-7.41376-1.4848-3.70688-1.30048-7.41376-1.30048l-7.40352 0.01024c-3.69664 0-3.69664 3.60448-7.40352 3.60448-3.69664 0-3.69664-0.64512-7.40352-0.64512-3.67616 0-3.67616-4.5568-7.35232-4.5568s-3.67616 0.19456-7.36256 0.19456-3.6864 7.39328-7.36256 7.39328c-3.6864 0-3.6864-1.6896-7.3728-1.6896-3.69664 0-3.69664-1.6384-7.38304-1.6384-3.69664 0-3.69664 0.54272-7.39328 0.54272-3.70688 0-3.70688 0.03072-7.40352 0.03072-3.70688 0-3.70688 0.60416-7.41376 0.60416s-3.70688-5.7856-7.41376-5.7856-3.70688 6.84032-7.40352 6.84032-3.69664 0.77824-7.40352 0.77824c-3.69664 0-3.69664-2.31424-7.39328-2.31424s-3.69664-0.53248-7.38304-0.53248-3.6864-3.87072-7.38304-3.87072c-3.6864 0-3.6864 1.91488-7.3728 1.91488s-3.6864-1.1264-7.3728-1.1264-3.6864 3.14368-7.3728 3.14368-3.6864-6.0416-7.3728-6.0416-3.6864 3.36896-7.38304 3.36896c-3.6864 0-3.6864-2.28352-7.38304-2.28352s-3.69664 4.5568-7.38304 4.5568c-3.69664 0-3.69664-4.01408-7.39328-4.01408-3.70688 0-3.70688 3.38944-7.40352 3.38944-3.70688 0-3.70688 4.75136-7.41376 4.75136-3.71712 0-3.71712-3.6864-7.424-3.6864-3.71712 0-3.71712-0.98304-7.43424-0.98304-3.70688 0-3.70688 0.3584-7.424 0.3584-3.70688 0-3.70688 2.1504-7.41376 2.1504s-3.70688-1.26976-7.40352-1.26976-3.69664-3.30752-7.40352-3.30752c-3.69664 0-3.69664-0.65536-7.40352-0.65536s-3.70688 3.2256-7.40352 3.2256c-3.70688 0-3.70688-4.096-7.41376-4.096s-3.70688 0.09216-7.41376 0.09216c-3.71712 0-3.71712 6.71744-7.43424 6.71744s-3.71712 0.53248-7.44448 0.53248c-3.71712 0-3.71712-7.60832-7.43424-7.60832l-7.424 0.01024c-3.70688 0-3.70688 6.42048-7.41376 6.42048s-3.70688-4.2496-7.424-4.2496-3.71712-0.3072-7.424-0.3072c-3.71712 0-3.71712 2.74432-7.43424 2.74432-3.72736 0-3.72736 3.7376-7.44448 3.7376s-3.71712-2.4576-7.43424-2.4576-3.71712-2.6112-7.43424-2.6112-3.71712 5.0176-7.43424 5.0176c-3.6864 0-3.6864-3.08224-7.38304-3.08224s-3.69664-3.74784-7.38304-3.74784c-3.70688 0-3.70688 5.87776-7.40352 5.87776-3.71712 0-3.71712-1.11616-7.43424-1.11616-3.72736 0-3.72736-6.74816-7.45472-6.74816-3.71712 0-3.71712 6.41024-7.43424 6.41024-3.70688 0-3.70688-1.93536-7.424-1.93536s-3.71712-4.864-7.43424-4.864c-3.7376 0-3.7376 1.66912-7.46496 1.66912s-3.72736 1.55648-7.45472 1.55648-3.72736 2.03776-7.45472 2.03776c-3.7376 0-3.7376 2.44736-7.4752 2.44736-3.72736 0-3.72736-4.47488-7.46496-4.47488-3.72736 0-3.72736-3.70688-7.45472-3.70688s-3.72736 9.35936-7.44448 9.35936c-3.7376 0-3.7376-8.26368-7.48544-8.26368s-3.74784 2.97984-7.49568 2.97984c-3.75808 0-3.75808-2.41664-7.51616-2.41664s-3.79904 0.12288-7.55712 0.17408c-2.37568 0.12288-3.60448-1.90464-5.82656-2.37568-2.29376-0.48128-3.74784 0.17408-5.79584-0.8704-2.07872-1.05472-8.86784 4.56704-10.58816 3.0208-1.72032-1.54624-1.1776-6.08256-2.44736-8.02816a29.36832 29.36832 0 0 1-3.36896-6.46144c-0.70656-2.16064 2.19136-4.99712 2.06848-7.3728-0.18432-3.36896-1.1776-6.49216-0.09216-9.68704 1.18784-3.54304-3.70688-5.1712-2.52928-8.71424 1.1776-3.5328 3.88096-2.63168 5.05856-6.17472 1.1776-3.5328 1.59744-3.38944 2.77504-6.92224 1.1776-3.5328-0.52224-4.096 0.65536-7.6288 1.1776-3.5328 5.84704-1.97632 7.02464-5.49888 1.1776-3.5328-0.9728-4.2496 0.2048-7.7824 1.1776-3.54304 3.76832-2.67264 4.94592-6.21568 1.1776-3.54304-4.75136-5.51936-3.56352-9.0624 1.1776-3.5328 2.48832-3.10272 3.66592-6.63552 1.1776-3.5328 4.10624-2.56 5.29408-6.0928 1.1776-3.51232-1.47456-4.4032-0.3072-7.91552 1.16736-3.51232 2.31424-3.13344 3.4816-6.64576 1.1776-3.51232 2.02752-3.2256 3.20512-6.74816 1.1776-3.52256-2.70336-4.82304-1.52576-8.3456 1.1776-3.54304 2.79552-3.00032 3.97312-6.54336 1.18784-3.55328 8.31488-1.16736 9.50272-4.72064 1.1776-3.5328-8.12032-6.64576-6.93248-10.17856 1.1776-3.5328 5.5296-2.07872 6.7072-5.61152 1.1776-3.54304-0.90112-4.23936 0.27648-7.77216 1.18784-3.55328 7.80288-1.35168 8.99072-4.90496 1.18784-3.54304 1.50528-3.44064 2.69312-6.98368 1.18784-3.54304-6.73792-6.1952-5.55008-9.73824 1.18784-3.56352 3.4816-2.79552 4.66944-6.3488 1.18784-3.55328 5.33504-2.17088 6.52288-5.72416 1.18784-3.55328-5.67296-5.8368-4.48512-9.39008 1.18784-3.54304 9.24672-0.84992 10.43456-4.39296 1.18784-3.56352-1.024-4.3008 0.17408-7.86432 1.18784-3.56352-2.06848-4.6592-0.88064-8.22272 1.19808-3.57376 4.608-2.43712 5.80608-6.02112s0.16384-3.92192 1.36192-7.49568c0.74752-2.22208 3.21536-2.95936 4.46464-4.85376 1.28-1.93536-1.03424-6.76864 0.67584-8.2944 1.72032-1.52576 3.87072-3.3792 5.92896-4.42368a30.3104 30.3104 0 0 1 7.02464-2.41664c2.21184-0.47104 4.95616 0.95232 7.30112 1.0752 3.66592 0.0512 3.66592-1.3824 7.33184-1.3824 3.6864 0 3.6864 5.75488 7.3728 5.75488 3.67616 0 3.67616-5.31456 7.35232-5.31456s3.67616-3.328 7.35232-3.328c3.6864 0 3.6864 9.78944 7.3728 9.78944s3.6864-2.77504 7.36256-2.77504 3.67616-0.17408 7.36256-0.17408c3.67616 0 3.67616 0.45056 7.34208 0.45056 3.69664 0 3.69664-6.46144 7.38304-6.46144 3.69664 0 3.69664 5.03808 7.39328 5.03808 3.70688 0 3.70688 3.56352 7.41376 3.56352s3.70688-7.40352 7.41376-7.40352c2.37568 0 4.05504 5.376 6.2464 5.95968 2.27328 0.60416 4.33152 0.39936 6.31808 1.54624 2.01728 1.16736 5.36576 0.5632 6.99392 2.2016 1.6384 1.6384 0.26624 5.4272 1.4336 7.43424 1.14688 1.98656 4.84352 2.7648 5.44768 5.02784 0.58368 2.19136 4.90496 4.7104 4.90496 7.08608 0 2.37568-3.61472 5.07904-4.1984 7.28064-0.60416 2.27328-0.99328 5.18144-2.1504 7.168-1.16736 2.01728-3.6352 3.65568-5.2736 5.28384-1.6384 1.6384-4.0448 2.77504-6.06208 3.9424-1.98656 1.14688-5.07904-0.70656-7.35232-0.1024-2.19136 0.58368-3.93216 6.22592-6.31808 6.22592-3.84 0-3.84-4.37248-7.68-4.37248-3.85024 0-3.85024 1.47456-7.70048 1.47456-3.84 0-3.84 1.06496-7.69024 1.06496-3.84 0-3.84 1.36192-7.68 1.36192s-3.84-7.71072-7.66976-7.71072c-3.85024 0-3.85024 9.46176-7.71072 9.46176s-3.86048-0.67584-7.72096-0.67584c-3.87072 0-3.87072-6.44096-7.74144-6.44096s-2.36544 3.59424-5.55008 5.7856c-3.01056 2.06848 0.74752 1.64864-0.39936 5.10976-1.15712 3.46112-1.54624 3.328-2.69312 6.78912-1.15712 3.46112-2.304 3.072-3.45088 6.53312-1.14688 3.4304-0.80896 3.54304-1.95584 6.98368-1.14688 3.4304-8.38656 1.024-9.5232 4.4544-1.14688 3.44064 7.69024 6.37952 6.54336 9.82016-1.14688 3.44064-5.0688 2.14016-6.21568 5.5808-1.15712 3.46112-2.78528 2.9184-3.9424 6.36928-1.15712 3.47136-3.7376 2.6112-4.89472 6.08256-1.15712 3.46112 4.47488 5.33504 3.31776 8.79616-1.14688 3.45088-5.21216 2.0992-6.36928 5.55008-1.15712 3.46112 2.90816 4.8128 1.75104 8.27392-1.15712 3.47136 0.57344 4.05504-0.58368 7.5264-1.15712 3.47136-4.97664 2.19136-6.12352 5.66272-1.15712 3.47136-1.49504 3.35872-2.65216 6.81984-1.15712 3.4816 3.97312 5.19168 2.816 8.67328-1.15712 3.47136-2.048 3.1744-3.20512 6.64576-1.15712 3.47136-3.01056 2.85696-4.16768 6.32832-1.15712 3.46112-7.7312 1.26976-8.88832 4.74112-1.15712 3.4816 6.59456 6.07232 5.43744 9.55392-1.16736 3.49184-7.15776 1.49504-8.31488 4.97664-1.16736 3.50208-1.76128 3.29728-2.9184 6.79936s-4.79232 7.87456-2.63168 10.8544c2.17088 3.00032 7.44448-2.65216 11.14112-2.65216 3.69664 0 3.69664-4.9152 7.40352-4.9152s3.70688 2.53952 7.40352 2.53952c3.70688 0 3.70688-0.6656 7.40352-0.6656 3.70688 0 3.70688 0.65536 7.41376 0.65536s3.70688 0.75776 7.41376 0.75776 3.70688-2.59072 7.41376-2.59072 3.70688 7.23968 7.41376 7.23968 3.70688-5.43744 7.40352-5.43744c3.70688 0 3.70688-2.6112 7.40352-2.6112s3.69664 0.0512 7.40352 0.0512c3.67616 0 3.67616 8.31488 7.35232 8.31488s3.67616-5.72416 7.36256-5.72416 3.6864 3.52256 7.36256 3.52256c3.6864 0 3.6864-3.20512 7.3728-3.20512 3.69664 0 3.69664 2.304 7.38304 2.304 3.69664 0 3.69664-3.26656 7.39328-3.26656 3.70688 0 3.70688-1.05472 7.40352-1.05472 3.70688 0 3.70688 6.64576 7.424 6.64576 3.70688 0 3.70688-5.51936 7.41376-5.51936s3.70688 5.41696 7.41376 5.41696c3.69664 0 3.69664-1.35168 7.40352-1.35168 3.69664 0 3.69664 2.2016 7.39328 2.2016s3.69664-5.50912 7.38304-5.50912 3.6864 2.1504 7.38304 2.1504c3.6864 0 3.6864 3.76832 7.38304 3.76832 3.6864 0 3.6864-0.88064 7.3728-0.88064s3.6864 0.22528 7.3728 0.22528 3.6864-1.69984 7.3728-1.69984 3.6864-0.50176 7.38304-0.50176 3.69664-2.26304 7.38304-2.26304c3.69664 0 3.69664 3.85024 7.39328 3.85024s3.69664-7.43424 7.39328-7.43424c3.70688 0 3.70688 6.62528 7.40352 6.62528 3.70688 0 3.70688-6.74816 7.41376-6.74816 3.71712 0 3.71712 5.89824 7.43424 5.89824s3.71712 0.68608 7.43424 0.68608c3.70688 0 3.70688-1.61792 7.424-1.61792 3.70688 0 3.70688 4.64896 7.41376 4.64896s3.70688-7.34208 7.40352-7.34208c3.70688 0 3.70688 4.36224 7.40352 4.36224s3.69664-3.69664 7.40352-3.69664 3.70688 0.48128 7.40352 0.48128c3.70688 0 3.70688 6.11328 7.41376 6.11328s3.70688-4.78208 7.424-4.78208 3.71712 3.20512 7.43424 3.20512c3.72736 0 3.72736-0.37888 7.44448-0.37888s3.71712-4.58752 7.43424-4.58752c3.70688 0 3.70688 2.00704 7.424 2.00704 3.70688 0 3.70688 5.13024 7.424 5.13024 3.70688 0 3.70688-0.13312 7.424-0.13312s3.71712-1.00352 7.424-1.00352c3.71712 0 3.71712 0.24576 7.43424 0.24576 3.72736 0 3.72736-2.7136 7.44448-2.7136s3.71712 1.93536 7.43424 1.93536 3.71712-1.88416 7.43424-1.88416 3.71712 2.36544 7.43424 2.36544c3.6864 0 3.6864-0.37888 7.38304-0.37888s3.69664-2.82624 7.38304-2.82624c3.70688 0 3.70688 1.15712 7.40352 1.15712 3.71712 0 3.71712 2.08896 7.43424 2.08896 3.72736 0 3.72736-3.51232 7.45472-3.51232 3.71712 0 3.71712 1.95584 7.43424 1.95584s3.71712-3.39968 7.424-3.39968c3.71712 0 3.71712-0.62464 7.43424-0.62464 3.7376 0 3.7376 1.66912 7.46496 1.66912s3.72736-3.14368 7.45472-3.14368 3.72736 6.13376 7.45472 6.13376c3.7376 0 3.7376-5.0688 7.4752-5.0688s3.7376-1.16736 7.46496-1.16736 3.72736 7.36256 7.46496 7.36256c3.72736 0 3.72736-1.32096 7.44448-1.32096 3.74784 0 3.74784-3.86048 7.48544-3.86048 3.74784 0 3.74784-0.3072 7.49568-0.3072 3.75808 0 3.75808-0.36864 7.51616-0.36864s3.40992 3.29728 5.66272 0.28672c2.19136-2.9184 3.51232-3.01056 2.3552-6.47168-1.15712-3.46112-0.54272-3.65568-1.69984-7.1168-1.15712-3.46112-8.62208-0.96256-9.7792-4.42368-1.14688-3.4304-0.62464-3.60448-1.76128-7.04512-1.14688-3.4304 0.11264-3.85024-1.03424-7.29088-1.14688-3.44064-2.92864-2.84672-4.07552-6.27712-1.14688-3.44064 3.82976-5.10976 2.68288-8.5504-1.15712-3.46112-2.46784-3.0208-3.61472-6.48192-1.15712-3.47136-2.39616-3.05152-3.55328-6.52288-1.15712-3.46112-3.6864-2.6112-4.84352-6.07232-1.14688-3.45088 2.82624-4.78208 1.66912-8.23296-1.15712-3.46112-1.91488-3.20512-3.072-6.66624-1.15712-3.47136-1.34144-3.42016-2.49856-6.89152-1.15712-3.47136-0.96256-3.5328-2.11968-7.00416-1.15712-3.47136-1.35168-3.39968-2.49856-6.87104-1.15712-3.4816-3.80928-2.60096-4.9664-6.07232-1.15712-3.47136 5.14048-5.57056 3.98336-9.04192-1.15712-3.47136-1.55648-3.33824-2.7136-6.8096-1.15712-3.46112 0.53248-4.02432-0.62464-7.49568-1.15712-3.4816-1.61792-3.328-2.77504-6.81984-1.16736-3.49184-0.91136-3.57376-2.07872-7.0656-1.16736-3.50208-5.69344-2.11968-6.03136-5.7856-0.3584-4.06528 1.28-5.4784-1.7408-7.59808z" fill="#FF5629" p-id="3018"></path></svg>