<?xml version="1.0" standalone="no"?><!DOCTYPE svg PUBLIC "-//W3C//DTD SVG 1.1//EN" "http://www.w3.org/Graphics/SVG/1.1/DTD/svg11.dtd"><svg t="1600219553198" class="icon" viewBox="0 0 1024 1024" version="1.1" xmlns="http://www.w3.org/2000/svg" p-id="3581" xmlns:xlink="http://www.w3.org/1999/xlink" width="128" height="128"><defs><style type="text/css"></style></defs><path d="M578.77504 438.8352c-0.69632 2.4576-0.39936 5.0176-1.23904 7.38304-0.84992 2.4064-2.70336 4.1984-3.69664 6.5024-1.01376 2.34496-2.64192 4.096-3.79904 6.31808-1.16736 2.27328-0.3072 5.4272-1.61792 7.56736-1.3312 2.18112 1.01376 6.84032-0.45056 8.86784-1.49504 2.06848-8.27392-0.09216-9.89184 1.81248-1.65888 1.9456-2.11968 4.608-3.90144 6.35904-1.82272 1.792 0.24576 7.96672-1.69984 9.55392-1.97632 1.61792-6.79936-0.45056-8.89856 0.93184a66.97984 66.97984 0 0 1-6.5024 3.6864c-2.2528 1.16736-2.97984 6.00064-5.33504 6.90176-2.36544 0.90112-6.68672-4.49536-9.13408-3.88096s-3.72736 7.40352-6.2464 7.71072c-2.48832 0.3072-5.38624-0.1024-7.936-0.1024s-5.09952-2.41664-7.59808-2.72384c-2.51904-0.3072-5.77536 2.19136-8.22272 1.57696-2.4576-0.6144-3.25632-6.66624-5.62176-7.56736-2.3552-0.90112-4.06528-2.51904-6.31808-3.6864-2.23232-1.15712-4.23936-2.10944-6.35904-3.52256-2.08896-1.3824-5.92896-0.22528-7.90528-1.8432-1.93536-1.5872-5.21216-1.91488-7.02464-3.69664-1.78176-1.75104-5.72416-1.97632-7.38304-3.91168-1.62816-1.90464 3.7888-9.43104 2.29376-11.49952-1.46432-2.02752-7.53664-0.93184-8.86784-3.11296-1.31072-2.14016 3.05152-7.3728 1.87392-9.64608-1.14688-2.22208-7.45472-1.91488-8.46848-4.25984-0.99328-2.304-4.5056-3.82976-5.36576-6.2464-0.83968-2.36544 6.7584-7.41376 6.06208-9.8816" fill="#FFA60B" opacity=".5" p-id="3582"></path><path d="M508.47744 526.2336c-2.43712 0-4.94592 5.71392-7.35232 5.59104-2.43712-0.12288-5.1712 1.95584-7.5776 1.71008-2.42688-0.24576-5.05856-0.4096-7.44448-0.77824-2.4064-0.37888-3.36896-8.6528-5.7344-9.15456-2.37568-0.50176-6.58432 6.67648-8.91904 6.05184-2.34496-0.62464-2.90816-7.51616-5.21216-8.25344-2.31424-0.74752-4.62848-1.13664-6.89152-1.9968-2.27328-0.86016-3.4304-4.00384-5.64224-4.97664-2.22208-0.98304-5.5808 0.79872-7.74144-0.28672-2.17088-1.09568-3.87072-2.8672-5.96992-4.06528-2.10944-1.20832-6.7584 1.75104-8.79616 0.44032-2.03776-1.31072-5.09952-1.46432-7.0656-2.87744-1.96608-1.41312-3.81952-3.34848-5.71392-4.864-1.8944-1.50528 1.37216-9.18528-0.44032-10.79296-1.81248-1.60768-4.5056-2.03776-6.23616-3.72736-1.73056-1.6896-4.27008-2.47808-5.91872-4.25984-1.64864-1.78176-5.72416-1.45408-7.28064-3.30752-1.55648-1.85344-4.15744-3.06176-5.62176-4.99712-1.45408-1.93536 0.44032-6.35904-0.9216-8.36608-1.36192-1.9968-2.4576-4.12672-3.71712-6.20544-1.25952-2.06848-1.69984-4.52608-2.85696-6.656-1.14688-2.12992-5.7856-2.49856-6.83008-4.68992-1.04448-2.18112-2.52928-4.3008-3.47136-6.54336-0.93184-2.23232 0.5632-5.48864-0.26624-7.77216-0.8192-2.27328-4.38272-3.72736-5.08928-6.05184-0.70656-2.31424 2.19136-5.69344 1.59744-8.04864-0.58368-2.34496 1.25952-5.14048 0.77824-7.5264-0.47104-2.36544-0.53248-4.6592-0.89088-7.0656-0.3584-2.38592-7.45472-3.95264-7.69024-6.37952-0.23552-2.4064 4.38272-5.2224 4.25984-7.65952-0.11264-2.4064 1.7408-4.77184 1.7408-7.20896 0-2.43712-4.62848-4.92544-4.51584-7.34208 0.12288-2.43712-2.80576-5.2224-2.57024-7.61856 0.23552-2.42688 7.72096-3.9936 8.07936-6.37952 0.3584-2.4064 0.07168-4.80256 0.54272-7.168 0.47104-2.38592-4.36224-6.00064-3.76832-8.33536 0.59392-2.3552 0.23552-5.18144 0.94208-7.49568 0.70656-2.32448 9.65632-1.91488 10.47552-4.18816 0.82944-2.28352-1.39264-5.62176-0.4608-7.85408 0.94208-2.24256 2.048-4.352 3.09248-6.53312 1.04448-2.19136 5.00736-2.75456 6.15424-4.88448 1.15712-2.14016 2.46784-3.93216 3.72736-6.00064 1.25952-2.07872-0.86016-6.17472 0.50176-8.18176 1.36192-2.00704 1.46432-4.94592 2.92864-6.87104 1.46432-1.93536 6.95296-0.58368 8.4992-2.43712 1.55648-1.86368-0.17408-6.5024 1.46432-8.27392 1.64864-1.78176 2.57024-4.33152 4.31104-6.02112 1.73056-1.6896 6.00064-0.63488 7.81312-2.24256 1.81248-1.60768 2.69312-4.21888 4.58752-5.72416 1.8944-1.50528 2.69312-4.49536 4.66944-5.89824 1.96608-1.41312 3.90144-3.01056 5.9392-4.31104 2.03776-1.31072 5.30432-0.6144 7.41376-1.82272 2.0992-1.19808 2.05824-6.57408 4.21888-7.65952 2.16064-1.08544 6.88128 3.10272 9.10336 2.11968 2.21184-0.9728 5.29408 0.59392 7.56736-0.27648 2.26304-0.86016 2.78528-6.35904 5.09952-7.09632 2.304-0.73728 5.77536 2.80576 8.12032 2.18112 2.33472-0.6144 4.352-1.81248 6.72768-2.31424 2.36544-0.49152 3.36896-8.66304 5.77536-9.04192 2.38592-0.36864 5.30432 1.92512 7.72096 1.67936 2.39616-0.24576 5.20192 5.00736 7.63904 4.88448 2.4064-0.12288 4.6592-0.31744 7.09632-0.31744 2.43712 0 5.04832-6.8096 7.45472-6.67648 2.43712 0.12288 5.04832 0.1536 7.45472 0.39936 2.42688 0.24576 3.84 8.12032 6.22592 8.48896 2.4064 0.37888 4.53632 1.024 6.90176 1.51552 2.37568 0.50176 5.98016-4.44416 8.31488-3.82976 2.34496 0.62464 5.43744-0.78848 7.74144-0.0512 2.31424 0.74752 4.02432 3.62496 6.27712 4.48512 2.27328 0.86016 4.77184 1.40288 6.98368 2.38592 2.22208 0.98304 2.56 5.92896 4.72064 7.0144 2.17088 1.09568 5.75488-0.53248 7.85408 0.6656 2.10944 1.20832 2.01728 5.91872 4.05504 7.2192 2.03776 1.31072 6.92224-1.61792 8.88832-0.21504 1.96608 1.41312 1.03424 6.63552 2.92864 8.15104 1.8944 1.50528 4.46464 2.048 6.28736 3.64544 1.81248 1.60768 3.7376 3.00032 5.46816 4.68992 1.73056 1.6896 5.12 1.77152 6.76864 3.55328 1.64864 1.78176 5.26336 1.98656 6.81984 3.84 1.55648 1.85344 0.768 5.71392 2.23232 7.64928 1.45408 1.93536 6.13376 1.73056 7.49568 3.7376 1.36192 1.9968 3.20512 3.98336 4.46464 6.06208 1.25952 2.06848 0.16384 5.70368 1.32096 7.8336 1.14688 2.12992-2.02752 6.46144-0.98304 8.6528 1.04448 2.18112 2.60096 4.02432 3.5328 6.26688 0.93184 2.23232 5.76512 2.9696 6.58432 5.25312 0.8192 2.27328 1.0752 4.85376 1.78176 7.17824 0.70656 2.31424 1.41312 4.73088 1.9968 7.08608 0.58368 2.34496-4.20864 5.85728-3.72736 8.2432 0.47104 2.36544 9.32864 3.328 9.68704 5.7344 0.3584 2.38592-8.6016 5.94944-8.36608 8.36608 0.23552 2.4064 6.64576 4.3008 6.7584 6.73792 0.11264 2.4064-4.28032 4.92544-4.28032 7.36256s3.57376 4.9152 3.45088 7.3216c-0.12288 2.43712 1.96608 5.13024 1.73056 7.5264-0.23552 2.42688 0.43008 5.14048 0.08192 7.5264-0.3584 2.4064-0.22528 5.13024-0.70656 7.49568-0.47104 2.38592-6.0928 3.72736-6.68672 6.07232-0.59392 2.3552 0.06144 5.07904-0.64512 7.39328-0.70656 2.32448-1.14688 4.80256-1.96608 7.07584-0.82944 2.28352-2.21184 4.41344-3.14368 6.64576-0.94208 2.24256-1.52576 4.70016-2.57024 6.88128-1.04448 2.19136 0.82944 6.05184-0.31744 8.18176-1.15712 2.14016-9.73824 0.04096-10.99776 2.10944-1.25952 2.07872 1.08544 6.37952-0.27648 8.38656-1.36192 2.00704-2.18112 4.47488-3.6352 6.4-1.46432 1.93536-2.60096 4.22912-4.15744 6.0928-1.55648 1.86368-3.87072 3.15392-5.51936 4.92544-1.64864 1.78176-4.16768 2.74432-5.90848 4.43392-1.73056 1.6896-0.14336 7.15776-1.96608 8.7552-1.81248 1.60768-9.80992-4.13696-11.70432-2.63168-1.8944 1.50528-1.50528 5.81632-3.4816 7.22944-1.96608 1.41312-3.25632 3.80928-5.30432 5.12-2.03776 1.31072-6.06208-0.79872-8.16128 0.39936-2.0992 1.19808-2.60096 5.19168-4.77184 6.28736-2.16064 1.08544-3.51232 4.01408-5.72416 4.99712-2.21184 0.9728-3.51232 4.63872-5.7856 5.49888-2.26304 0.86016-7.81312-7.65952-10.12736-6.92224-2.304 0.73728-4.08576 2.41664-6.43072 3.04128-2.33472 0.6144-4.64896 0.37888-7.02464 0.8704-2.36544 0.49152-3.29728 8.6528-5.69344 9.03168-2.38592 0.36864-4.74112 2.69312-7.15776 2.94912-2.39616 0.24576-5.19168-1.60768-7.61856-1.4848-2.4064 0.12288-4.98688-3.54304-7.424-3.54304m99.31776 30.6176c2.10944-1.25952 1.18784-7.4752 3.24608-8.8064 2.06848-1.3312 2.73408-4.54656 4.74112-5.94944 2.01728-1.41312 3.76832-2.90816 5.72416-4.39296 1.95584-1.4848 8.8064 3.2768 10.71104 1.73056 1.90464-1.55648-1.37216-9.19552 0.4608-10.81344 1.8432-1.61792 7.97696 1.51552 9.75872-0.17408 1.78176-1.6896 3.29728-3.74784 5.0176-5.49888 1.72032-1.75104 5.26336-1.93536 6.912-3.7376 1.64864-1.81248 1.03424-5.74464 2.6112-7.61856 1.57696-1.87392 3.74784-3.34848 5.26336-5.2736 1.50528-1.93536-0.9728-6.84032 0.47104-8.82688 1.4336-1.98656 1.45408-4.79232 2.816-6.83008 1.36192-2.03776 2.9696-3.72736 4.2496-5.81632 1.29024-2.08896 9.41056-0.13312 10.61888-2.26304 1.20832-2.12992 1.10592-5.10976 2.23232-7.28064 1.1264-2.17088 1.10592-4.99712 2.1504-7.20896 1.04448-2.21184-0.94208-5.77536 0.02048-8.02816 0.96256-2.2528 0.64512-4.9152 1.52576-7.19872 0.88064-2.28352 5.57056-3.13344 6.36928-5.44768 0.79872-2.31424 1.77152-4.608 2.47808-6.95296 0.70656-2.34496 2.19136-4.52608 2.816-6.89152 0.62464-2.36544-2.65216-5.67296-2.11968-8.06912 0.53248-2.38592 0.52224-4.79232 0.96256-7.20896 0.44032-2.4064 3.36896-4.352 3.72736-6.77888 0.34816-2.41664-2.24256-5.16096-1.97632-7.60832 0.26624-2.42688 4.15744-4.49536 4.33152-6.94272 0.17408-2.43712 2.72384-4.83328 2.80576-7.29088 0.08192-2.44736 0.45056-5.00736 0.45056-7.46496s-6.90176-4.77184-6.98368-7.20896c-0.09216-2.4576 4.58752-5.12 4.41344-7.54688-0.17408-2.44736 1.50528-5.14048 1.23904-7.56736-0.26624-2.43712-5.23264-4.31104-5.5808-6.71744-0.3584-2.42688-3.80928-4.22912-4.2496-6.62528-0.44032-2.4064 6.17472-6.21568 5.65248-8.59136-0.53248-2.39616-1.792-4.68992-2.4064-7.04512-0.6144-2.36544-6.57408-3.20512-7.28064-5.53984-0.70656-2.34496-2.44736-4.1984-3.23584-6.5024-0.78848-2.31424 6.48192-7.53664 5.61152-9.80992-0.8704-2.28352-4.864-3.40992-5.81632-5.65248-0.96256-2.2528-1.83296-4.56704-2.8672-6.77888-1.04448-2.21184 0.768-5.9392-0.34816-8.09984-1.1264-2.17088-2.1504-4.57728-3.34848-6.7072-1.19808-2.12992-5.9392-2.28352-7.2192-4.36224-1.28-2.08896-3.95264-3.25632-5.31456-5.28384-1.35168-2.03776 1.44384-7.0144 0.02048-8.99072-1.4336-1.98656-6.43072-1.37216-7.92576-3.29728-1.50528-1.92512-3.88096-3.10272-5.44768-4.9664-1.56672-1.87392-0.4096-6.13376-2.048-7.94624-1.6384-1.81248-4.39296-2.64192-6.10304-4.39296-1.71008-1.75104-4.77184-2.10944-6.53312-3.79904-1.77152-1.6896-3.69664-3.1232-5.51936-4.74112-1.83296-1.61792-2.2016-4.93568-4.08576-6.48192-1.88416-1.54624-6.7072 0.70656-8.6528-0.768-1.9456-1.47456-0.4608-7.58784-2.46784-8.99072-1.9968-1.40288-2.6624-5.00736-4.7104-6.33856-2.048-1.32096-6.83008 1.60768-8.92928 0.3584-2.0992-1.24928-2.10944-6.2976-4.25984-7.46496-2.14016-1.16736-4.75136-1.73056-6.94272-2.816-2.18112-1.08544-7.72096 4.99712-9.95328 3.9936-2.22208-0.99328-3.30752-4.352-5.5808-5.26336-2.26304-0.91136-2.62144-6.89152-4.92544-7.72096-2.29376-0.82944-4.77184-1.51552-7.10656-2.2528-2.32448-0.73728-6.6048 5.16096-8.97024 4.51584-2.34496-0.64512-4.62848-1.04448-7.00416-1.59744-2.36544-0.55296-3.16416-8.50944-5.57056-8.98048-2.38592-0.4608-4.90496-1.15712-7.3216-1.52576-2.4064-0.36864-5.632 4.89472-8.06912 4.61824-2.41664-0.27648-4.95616 1.72032-7.39328 1.536-2.42688-0.18432-4.64896-2.46784-7.10656-2.56-2.43712-0.09216-4.82304 0.31744-7.28064 0.31744s-4.98688-4.28032-7.424-4.18816c-2.4576 0.09216-4.74112 3.35872-7.17824 3.54304-2.44736 0.18432-5.31456-3.6352-7.7312-3.35872-2.43712 0.27648-4.1984 5.72416-6.6048 6.0928-2.42688 0.36864-5.65248-3.87072-8.04864-3.40992-2.4064 0.4608-4.61824 2.21184-6.99392 2.7648-2.38592 0.55296-4.74112 1.44384-7.08608 2.0992-2.36544 0.64512-4.03456 3.61472-6.35904 4.352-2.33472 0.73728-3.7376 3.9424-6.03136 4.7616-2.304 0.82944-5.5808-1.14688-7.84384-0.23552-2.27328 0.91136-2.88768 5.43744-5.10976 6.44096-2.23232 1.00352-4.06528 2.39616-6.25664 3.4816-2.19136 1.08544-5.50912-0.29696-7.64928 0.8704-2.1504 1.16736-6.64576-1.80224-8.74496-0.55296-2.0992 1.24928-3.8912 3.14368-5.94944 4.47488-2.048 1.3312-1.71008 6.1952-3.70688 7.59808-1.9968 1.40288-4.2496 2.33472-6.1952 3.80928s-3.7888 2.9696-5.6832 4.51584c-1.88416 1.54624-7.31136-0.99328-9.13408 0.62464-1.83296 1.61792 2.18112 9.55392 0.4096 11.24352-1.77152 1.6896-10.05568-3.23584-11.75552-1.4848-1.69984 1.75104 1.14688 7.84384-0.49152 9.65632-1.6384 1.81248-6.61504 0.73728-8.18176 2.60096-1.56672 1.87392-0.29696 6.07232-1.792 8.00768-1.49504 1.92512-1.09568 5.18144-2.51904 7.168-1.42336 1.97632-1.91488 4.44416-3.26656 6.47168s-2.07872 4.25984-3.35872 6.3488c-1.28 2.07872-6.94272 1.4848-8.1408 3.61472-1.19808 2.12992-1.15712 4.90496-2.27328 7.07584-1.11616 2.17088-1.8432 4.47488-2.88768 6.68672-1.03424 2.2016-2.48832 4.17792-3.45088 6.43072-0.95232 2.24256-1.41312 4.63872-2.29376 6.92224-0.8704 2.27328 1.55648 5.632 0.768 7.94624-0.78848 2.304-9.61536 2.01728-10.31168 4.36224-0.69632 2.33472 2.7648 5.89824 2.1504 8.27392-0.6144 2.3552-0.43008 4.87424-0.95232 7.2704-0.52224 2.37568-0.47104 4.8128-0.91136 7.2192-0.44032 2.39616-1.69984 4.608-2.05824 7.03488-0.34816 2.41664-1.78176 4.66944-2.048 7.1168-0.26624 2.41664 4.58752 5.21216 4.41344 7.65952-0.17408 2.42688-9.8304 4.352-9.92256 6.8096-0.09216 2.43712 3.54304 5.04832 3.54304 7.50592 0 2.49856 1.30048 4.97664 1.39264 7.45472 0.09216 2.49856-3.64544 5.25312-3.47136 7.7312 0.18432 2.48832 3.6864 4.74112 3.95264 7.20896 0.27648 2.48832 2.64192 4.6592 3.00032 7.1168 0.36864 2.46784 3.61472 4.33152 4.06528 6.76864 0.4608 2.4576-8.71424 6.90176-8.17152 9.32864 0.55296 2.43712 2.26304 4.7616 2.89792 7.15776 0.64512 2.41664 0.62464 5.18144 1.36192 7.55712 0.72704 2.38592 8.98048 2.34496 9.79968 4.68992 0.8192 2.3552 3.50208 3.85024 4.41344 6.17472 0.91136 2.32448-0.1024 5.2736 0.88064 7.54688 0.99328 2.28352-1.3824 6.06208-0.3072 8.30464 1.0752 2.24256-0.11264 5.72416 1.04448 7.91552 1.16736 2.2016 3.34848 3.96288 4.58752 6.11328 1.24928 2.16064 1.66912 4.93568 2.99008 7.04512 1.3312 2.10944 2.16064 4.7104 3.56352 6.76864 1.40288 2.05824 4.78208 2.84672 6.26688 4.84352 1.4848 2.00704 6.58432 1.19808 8.1408 3.14368 1.55648 1.9456-1.96608 8.13056-0.34816 10.01472 1.62816 1.88416 4.47488 2.83648 6.16448 4.6592 1.69984 1.82272 7.71072-0.5632 9.472 1.19808 1.76128 1.76128 0.38912 6.71744 2.22208 8.40704 1.83296 1.6896 3.64544 3.45088 5.53984 5.0688 1.8944 1.61792 6.4-0.01024 8.35584 1.536 1.95584 1.54624 0.03072 8.192 2.03776 9.66656 2.00704 1.46432 7.75168-2.37568 9.82016-0.99328 2.06848 1.39264 3.74784 3.1744 5.86752 4.48512 2.11968 1.31072 3.16416 4.67968 5.3248 5.90848-2.304 0.93184-3.47136 4.87424-5.74464 5.86752-2.27328 0.99328-6.8096-3.0208-9.05216-1.95584-2.24256 1.06496-4.88448 1.4848-7.09632 2.6112-2.21184 1.1264-4.39296 2.48832-6.57408 3.67616-2.18112 1.18784-2.79552 5.2224-4.94592 6.47168-2.1504 1.24928-3.24608 4.16768-5.34528 5.4784-2.10944 1.31072-2.64192 4.89472-4.7104 6.25664s-9.1136-4.61824-11.15136-3.19488c-2.02752 1.42336-0.75776 7.48544-2.74432 8.96-1.98656 1.47456-7.86432-2.048-9.80992-0.512-1.9456 1.536-0.23552 7.65952-2.14016 9.24672-1.90464 1.5872-1.96608 5.21216-3.82976 6.8608-1.86368 1.6384-9.60512-3.19488-11.4176-1.50528-1.81248 1.6896 1.86368 9.14432 0.09216 10.88512-1.77152 1.7408-4.62848 2.304-6.3488 4.096-1.72032 1.792-1.50528 5.2736-3.1744 7.10656-1.66912 1.83296-5.888 1.3312-7.50592 3.21536-1.61792 1.88416-1.7408 4.95616-3.30752 6.88128-1.56672 1.92512-3.11296 3.77856-4.62848 5.74464-1.50528 1.96608-2.00704 4.59776-3.46112 6.6048-1.45408 2.00704-1.5872 4.80256-2.99008 6.85056-1.40288 2.048-4.44416 2.8672-5.7856 4.95616-1.34144 2.07872-5.9904 2.06848-7.28064 4.18816-1.29024 2.11968-1.93536 4.63872-3.16416 6.78912-1.2288 2.1504-6.32832 2.2528-7.49568 4.43392-1.16736 2.18112 0.80896 6.0928-0.29696 8.31488-1.10592 2.21184-3.9424 3.66592-4.98688 5.91872-1.04448 2.24256-0.22528 5.39648-1.20832 7.66976-0.98304 2.27328 3.35872 6.7072 2.43712 9.0112-0.9216 2.29376-6.72768 2.6624-7.58784 4.98688-0.86016 2.32448-0.8192 4.9664-1.60768 7.3216-0.78848 2.34496 1.77152 5.72416 1.04448 8.0896-0.72704 2.36544-7.7824 2.87744-8.448 5.26336-0.6656 2.38592 5.95968 6.66624 5.36576 9.08288-0.59392 2.4064-10.53696 2.63168-11.06944 5.05856-0.53248 2.41664 3.7376 5.89824 3.26656 8.3456-0.4608 2.42688-3.09248 4.51584-3.49184 6.9632-0.39936 2.43712 3.4304 5.5296 3.09248 7.9872-0.32768 2.4576-1.42336 4.78208-1.6896 7.24992-0.26624 2.4576-0.21504 4.92544-0.4096 7.41376-0.19456 2.46784 1.55648 5.00736 1.42336 7.48544-0.13312 2.47808-1.25952 4.84352-1.32096 7.33184-0.06144 2.47808-4.79232 4.90496-4.79232 7.39328 0 2.38592 4.4544 4.23936 5.02784 6.44096 0.59392 2.28352 2.54976 3.31776 3.67616 5.31456 1.14688 2.03776-1.06496 6.27712 0.55296 7.936 1.61792 1.65888 3.86048 3.01056 5.85728 4.1984 1.97632 1.1776 5.0176-0.33792 7.28064 0.28672 2.19136 0.60416 4.02432 2.48832 6.41024 2.48832 2.38592 0 4.92544 0.70656 7.12704 0.1024 2.26304-0.62464 6.21568 1.03424 8.20224-0.1536 1.9968-1.18784-0.02048-7.8336 1.59744-9.49248 1.61792-1.65888 1.8432-3.44064 2.99008-5.4784 1.1264-1.9968 2.6624-3.08224 3.25632-5.36576 0.57344-2.2016-1.40288-3.90144-1.40288-6.28736 0-2.4576 2.97984-4.95616 3.06176-7.38304 0.08192-2.44736 3.77856-4.7104 3.9424-7.13728 0.16384-2.44736-5.3248-5.38624-5.07904-7.81312 0.24576-2.43712 1.024-4.92544 1.34144-7.34208 0.32768-2.42688-0.64512-5.18144-0.23552-7.5776 0.4096-2.41664 1.20832-4.90496 1.6896-7.29088 0.48128-2.39616 7.76192-3.328 8.32512-5.69344 0.5632-2.37568-1.3312-5.34528-0.68608-7.69024 0.64512-2.3552 5.34528-3.46112 6.06208-5.7856 0.72704-2.33472 1.30048-4.56704 2.0992-6.87104 0.79872-2.304-1.29024-5.59104-0.41984-7.86432 0.88064-2.28352 5.62176-2.87744 6.57408-5.12 0.95232-2.2528-6.48192-8.21248-5.44768-10.41408 1.03424-2.21184 9.17504-0.9728 10.28096-3.14368 1.10592-2.18112-0.75776-5.84704 0.41984-7.97696 1.1776-2.14016-2.10944-6.92224-0.8704-9.0112 1.24928-2.0992 2.74432-4.22912 4.05504-6.28736 1.32096-2.05824 8.0384-0.57344 9.4208-2.58048 1.39264-2.00704-0.75776-6.56384 0.69632-8.52992 1.45408-1.96608 2.14016-4.64896 3.65568-6.56384s2.2016-4.7104 3.77856-6.56384c1.5872-1.85344 9.53344 1.85344 11.17184 0.0512 1.64864-1.80224 3.42016-3.31776 5.12-5.0688 1.69984-1.75104 2.84672-3.90144 4.61824-5.5808 1.76128-1.6896 4.57728-2.05824 6.38976-3.6864 1.82272-1.62816-1.01376-8.58112 0.86016-10.14784 1.87392-1.56672 4.37248-2.4576 6.2976-3.96288 1.92512-1.49504 3.57376-3.47136 5.55008-4.90496 1.97632-1.4336 4.9152-1.57696 6.93248-2.93888 2.01728-1.36192 3.072-4.33152 5.14048-5.632 2.06848-1.29024 6.912 2.048 9.03168 0.8192 2.10944-1.21856 2.64192-5.2224 4.79232-6.36928 2.1504-1.14688 2.7648-5.49888 4.95616-6.56384 2.19136-1.06496 6.79936 2.92864 9.02144 1.93536 2.22208-0.99328 5.53984 0.83968 7.80288-0.08192 2.2528-0.91136 2.8672-5.89824 5.16096-6.73792 2.28352-0.82944 4.10624-3.14368 6.42048-3.8912 2.31424-0.75776 6.22592 3.85024 8.58112 3.1744 2.34496-0.67584 4.01408-3.49184 6.37952-4.07552 2.36544-0.58368 4.5568-1.69984 6.95296-2.21184 2.37568-0.50176 4.9152 0.0512 7.3216-0.36864 2.39616-0.41984 4.54656-2.10944 6.97344-2.44736 2.4064-0.33792 4.23936-6.05184 6.67648-6.30784 2.41664-0.256 5.34528 4.49536 7.79264 4.32128 2.42688-0.16384 4.9152 1.44384 7.3728 1.35168 2.43712-0.08192 4.80256-2.54976 7.26016-2.54976 2.47808 0 5.07904-3.44064 7.53664-3.34848 2.47808 0.08192 4.4544 9.07264 6.912 9.24672 2.46784 0.17408 5.25312-4.37248 7.70048-4.11648 2.4576 0.256 5.15072-1.18784 7.58784-0.84992 2.44736 0.34816 5.25312-1.024 7.66976-0.59392 2.43712 0.43008 3.30752 8.68352 5.71392 9.19552 2.41664 0.52224 6.00064-4.27008 8.38656-3.66592 2.39616 0.60416 3.5328 5.64224 5.89824 6.32832 2.37568 0.68608 6.94272-5.72416 9.27744-4.94592 2.34496 0.768 3.11296 6.20544 5.41696 7.05536 2.31424 0.84992 6.74816-3.57376 9.03168-2.64192 2.28352 0.93184 2.59072 6.63552 4.83328 7.64928 2.2528 1.01376 5.77536-0.60416 7.9872 0.49152 2.21184 1.09568 4.49536 2.22208 6.66624 3.39968 2.17088 1.16736 1.6896 7.04512 3.80928 8.2944 2.12992 1.24928 6.67648-1.52576 8.76544-0.2048 2.07872 1.32096 2.00704 5.90848 4.0448 7.30112s3.71712 3.14368 5.70368 4.608c1.98656 1.46432 7.91552-2.2016 9.84064-0.67584 1.93536 1.52576 0.52224 7.2192 2.39616 8.81664 1.88416 1.59744 1.5872 5.50912 3.40992 7.168 1.82272 1.65888 4.57728 2.14016 6.3488 3.86048 1.76128 1.72032 7.76192-0.75776 9.472 1.01376 1.69984 1.78176 1.65888 5.2736 3.29728 7.1168 1.6384 1.83296 0.256 6.23616 1.8432 8.13056 1.57696 1.88416 3.20512 3.60448 4.72064 5.55008 1.51552 1.9456 3.05152 3.74784 4.49536 5.74464 1.44384 1.98656 6.33856 1.54624 7.72096 3.584 1.3824 2.03776 4.12672 3.2768 5.43744 5.36576 1.31072 2.08896-0.12288 5.888 1.11616 8.01792 1.23904 2.12992 4.10624 3.3792 5.2736 5.55008 1.16736 2.17088 4.62848 3.2768 5.72416 5.48864 1.08544 2.2016-4.93568 7.79264-3.92192 10.0352 1.01376 2.24256 9.20576 1.41312 10.1376 3.6864 0.93184 2.27328-4.74112 7.168-3.88096 9.48224 0.86016 2.304 6.69696 2.85696 7.48544 5.19168 0.77824 2.33472-1.23904 5.59104-0.54272 7.95648 0.69632 2.3552-1.28 5.40672-0.6656 7.80288 0.6144 2.37568 2.7648 4.32128 3.30752 6.72768 0.53248 2.39616 5.45792 3.92192 5.90848 6.3488 0.45056 2.41664 0.53248 4.99712 0.91136 7.44448 0.36864 2.42688-0.95232 5.16096-0.65536 7.61856 0.28672 2.43712 4.10624 4.61824 4.31104 7.07584 0.2048 2.44736-5.60128 5.376-5.46816 7.85408 0.12288 2.4576 4.78208 5.07904 4.82304 7.55712-0.37888 2.3552-7.14752 4.82304-6.912 7.08608 0.23552 2.34496 7.02464 3.19488 7.84384 5.34528 0.82944 2.18112-0.08192 4.7616 1.28 6.63552s1.54624 4.94592 3.35872 6.42048c1.78176 1.45408 4.1984 2.4064 6.33856 3.36896 2.07872 0.93184 3.79904 5.7856 6.15424 6.16448 1.3312 0.21504 3.44064-0.67584 4.79232-0.6656 2.38592 0 3.56352-8.16128 5.76512-8.76544 2.26304-0.62464 4.01408-0.01024 6.00064-1.18784 1.9968-1.18784 2.29376-3.05152 3.92192-4.72064 1.61792-1.65888 6.89152-0.08192 8.0384-2.11968 1.1264-1.9968-1.06496-5.21216-0.47104-7.48544 0.57344-2.2016 5.79584-3.92192 5.79584-6.2976 0-2.46784-0.57344-4.98688-0.64512-7.43424-0.07168-2.46784-4.92544-4.73088-5.05856-7.17824-0.13312-2.46784 6.90176-5.4272 6.7072-7.87456-0.19456-2.4576-9.18528-4.08576-9.44128-6.53312-0.26624-2.44736 7.00416-5.79584 6.67648-8.22272-0.32768-2.44736-6.79936-3.97312-7.18848-6.4-0.39936-2.43712-2.53952-4.4544-2.99008-6.8608-0.4608-2.41664 6.47168-6.31808 5.94944-8.72448-0.52224-2.4064-8.3456-3.09248-8.92928-5.4784-0.59392-2.38592 6.43072-6.74816 5.7856-9.1136-0.65536-2.37568-1.46432-4.79232-2.18112-7.13728-0.7168-2.3552-4.79232-3.67616-5.57056-6.00064-0.77824-2.33472-0.45056-5.0688-1.30048-7.3728-0.83968-2.31424-0.59392-5.08928-1.49504-7.36256-0.91136-2.28352-3.60448-3.87072-4.56704-6.13376-0.9728-2.26304-5.00736-3.1232-6.0416-5.35552-1.03424-2.23232 2.42688-6.59456 1.3312-8.79616-1.09568-2.2016-6.4512-2.21184-7.59808-4.39296-1.14688-2.17088-3.93216-3.33824-5.14048-5.4784-1.20832-2.14016-0.17408-5.48864-1.44384-7.58784-1.26976-2.10944-0.67584-5.33504-1.9968-7.40352-1.32096-2.06848-2.38592-4.33152-3.75808-6.36928-1.3824-2.03776-1.78176-4.79232-3.21536-6.78912s-5.96992-1.69984-7.45472-3.65568c-1.4848-1.95584 0.07168-6.28736-1.47456-8.20224-1.536-1.91488-7.58784-0.07168-9.17504-1.93536-1.5872-1.87392-0.19456-6.28736-1.83296-8.11008-1.6384-1.83296-5.2224-1.81248-6.912-3.59424-1.6896-1.78176-2.24256-4.608-3.98336-6.33856-1.7408-1.7408-4.36224-2.49856-6.144-4.18816-1.78176-1.6896-0.29696-6.94272-2.12992-8.58112-1.83296-1.6384-2.39616-4.87424-4.28032-6.46144-1.87392-1.5872-7.14752 0.86016-9.0624-0.67584-1.91488-1.536-2.27328-5.10976-4.22912-6.59456-1.95584-1.4848-6.52288 0.60416-8.52992-0.82944-1.9968-1.42336-1.91488-5.8368-3.95264-7.20896s-2.53952-5.23264-4.61824-6.5536c-2.07872-1.31072-6.85056 1.67936-8.96 0.43008-2.10944-1.24928-2.65216-5.29408-4.79232-6.48192-2.14016-1.19808-5.96992 0.69632-8.15104-0.44032-2.18112-1.13664-5.74464 0.65536-7.95648-0.41984-2.21184-1.0752-4.25984-2.21184-6.5024-3.21536-2.24256-1.01376-1.96608-7.74144-4.23936-8.68352-2.26304-0.94208-6.92224 4.13696-9.216 3.24608" fill="#FFA60B" p-id="3583"></path></svg>