<?xml version="1.0" standalone="no"?><!DOCTYPE svg PUBLIC "-//W3C//DTD SVG 1.1//EN" "http://www.w3.org/Graphics/SVG/1.1/DTD/svg11.dtd"><svg t="1600217769225" class="icon" viewBox="0 0 1024 1024" version="1.1" xmlns="http://www.w3.org/2000/svg" p-id="3298" xmlns:xlink="http://www.w3.org/1999/xlink" width="128" height="128"><defs><style type="text/css"></style></defs><path d="M770.1504 707.36896c-3.6352 0.55296-4.4032-0.09216-8.07936-0.09216-3.67616 0-3.67616-0.68608-7.34208-0.68608-3.67616 0-3.67616-1.98656-7.34208-1.98656s-3.66592 1.37216-7.34208 1.37216c-3.66592 0-3.66592-10.35264-7.34208-10.35264-3.64544 0-3.64544 0.77824-7.29088 0.77824s-3.64544 12.81024-7.30112 12.81024-3.65568-6.47168-7.30112-6.47168c-3.65568 0-3.65568-5.57056-7.31136-5.57056-3.66592 0-3.66592 1.78176-7.3216 1.78176-3.66592 0-3.66592 6.15424-7.33184 6.15424-3.67616 0-3.67616-4.77184-7.34208-4.77184-3.67616 0-3.67616 8.57088-7.35232 8.57088s-3.67616-11.90912-7.35232-11.90912-3.67616 7.55712-7.34208 7.55712-3.66592 2.2016-7.33184 2.2016-3.66592 1.80224-7.33184 1.80224-3.66592-7.424-7.3216-7.424-3.65568 4.15744-7.3216 4.15744c-3.65568 0-3.65568-1.67936-7.31136-1.67936s-3.65568 1.3824-7.31136 1.3824-3.65568-5.0176-7.31136-5.0176-3.65568-1.98656-7.31136-1.98656-3.65568-1.9968-7.31136-1.9968-3.65568 11.264-7.3216 11.264-3.66592-11.52-7.3216-11.52c-3.66592 0-3.66592 8.6016-7.33184 8.6016s-3.66592 0.8704-7.34208 0.8704-3.67616-8.22272-7.35232-8.22272c-3.6864 0-3.6864 7.0144-7.36256 7.0144-3.6864 0-3.6864 4.78208-7.3728 4.78208-3.67616 0-3.67616-9.23648-7.36256-9.23648-3.67616 0-3.67616-2.89792-7.35232-2.89792s-3.67616 5.69344-7.34208 5.69344-3.66592 4.00384-7.34208 4.00384c-3.66592 0-3.66592-1.42336-7.34208-1.42336-3.66592 0-3.66592 3.23584-7.34208 3.23584s-3.67616-5.4784-7.34208-5.4784c-3.67616 0-3.67616-1.29024-7.35232-1.29024-3.6864 0-3.6864-5.5808-7.36256-5.5808-3.6864 0-3.6864 2.90816-7.38304 2.90816-3.6864 0-3.6864 7.61856-7.3728 7.61856-3.67616 0-3.67616-9.8304-7.36256-9.8304-3.67616 0-3.67616 9.22624-7.35232 9.22624s-3.67616-1.03424-7.35232-1.03424c-3.6864 0-3.6864-2.12992-7.36256-2.12992-3.6864 0-3.6864 1.05472-7.3728 1.05472s-3.6864-2.304-7.38304-2.304c-3.6864 0-3.6864 7.45472-7.3728 7.45472s-3.6864 0.69632-7.36256 0.69632c-3.6864 0-3.6864-5.62176-7.3728-5.62176-3.65568 0-3.65568-2.47808-7.3216-2.47808s-3.66592-2.06848-7.3216-2.06848c-3.66592 0-3.66592 8.2432-7.34208 8.2432-3.6864 0-3.6864-6.57408-7.3728-6.57408-3.69664 0-3.69664-1.72032-7.39328-1.72032-3.6864 0-3.6864 9.0624-7.3728 9.0624-3.67616 0-3.67616-3.71712-7.36256-3.71712s-3.6864-8.27392-7.3728-8.27392c-3.70688 0-3.70688 4.41344-7.40352 4.41344s-3.69664 0.65536-7.39328 0.65536-3.69664-3.4816-7.39328-3.4816c-3.70688 0-3.70688 3.92192-7.41376 3.92192-3.69664 0-3.69664 1.6896-7.40352 1.6896-3.69664 0-3.69664 4.22912-7.39328 4.22912s-3.69664-6.2976-7.38304-6.2976c-3.70688 0-3.70688 1.98656-7.424 1.98656s-3.71712 1.47456-7.43424 1.47456c-3.72736 0-3.72736-7.51616-7.45472-7.51616s-3.72736 5.61152-7.45472 5.61152c-2.52928-0.01024-5.29408 2.77504-7.77216 2.57024-2.5088-0.2048-5.09952-1.50528-7.55712-1.90464-2.48832-0.39936-5.46816 0.512-7.8848-0.08192-2.43712-0.59392-4.66944-2.78528-7.03488-3.56352-2.38592-0.78848-3.29728-5.55008-5.59104-6.51264-2.31424-0.9728-7.24992 3.46112-9.46176 2.31424-2.23232-1.14688-2.75456-5.69344-4.87424-7.00416-2.12992-1.32096-1.85344-6.00064-3.87072-7.4752-2.01728-1.4848-5.87776-0.43008-7.76192-2.05824-1.8944-1.62816 0.49152-7.49568-1.26976-9.27744a83.99872 83.99872 0 0 1-4.80256-5.12c-1.61792-1.90464-7.3728-0.256-8.83712-2.28352-1.46432-2.02752-7.80288-1.04448-9.10336-3.18464-1.30048-2.12992 4.10624-8.13056 2.9696-10.36288-1.1264-2.22208-6.9632-2.33472-7.91552-4.6592-0.94208-2.304 3.50208-6.59456 2.73408-8.99072-0.75776-2.36544 0.2048-4.94592-0.36864-7.39328-0.5632-2.41664-10.16832-3.13344-10.5472-5.62176-0.37888-2.4576 9.5744-6.0928 9.39008-8.6016-0.18432-2.47808-3.39968-4.57728-3.38944-7.10656 0-0.13312-4.39296-0.27648-4.39296-0.4096 0-3.6864 7.9872-3.6864 7.9872-7.3728 0-3.69664-7.3216-3.69664-7.3216-7.38304 0-3.69664 4.27008-3.69664 4.27008-7.38304s-6.2976-3.6864-6.2976-7.3728-0.03072-3.6864-0.03072-7.3728 0.36864-3.6864 0.36864-7.36256 1.59744-3.67616 1.59744-7.36256c0-3.67616-0.6656-3.67616-0.6656-7.36256 0-3.67616 8.74496-3.67616 8.74496-7.36256s-2.54976-3.6864-2.54976-7.36256c0-3.6864 0.74752-3.6864 0.74752-7.3728 0-3.69664-7.43424-3.69664-7.43424-7.38304 0-3.69664-1.54624-3.69664-1.54624-7.40352 0-3.69664 0.14336-3.69664 0.14336-7.38304s6.78912-3.6864 6.78912-7.38304c0-3.6864-3.23584-3.6864-3.23584-7.3728s-3.6352-3.6864-3.6352-7.3728 0.53248-3.6864 0.53248-7.38304 5.23264-3.69664 5.23264-7.39328-2.73408-3.69664-2.73408-7.40352c0-3.69664-0.9728-3.69664-0.9728-7.39328s7.5776-3.69664 7.5776-7.38304c0-3.69664-9.61536-3.69664-9.61536-7.39328 0-3.66592 10.06592-3.66592 10.06592-7.33184 0-3.67616-8.98048-3.67616-8.98048-7.34208 0-3.67616 9.87136-3.67616 9.87136-7.36256 0-3.69664-12.84096-3.69664-12.84096-7.39328 0-3.70688 5.96992-3.70688 5.96992-7.41376 0-3.69664 0.32768-3.69664 0.32768-7.38304s2.79552-3.6864 2.79552-7.38304-9.32864-3.69664-9.32864-7.39328c0-3.71712 2.4576-3.71712 2.4576-7.424s1.81248-3.70688 1.81248-7.40352c0-3.70688-2.73408-3.70688-2.73408-7.40352 0-3.71712 1.47456-3.71712 1.47456-7.43424 0-3.70688 0.34816-3.70688 0.34816-7.424 0-3.70688 1.9456-3.70688 1.9456-7.41376 0-3.69664-2.24256-3.69664-2.24256-7.40352 0-3.71712 10.35264-3.71712 10.35264-7.44448s-6.9632-3.72736-6.9632-7.45472c0-3.7376 3.25632-3.7376 3.25632-7.4752s-6.2976-3.72736-6.30784-7.46496c-0.02048-2.53952-2.29376-5.50912-2.0992-7.99744 0.2048-2.52928 7.92576-4.22912 8.35584-6.69696 0.44032-2.49856-0.47104-5.16096 0.18432-7.56736 0.6656-2.44736-4.10624-6.87104-3.2256-9.216 0.89088-2.36544 0.5632-5.87776 1.66912-8.13056 1.10592-2.27328 10.6496-0.17408 11.95008-2.32448 1.31072-2.16064 5.26336-2.07872 6.76864-4.10624 1.50528-2.02752-1.40288-7.29088 0.27648-9.1648 1.67936-1.87392 4.9152-2.06848 6.7584-3.7888 1.8432-1.71008 3.2768-3.6352 5.2736-5.1712 1.98656-1.536 1.19808-7.18848 3.328-8.54016 2.11968-1.34144 6.62528 1.25952 8.86784 0.11264 2.23232-1.13664 2.00704-8.192 4.36224-9.13408 2.32448-0.93184 6.58432 2.83648 9.0112 2.12992 2.39616-0.70656 5.9904 4.36224 8.47872 3.88096 2.4576-0.48128 4.2496-2.816 6.76864-3.072 2.48832-0.256 4.67968-1.98656 7.2192-2.00704 0.13312 0 0.24576-2.048 0.37888-2.048 3.66592 0 3.66592 0.22528 7.34208 0.22528s3.67616-3.36896 7.34208-3.36896c3.67616 0 3.67616 7.81312 7.34208 7.81312s3.66592-4.99712 7.34208-4.99712c3.66592 0 3.66592-6.32832 7.33184-6.32832s3.66592 9.80992 7.33184 9.80992c3.6352 0 3.6352-4.05504 7.28064-4.05504s3.64544 1.81248 7.28064 1.81248c3.64544 0 3.64544 0.77824 7.29088 0.77824s3.64544-1.03424 7.30112-1.03424 3.65568 0.99328 7.30112 0.99328c3.65568 0 3.65568 2.16064 7.31136 2.16064 3.66592 0 3.66592-9.68704 7.3216-9.68704 3.66592 0 3.66592 11.008 7.33184 11.008 3.67616 0 3.67616-4.90496 7.35232-4.90496s3.67616 6.8096 7.35232 6.8096c3.66592 0 3.66592-3.59424 7.34208-3.59424 3.66592 0 3.66592 2.3552 7.33184 2.3552s3.66592-10.97728 7.3216-10.97728 3.65568 9.10336 7.3216 9.10336c3.65568 0 3.65568 0.52224 7.31136 0.52224s3.65568-10.00448 7.31136-10.00448 3.65568 0.1024 7.31136 0.1024 3.65568 4.13696 7.30112 4.13696c3.65568 0 3.65568 1.56672 7.31136 1.56672s3.65568-4.43392 7.31136-4.43392 3.65568 4.77184 7.31136 4.77184 3.65568 2.77504 7.3216 2.77504 3.66592 1.10592 7.3216 1.10592c3.66592 0 3.66592-4.23936 7.33184-4.23936 3.67616 0 3.67616-2.58048 7.34208-2.58048 3.67616 0 3.67616-0.0512 7.36256-0.0512 3.67616 0 3.67616-2.89792 7.36256-2.89792 3.67616 0 3.67616 7.68 7.35232 7.68s3.67616-4.84352 7.34208-4.84352 3.66592-2.39616 7.33184-2.39616 3.66592 8.94976 7.33184 8.94976 3.66592 0.59392 7.33184 0.59392 3.66592-2.68288 7.33184-2.68288 3.66592-0.24576 7.34208-0.24576 3.67616 1.83296 7.35232 1.83296 3.67616 2.68288 7.36256 2.68288 3.6864-6.89152 7.3728-6.89152c3.67616 0 3.67616-4.90496 7.36256-4.90496 3.67616 0 3.67616 1.024 7.35232 1.024s3.67616 9.53344 7.35232 9.53344 3.67616-2.01728 7.35232-2.01728 3.67616-0.17408 7.35232-0.17408c3.6864 0 3.6864-3.86048 7.36256-3.86048 3.6864 0 3.6864 6.49216 7.3728 6.49216s3.6864 0.68608 7.36256 0.68608 3.67616-7.07584 7.36256-7.07584 3.6864-3.38944 7.36256-3.38944c3.65568 0 3.65568 7.76192 7.31136 7.76192s3.65568-1.024 7.3216-1.024 3.66592-0.26624 7.33184-0.26624c3.6864 0 3.6864-6.49216 7.36256-6.49216 3.69664 0 3.69664 1.47456 7.38304 1.47456 3.67616 0 3.67616 5.94944 7.36256 5.94944 3.67616 0 3.67616 1.00352 7.35232 1.00352 3.6864 0 3.6864-8.62208 7.36256-8.62208 3.69664 0 3.69664-0.41984 7.40352-0.41984 3.6864 0 3.6864 7.5776 7.38304 7.5776 3.6864 0 3.6864-6.22592 7.38304-6.22592 3.70688 0 3.70688 6.43072 7.40352 6.43072s3.69664-2.816 7.39328-2.816 3.69664 7.0656 7.39328 7.0656c3.6864 0 3.6864-5.90848 7.3728-5.90848 3.70688 0 3.70688-2.73408 7.41376-2.73408 3.71712 0 3.71712-1.95584 7.424-1.95584 3.72736 0 3.72736 9.97376 7.44448 9.97376 3.72736 0 3.71712-2.39616 7.44448-2.38592 2.5088 0.01024 5.41696-8.79616 7.87456-8.59136 2.49856 0.2048 3.87072 9.79968 6.30784 10.1888 2.46784 0.39936 4.352 1.77152 6.74816 2.3552 2.42688 0.59392 4.9152-0.34816 7.2704 0.43008 2.36544 0.77824 7.99744-6.98368 10.28096-6.03136 2.29376 0.96256 1.49504 8.93952 3.69664 10.06592 2.21184 1.13664 8.6016-4.77184 10.71104-3.46112 2.11968 1.31072-2.21184 12.26752-0.2048 13.73184 2.00704 1.46432 5.9392 0.08192 7.82336 1.69984 1.88416 1.61792 0.89088 5.92896 2.64192 7.69024 1.75104 1.76128 8.192-1.01376 9.79968 0.88064 1.60768 1.88416 1.5872 5.07904 3.05152 7.09632 1.45408 2.00704 7.08608 1.40288 8.38656 3.52256 1.29024 2.10944 3.11296 4.34176 4.2496 6.56384 1.1264 2.2016-4.6592 7.69024-3.71712 9.984 0.94208 2.28352 10.7008 1.50528 11.4688 3.87072 0.75776 2.3552-8.6016 7.66976-8.01792 10.09664 0.57344 2.39616-1.41312 4.9152-1.024 7.38304 0.37888 2.43712 13.08672 3.45088 13.28128 5.94944 0.19456 2.4576-12.66688 5.41696-12.66688 7.92576 0 3.71712 0.2048 3.71712 0.2048 7.44448 0 3.71712 6.66624 3.71712 6.66624 7.43424 0 3.70688-4.57728 3.70688-4.57728 7.424 0 3.70688 8.76544 3.70688 8.76544 7.41376s-10.21952 3.70688-10.21952 7.41376 1.36192 3.70688 1.36192 7.41376 6.07232 3.70688 6.07232 7.41376 1.76128 3.70688 1.76128 7.424-1.66912 3.71712-1.66912 7.424c0 3.71712-4.16768 3.71712-4.16768 7.44448s9.32864 3.72736 9.32864 7.45472c0 3.71712-0.57344 3.71712-0.57344 7.44448 0 3.71712-5.5808 3.71712-5.5808 7.43424s-7.13728 3.71712-7.13728 7.43424 8.73472 3.71712 8.73472 7.43424 1.86368 3.71712 1.86368 7.43424c0 3.72736-8.25344 3.72736-8.25344 7.44448 0 3.72736 3.01056 3.72736 3.01056 7.45472s1.31072 3.72736 1.31072 7.44448 1.85344 3.71712 1.85344 7.44448c0 3.71712-4.94592 3.71712-4.94592 7.44448 0 3.69664 6.46144 3.69664 6.46144 7.39328s-6.51264 3.69664-6.51264 7.39328c0 3.70688 5.46816 3.70688 5.46816 7.41376 0 3.72736-7.79264 3.72736-7.79264 7.44448 0 3.7376 10.78272 3.7376 10.78272 7.46496 0 3.71712-1.1264 3.71712-1.1264 7.44448 0 3.71712-10.91584 3.71712-10.91584 7.43424 0 3.72736 11.83744 3.72736 11.83744 7.44448 0 3.7376-8.59136 3.7376-8.59136 7.4752 0 3.72736 9.00096 3.72736 9.00096 7.46496 0 3.72736-11.48928 3.72736-11.48928 7.46496 0 3.74784 12.11392 3.74784 12.11392 7.48544s-5.0176 3.7376-5.0176 7.4752-1.15712 3.7376-1.15712 7.46496-5.90848 3.72736-5.90848 7.45472c0 3.74784 0.7168 3.74784 0.7168 7.49568 0 3.75808 9.08288 3.75808 9.08288 7.50592 0 3.76832 0.45056 3.76832 0.45056 7.5264 0 3.76832-11.48928 3.75808-11.49952 7.5264-0.01024 2.5088 10.496 5.28384 10.2912 7.74144-0.2048 2.48832-9.03168 3.87072-9.4208 6.30784-0.39936 2.46784 9.27744 6.95296 8.704 9.34912-0.58368 2.42688-2.79552 4.75136-3.56352 7.09632-0.77824 2.36544-7.87456 2.42688-8.82688 4.7104a88.56576 88.56576 0 0 1-3.00032 6.57408c-1.13664 2.21184 1.23904 6.32832-0.0512 8.43776-1.30048 2.11968 0.37888 6.53312-1.0752 8.54016-1.46432 2.00704-1.93536 5.38624-3.54304 7.28064-1.60768 1.88416-13.3632-5.56032-15.11424-3.80928-1.75104 1.76128 0.8704 7.80288-1.01376 9.4208-1.88416 1.61792-5.19168 1.20832-7.19872 2.67264-1.9968 1.46432-1.57696 6.42048-3.6864 7.7312-2.0992 1.30048-6.51264-1.5872-8.71424-0.45056-2.2016 1.13664-5.64224-1.32096-7.936-0.34816-2.27328 0.96256 0 13.9776-2.36544 14.76608-2.34496 0.77824-5.09952 1.91488-7.5264 2.5088-2.39616 0.59392-5.74464-1.4848-8.21248-1.08544-2.43712 0.39936-5.69344-5.33504-8.192-5.13024-2.4576 0.2048-5.2736 2.63168-7.7824 2.65216-0.74752 2.97984 1.536 6.02112 0.9216 6.11328zM240.81408 273.14176c-2.42688 0-3.57376 0.01024-5.80608 0.6144-2.31424 0.62464-3.72736 0.48128-5.75488 1.64864-2.05824 1.18784-4.52608 0.6144-6.1952 2.28352-1.66912 1.66912-1.61792 3.82976-2.80576 5.888-1.1776 2.02752-11.75552 0.72704-12.36992 3.05152-0.59392 2.24256-0.37888 6.38976-0.37888 8.82688 0 0.13312 12.81024 0.26624 12.81024 0.39936 0 3.6864-6.47168 3.6864-6.47168 7.3728 0 3.69664-5.57056 3.69664-5.57056 7.38304 0 3.69664 1.78176 3.69664 1.78176 7.38304s6.15424 3.6864 6.15424 7.3728-4.77184 3.6864-4.77184 7.3728 8.57088 3.6864 8.57088 7.36256-11.90912 3.67616-11.90912 7.36256c0 3.67616 7.55712 3.67616 7.55712 7.36256 0 3.67616 2.2016 3.67616 2.2016 7.36256s1.80224 3.6864 1.80224 7.36256c0 3.6864-7.424 3.6864-7.424 7.3728 0 3.69664 4.15744 3.69664 4.15744 7.38304 0 3.69664-1.67936 3.69664-1.67936 7.40352 0 3.69664 1.3824 3.69664 1.3824 7.38304s-5.0176 3.6864-5.0176 7.38304c0 3.6864-1.98656 3.6864-1.98656 7.3728s-1.9968 3.6864-1.9968 7.3728 11.264 3.6864 11.264 7.38304-11.52 3.69664-11.52 7.39328 8.6016 3.69664 8.6016 7.40352c0 3.69664 0.8704 3.69664 0.8704 7.39328s-8.22272 3.69664-8.22272 7.38304c0 3.69664 7.0144 3.69664 7.0144 7.39328 0 3.66592 4.78208 3.66592 4.78208 7.33184 0 3.67616-9.23648 3.67616-9.23648 7.34208 0 3.67616-2.89792 3.67616-2.89792 7.36256 0 3.69664 5.69344 3.69664 5.69344 7.39328 0 3.70688 4.00384 3.70688 4.00384 7.41376 0 3.69664-1.42336 3.69664-1.42336 7.38304s3.23584 3.6864 3.23584 7.38304-5.4784 3.69664-5.4784 7.39328c0 3.71712-1.29024 3.71712-1.29024 7.424s-5.5808 3.70688-5.5808 7.40352c0 3.70688 2.90816 3.70688 2.90816 7.40352 0 3.71712 7.61856 3.71712 7.61856 7.43424 0 3.70688-9.8304 3.70688-9.8304 7.424 0 3.70688 9.22624 3.70688 9.22624 7.41376 0 3.69664-1.03424 3.69664-1.03424 7.40352 0 3.71712-2.12992 3.71712-2.12992 7.44448s1.05472 3.72736 1.05472 7.45472c0 3.7376-2.304 3.7376-2.304 7.4752s7.45472 3.7376 7.45472 7.4752c0 2.62144 0.82944 3.85024 1.31072 6.33856 0.50176 2.56-4.33152 5.87776-3.35872 8.23296 0.99328 2.39616 0.04096 5.82656 1.46432 7.94624 1.4336 2.14016 1.76128 5.7856 3.584 7.59808 1.81248 1.81248 8.88832-2.99008 11.02848-1.54624 2.12992 1.42336 1.024 8.25344 3.40992 9.24672 2.3552 0.9728 4.79232 3.50208 7.34208 4.01408 2.47808 0.49152 5.69344-8.25344 8.31488-8.25344 3.6864 0 3.6864 3.71712 7.3728 3.71712s3.6864 8.27392 7.3728 8.27392 3.6864-4.41344 7.36256-4.41344c3.6864 0 3.6864-0.65536 7.36256-0.65536s3.67616 3.4816 7.36256 3.4816c3.65568 0 3.65568-3.92192 7.31136-3.92192s3.65568-1.6896 7.3216-1.6896 3.66592-4.22912 7.3216-4.22912c3.66592 0 3.66592 6.2976 7.33184 6.2976 3.67616 0 3.67616-1.98656 7.34208-1.98656 3.67616 0 3.67616-1.47456 7.35232-1.47456 3.6864 0 3.6864 7.51616 7.36256 7.51616 3.6864 0 3.6864-5.61152 7.38304-5.61152 3.6864 0 3.6864-2.89792 7.3728-2.89792s3.6864 0.98304 7.36256 0.98304 3.67616-1.4848 7.36256-1.4848c3.67616 0 3.67616 1.49504 7.35232 1.49504s3.67616 4.1472 7.34208 4.1472 3.66592-6.10304 7.34208-6.10304c3.66592 0 3.66592 3.69664 7.34208 3.69664 3.66592 0 3.66592 4.03456 7.33184 4.03456s3.66592-3.2256 7.33184-3.2256 3.66592 5.91872 7.33184 5.91872 3.66592-0.08192 7.34208-0.08192c3.66592 0 3.66592-5.56032 7.34208-5.56032s3.67616-5.8368 7.35232-5.8368 3.67616 7.63904 7.35232 7.63904c3.6864 0 3.6864-5.2736 7.36256-5.2736 3.6864 0 3.6864 5.65248 7.3728 5.65248 3.69664 0 3.69664 1.61792 7.39328 1.61792s3.69664-9.28768 7.39328-9.28768c3.6864 0 3.6864 10.30144 7.38304 10.30144 3.6864 0 3.6864-3.14368 7.3728-3.14368s3.6864-4.39296 7.36256-4.39296 3.67616 7.9872 7.36256 7.9872c3.67616 0 3.67616-7.3216 7.36256-7.3216s3.6864 4.27008 7.36256 4.27008c3.6864 0 3.6864-6.2976 7.3728-6.2976s3.6864-0.03072 7.3728-0.03072c3.69664 0 3.69664 0.36864 7.39328 0.36864s3.69664 1.59744 7.40352 1.59744c3.69664 0 3.69664-0.6656 7.39328-0.6656 3.6864 0 3.6864 8.74496 7.38304 8.74496 3.6864 0 3.6864-2.54976 7.38304-2.54976 3.6864 0 3.6864 0.74752 7.38304 0.74752s3.69664-7.43424 7.38304-7.43424c3.69664 0 3.69664-1.54624 7.39328-1.54624 3.70688 0 3.70688 0.14336 7.40352 0.14336s3.69664 6.78912 7.39328 6.78912 3.69664-3.23584 7.39328-3.23584 3.69664-3.6352 7.39328-3.6352c3.66592 0 3.66592 0.53248 7.34208 0.53248s3.67616 5.23264 7.34208 5.23264c3.6864 0 3.6864-2.73408 7.36256-2.73408 3.69664 0 3.69664-0.9728 7.39328-0.9728 3.70688 0 3.70688 7.5776 7.41376 7.5776 3.69664 0 3.69664-9.61536 7.39328-9.61536 3.6864 0 3.6864 10.06592 7.38304 10.06592s3.69664-8.98048 7.39328-8.98048c3.71712 0 3.71712 9.87136 7.424 9.87136s3.70688-12.84096 7.41376-12.84096 3.70688 5.96992 7.41376 5.96992c3.71712 0 3.71712 0.32768 7.43424 0.32768 3.70688 0 3.70688 2.79552 7.424 2.79552 3.70688 0 3.70688-9.32864 7.41376-9.32864s3.70688 2.4576 7.40352 2.4576c3.72736 0 3.72736 1.81248 7.44448 1.81248 3.72736 0 3.72736-2.73408 7.45472-2.73408 3.7376 0 3.7376 1.47456 7.4752 1.47456s3.7376 0.34816 7.4752 0.34816c2.62144 0 4.97664 1.71008 7.46496 1.21856 2.56-0.50176 3.96288-3.2768 6.30784-4.2496 2.39616-0.99328 9.85088 6.69696 11.97056 5.2736 2.14016-1.4336 0.27648-8.86784 2.08896-10.68032 1.81248-1.81248 6.17472-2.00704 7.60832-4.1472 1.42336-2.12992-2.87744-7.39328-1.88416-9.7792 0.9728-2.3552-0.77824-4.72064-0.27648-7.2704 0.49152-2.47808 8.0896-4.00384 8.0896-6.62528h-1.47456c0-3.70688-5.91872-3.70688-5.91872-7.424 0-3.70688-1.6896-3.70688-1.6896-7.41376 0-3.69664 9.39008-3.69664 9.39008-7.40352 0-3.69664 3.328-3.69664 3.328-7.39328s-5.5808-3.69664-5.5808-7.39328 2.18112-3.69664 2.18112-7.39328-0.54272-3.69664-0.54272-7.39328-5.08928-3.69664-5.08928-7.40352 4.5056-3.70688 4.5056-7.41376-6.52288-3.70688-6.52288-7.424 4.95616-3.71712 4.95616-7.43424c0-3.70688 5.7856-3.70688 5.7856-7.424 0-3.70688-2.048-3.70688-2.048-7.41376s-1.60768-3.70688-1.60768-7.41376-2.03776-3.70688-2.03776-7.41376 0.22528-3.70688 0.22528-7.41376c0-3.71712-3.36896-3.71712-3.36896-7.424 0-3.71712 7.81312-3.71712 7.81312-7.43424s-4.99712-3.71712-4.99712-7.424-6.32832-3.70688-6.32832-7.424 9.80992-3.71712 9.80992-7.424c0-3.6864-4.05504-3.6864-4.05504-7.3728s1.81248-3.6864 1.81248-7.3728c0-3.69664 0.77824-3.69664 0.77824-7.39328 0-3.71712-1.03424-3.71712-1.03424-7.424 0-3.72736 0.99328-3.72736 0.99328-7.44448 0-3.70688 2.16064-3.70688 2.16064-7.424 0-3.70688-9.68704-3.70688-9.68704-7.41376 0-3.71712 11.008-3.71712 11.008-7.424 0-3.72736-4.90496-3.72736-4.90496-7.45472 0-3.71712 6.8096-3.71712 6.8096-7.44448 0-3.71712-3.59424-3.71712-3.59424-7.44448 0-3.7376 2.3552-3.7376 2.3552-7.46496s-10.97728-3.72736-10.97728-7.45472 9.10336-3.72736 9.10336-7.45472c0-3.71712 0.52224-3.71712 0.52224-7.43424 0-3.7376-10.00448-3.7376-10.00448-7.4752 0-3.74784 0.1024-3.74784 0.1024-7.48544 0-3.75808 4.13696-3.75808 4.13696-7.50592 0-3.75808 1.56672-3.75808 1.56672-7.50592 0-2.62144-4.608-4.31104-5.09952-6.79936-0.50176-2.56 3.40992-6.00064 2.43712-8.35584-0.99328-2.39616 0.07168-6.25664-1.35168-8.38656-1.4336-2.14016-2.67264-5.376-4.48512-7.19872-1.81248-1.81248-6.78912-0.45056-8.93952-1.88416-2.12992-1.42336-5.376-0.256-7.76192-1.24928a33.75104 33.75104 0 0 0-6.88128-2.02752c-2.47808-0.49152-4.51584 2.2016-7.14752 2.2016l0.01024-7.68c-3.66592-0.01024-3.6864 4.83328-7.35232 4.82304-3.66592-0.01024-3.67616 2.38592-7.35232 2.37568-3.66592-0.01024-3.64544-8.96-7.31136-8.97024-3.66592-0.01024-3.66592-0.60416-7.33184-0.6144-3.66592-0.01024-3.67616 2.67264-7.34208 2.6624-3.66592-0.01024-3.66592 0.23552-7.33184 0.22528-3.6352-0.01024-3.6352-1.8432-7.2704-1.85344-3.6352-0.01024-3.6352-2.69312-7.2704-2.70336-3.64544-0.01024-3.66592 6.88128-7.30112 6.87104-3.64544-0.01024-3.65568 4.89472-7.31136 4.88448-3.64544-0.01024-3.64544-1.04448-7.30112-1.05472-3.65568-0.01024-3.62496-9.54368-7.28064-9.55392-3.65568-0.01024-3.66592 2.00704-7.3216 1.9968-3.66592-0.01024-3.66592 0.16384-7.33184 0.1536-3.67616-0.01024-3.6864 3.85024-7.35232 3.84-3.66592-0.01024-3.65568-6.5024-7.3216-6.51264-3.66592-0.01024-3.66592-0.69632-7.33184-0.70656-3.66592-0.01024-3.6864 7.05536-7.34208 7.04512-3.65568-0.01024-3.66592 3.3792-7.33184 3.35872-3.65568-0.01024-3.6352-7.7824-7.29088-7.79264-3.65568-0.01024-3.65568 1.01376-7.31136 1.00352-3.65568-0.01024-3.65568 0.256-7.30112 0.24576-3.64544-0.01024-3.66592 6.48192-7.3216 6.47168-3.64544-0.01024-3.64544-1.49504-7.30112-1.50528-3.65568-0.01024-3.6352-5.95968-7.28064-5.98016-3.65568-0.01024-3.64544-1.01376-7.30112-1.024-3.65568-0.01024-3.67616 8.61184-7.33184 8.6016-3.65568-0.01024-3.65568 0.4096-7.31136 0.39936-3.65568-0.01024-3.6352-7.58784-7.30112-7.59808-3.66592-0.01024-3.6864 6.21568-7.35232 6.20544-3.66592-0.01024-3.65568-6.44096-7.3216-6.4512-3.67616-0.01024-3.6864 2.80576-7.36256 2.79552-3.67616-0.01024-3.65568-7.07584-7.33184-7.08608-3.67616-0.01024-3.6864 5.89824-7.36256 5.888-3.66592-0.01024-3.67616 2.72384-7.34208 2.70336-3.66592-0.01024-3.67616 1.9456-7.33184 1.93536-3.66592-0.01024-3.6352-9.984-7.30112-9.99424-3.66592-0.01024-3.66592 2.37568-7.33184 2.36544-3.66592-0.01024-3.6864 8.91904-7.35232 8.9088-3.66592-0.01024-3.6352-9.37984-7.31136-9.39008-3.67616-0.01024-3.66592-0.98304-7.34208-0.99328-3.67616-0.01024-3.6864 1.57696-7.36256 1.55648-3.6864-0.01024-3.70688 9.23648-7.39328 9.22624-3.67616-0.01024-3.65568-7.58784-7.33184-7.59808-3.67616-0.01024-3.69664 8.28416-7.3728 8.27392-3.67616-0.01024-3.6352-11.52-7.31136-11.53024-3.67616-0.01024-3.6864 3.52256-7.35232 3.51232-3.67616-0.01024-3.66592-3.85024-7.34208-3.86048-3.67616-0.01024-3.69664 6.6048-7.38304 6.59456-3.6864-0.01024-3.67616-1.9968-7.36256-2.00704-3.67616-0.01024-3.69664 5.0176-7.3728 4.99712-3.67616-0.01024-3.67616 0.49152-7.35232 0.48128-3.67616-0.01024-3.65568-7.56736-7.33184-7.5776-3.65568-0.01024-3.67616 9.4208-7.33184 9.41056-3.65568-0.01024-3.62496-10.47552-7.28064-10.48576-3.66592-0.01024-3.65568-2.44736-7.3216-2.4576-3.67616-0.01024-3.71712 12.4928-7.39328 12.48256-3.6864-0.01024-3.65568-12.98432-7.34208-12.99456-3.67616-0.01024-3.67616 0.19456-7.35232 0.17408-3.67616-0.01024-3.69664 6.656-7.3728 6.64576-3.67616-0.01024-3.66592-4.58752-7.34208-4.59776-3.69664-0.01024-3.72736 8.7552-7.424 8.74496-3.6864-0.01024-3.65568-10.22976-7.34208-10.24-3.6864-0.01024-3.69664 1.35168-7.38304 1.34144-3.69664-0.01024-3.71712 6.06208-7.424 6.05184-3.69664-0.01024-3.69664 1.75104-7.39328 1.7408-3.69664-0.01024-3.6864-1.67936-7.38304-1.6896-3.6864-0.01024-3.67616-4.17792-7.36256-4.18816-3.70688-0.01024-3.7376 9.3184-7.43424 9.30816-3.70688-0.01024-3.70688-0.58368-7.424-0.59392-3.71712-0.01024-3.75808-7.10656-7.17824-5.65248-4.1472 1.80224-3.92192 4.23936-7.63904 4.22912z m432.32256 542.35136c-3.65568 0-3.65568-0.1536-7.3216-0.1536s-3.66592-0.68608-7.33184-0.68608-3.66592-1.98656-7.34208-1.98656-3.67616 1.37216-7.35232 1.37216-3.67616-10.35264-7.35232-10.35264-3.67616 0.77824-7.34208 0.77824-3.66592 12.81024-7.34208 12.81024c-3.66592 0-3.66592-6.47168-7.33184-6.47168s-3.66592-5.57056-7.33184-5.57056-3.66592 1.78176-7.33184 1.78176-3.66592 6.15424-7.33184 6.15424-3.66592-4.77184-7.33184-4.77184c-3.67616 0-3.67616 8.57088-7.34208 8.57088-3.67616 0-3.67616-11.90912-7.35232-11.90912-3.6864 0-3.6864 7.55712-7.3728 7.55712-3.67616 0-3.67616 2.2016-7.35232 2.2016s-3.67616 1.80224-7.35232 1.80224-3.67616-7.424-7.34208-7.424c-3.67616 0-3.67616 4.15744-7.34208 4.15744-3.67616 0-3.67616-1.67936-7.35232-1.67936-3.6864 0-3.6864 1.3824-7.36256 1.3824-3.6864 0-3.6864-5.0176-7.3728-5.0176-3.67616 0-3.67616-1.98656-7.36256-1.98656-3.67616 0-3.67616-1.9968-7.35232-1.9968s-3.67616 11.264-7.36256 11.264c-3.65568 0-3.65568-11.52-7.30112-11.52-3.65568 0-3.65568 8.6016-7.31136 8.6016-3.66592 0-3.66592 0.8704-7.33184 0.8704-3.67616 0-3.67616-8.22272-7.36256-8.22272s-3.6864 7.0144-7.38304 7.0144c-3.67616 0-3.67616 4.78208-7.35232 4.78208s-3.67616-9.23648-7.35232-9.23648-3.67616-2.89792-7.36256-2.89792c-3.69664 0-3.69664 5.69344-7.39328 5.69344-3.6864 0-3.6864 4.00384-7.3728 4.00384s-3.6864-1.42336-7.3728-1.42336c-3.69664 0-3.69664 3.23584-7.40352 3.23584-3.69664 0-3.69664-5.4784-7.39328-5.4784s-3.69664-1.29024-7.38304-1.29024-3.6864-5.5808-7.3728-5.5808c-3.70688 0-3.70688 2.90816-7.41376 2.90816s-3.70688 7.61856-7.424 7.61856-3.71712-9.8304-7.44448-9.8304c-3.71712 0-3.71712 9.22624-7.44448 9.22624-2.42688 0-5.3248-1.42336-7.56736-2.02752-2.31424-0.62464-3.96288-3.59424-5.9904-4.77184-2.05824-1.18784-4.67968-1.8944-6.3488-3.56352-1.66912-1.66912-1.29024-4.92544-2.47808-6.98368-1.1776-2.02752-9.1648-1.98656-9.78944-4.3008-0.59392-2.24256-1.82272-6.18496-1.82272-8.61184s5.9904-5.10976 6.58432-7.35232c0.62464-2.31424 3.80928-3.584 4.98688-5.61152 1.18784-2.05824 3.91168-2.23232 5.5808-3.90144 1.66912-1.66912-1.24928-9.73824 0.80896-10.92608 2.02752-1.1776 7.1168 3.75808 9.44128 3.14368 2.24256-0.59392 4.17792 0.86016 6.6048 0.86016 3.67616 0 3.67616-9.0624 7.35232-9.0624 3.6864 0 3.6864 3.71712 7.36256 3.71712 3.6864 0 3.6864 8.27392 7.3728 8.27392 3.69664 0 3.69664-4.41344 7.39328-4.41344s3.69664-0.65536 7.39328-0.65536c3.6864 0 3.6864 3.4816 7.38304 3.4816 3.6864 0 3.6864-3.92192 7.3728-3.92192s3.6864-1.6896 7.3728-1.6896 3.6864-4.22912 7.36256-4.22912c3.6864 0 3.6864 6.2976 7.36256 6.2976 3.6864 0 3.6864-1.98656 7.36256-1.98656 3.6864 0 3.6864-1.47456 7.3728-1.47456s3.6864 7.51616 7.38304 7.51616 3.69664-5.61152 7.39328-5.61152c3.70688 0 3.70688-2.89792 7.40352-2.89792s3.69664 0.98304 7.39328 0.98304 3.69664-1.4848 7.38304-1.4848 3.6864 1.49504 7.38304 1.49504c3.6864 0 3.6864 4.1472 7.38304 4.1472s3.69664-6.10304 7.38304-6.10304c3.69664 0 3.69664 3.69664 7.40352 3.69664s3.70688 4.03456 7.40352 4.03456 3.69664-3.2256 7.39328-3.2256 3.69664 5.91872 7.39328 5.91872 3.69664-0.08192 7.39328-0.08192c3.66592 0 3.66592-5.56032 7.34208-5.56032s3.67616-5.8368 7.35232-5.8368c3.6864 0 3.6864 7.63904 7.36256 7.63904 3.69664 0 3.69664-5.2736 7.39328-5.2736 3.70688 0 3.70688 5.65248 7.41376 5.65248 3.69664 0 3.69664 1.61792 7.39328 1.61792s3.69664-9.28768 7.38304-9.28768c3.69664 0 3.69664 10.30144 7.39328 10.30144 3.71712 0 3.71712-3.14368 7.43424-3.14368 3.70688 0 3.70688-4.39296 7.41376-4.39296s3.70688 7.9872 7.41376 7.9872c3.71712 0 3.71712-7.3216 7.43424-7.3216s3.71712 4.27008 7.424 4.27008 3.70688-6.2976 7.424-6.2976c3.70688 0 3.70688-0.03072 7.40352-0.03072 3.72736 0 3.72736 0.36864 7.44448 0.36864 3.72736 0 3.72736 1.59744 7.45472 1.59744 3.7376 0 3.7376-0.6656 7.4752-0.6656s3.7376 8.74496 7.4752 8.74496c2.42688 0 3.7888-2.3552 6.02112-1.76128 2.31424 0.62464 3.20512 1.792 5.23264 2.9696 2.05824 1.18784 8.2432-3.33824 9.91232-1.66912 1.66912 1.66912 4.90496 3.35872 6.0928 5.41696 1.1776 2.02752 2.38592 5.31456 3.00032 7.63904 0.59392 2.24256-5.72416 5.6832-5.72416 8.11008s2.89792 4.95616 2.29376 7.19872c-0.62464 2.31424 1.536 6.49216 0.36864 8.51968-1.18784 2.05824-3.69664 4.4544-5.36576 6.12352-1.66912 1.66912-6.95296-0.8192-9.0112 0.36864-2.02752 1.1776-3.16416 4.57728-5.4784 5.20192-2.24256 0.59392-3.06176 0.94208-5.48864 0.94208-1.4336 2.2016-2.62144 3.59424-3.40992 3.59424z" fill="#FFD300" p-id="3299"></path><path d="M660.46976 371.46624c-1.54624-1.88416-2.24256-4.7104-4.13696-6.06208-1.95584-1.40288-4.864-1.13664-7.0656-1.95584-2.23232-0.83968-4.43392-1.04448-6.79936-1.26976-2.3552-0.23552-4.25984 1.3824-6.6048 1.77152-2.31424 0.37888-5.44768-2.34496-7.63904-1.35168-2.11968 0.96256-1.76128 5.56032-3.6352 7.10656-2.80576 2.304-5.84704-1.40288-8.6528 0.89088-2.80576 2.304-3.21536 1.80224-6.01088 4.10624-2.80576 2.304-1.9456 3.34848-4.74112 5.65248-2.80576 2.304-0.54272 5.0688-3.34848 7.3728-2.80576 2.304-5.30432-0.73728-8.12032 1.56672-2.816 2.304-0.80896 4.75136-3.61472 7.0656-2.80576 2.304-3.584 1.34144-6.38976 3.64544-2.79552 2.29376-1.47456 3.90144-4.27008 6.1952-2.79552 2.29376-5.34528-0.82944-8.1408 1.46432-2.78528 2.29376-0.69632 4.83328-3.49184 7.12704-2.79552 2.29376-4.95616-0.34816-7.75168 1.9456s-2.58048 2.57024-5.376 4.864c-2.816 2.304-1.71008 3.64544-4.52608 5.94944-2.816 2.31424-2.54976 2.64192-5.36576 4.95616-2.80576 2.304-1.88416 3.44064-4.68992 5.74464-2.80576 2.304-3.6352 1.30048-6.44096 3.60448-2.816 2.304-2.28352 2.94912-5.08928 5.26336-2.82624 2.31424-5.03808-0.37888-7.86432 1.93536-2.816 2.31424-2.16064 3.11296-4.97664 5.4272-2.816 2.31424-2.70336 2.44736-5.5296 4.7616-2.82624 2.32448-2.14016 3.15392-4.97664 5.46816-2.80576 2.304-2.9184 2.16064-5.7344 4.47488-2.82624 2.31424-1.98656 3.328-4.8128 5.65248-2.816 2.31424-3.1744 1.87392-5.9904 4.18816-2.83648 2.32448-3.97312 0.94208-6.79936 3.25632-2.83648 2.32448-1.01376 4.54656-3.85024 6.87104-2.84672 2.33472-3.19488 1.90464-6.0416 4.23936-2.84672 2.33472-3.1232 2.58048-6.78912 2.23232-3.7376-0.3584-3.44064-1.08544-5.90848-3.92192-2.46784-2.84672-0.90112-4.1984-3.36896-7.04512-2.47808-2.85696-5.34528-0.36864-7.81312-3.2256-2.46784-2.84672-1.30048-3.86048-3.77856-6.7072-2.46784-2.84672 0.52224-5.44768-1.9456-8.2944-2.47808-2.85696-3.49184-1.97632-5.96992-4.83328-2.4576-2.83648-2.7648-2.58048-5.23264-5.41696-2.47808-2.85696-1.024-4.11648-3.49184-6.97344-2.46784-2.84672-4.03456-1.49504-6.5024-4.34176-2.48832-2.8672-3.49184-1.98656-5.98016-4.85376-2.48832-2.8672 0.23552-5.2224-2.2528-8.09984-2.49856-2.87744-5.51936-0.256-8.01792-3.13344-2.49856-2.87744-0.60416-4.51584-3.10272-7.39328-1.56672-1.81248-3.9424-3.13344-5.8368-4.4032-1.96608-1.32096-4.9152-0.58368-7.09632-1.32096-2.22208-0.74752-4.01408-4.864-6.33856-5.00736-2.32448-0.14336-4.4032 4.72064-6.69696 5.19168-2.26304 0.4608-4.16768 0.60416-6.27712 1.66912a23.2448 23.2448 0 0 0-5.26336 3.86048c-1.7408 1.56672-4.58752 1.85344-5.81632 3.71712-1.26976 1.93536-3.67616 3.57376-4.38272 5.71392-0.7168 2.17088 2.75456 5.08928 2.6112 7.35232-0.14336 2.27328-2.22208 4.38272-1.78176 6.63552 0.44032 2.21184-0.32768 5.07904 0.68608 7.15776 0.98304 2.00704 5.87776 1.28 7.40352 3.05152 2.36544 2.72384 0.24576 4.56704 2.6112 7.30112 2.37568 2.74432 1.87392 3.1744 4.23936 5.91872 2.38592 2.74432 1.55648 3.47136 3.93216 6.21568 2.37568 2.73408 3.11296 2.08896 5.48864 4.83328 2.37568 2.73408 4.66944 0.73728 7.04512 3.4816 2.37568 2.74432 1.4336 3.55328 3.80928 6.28736 2.38592 2.75456 0.8192 4.10624 3.20512 6.8608 2.37568 2.74432 5.38624 0.14336 7.76192 2.88768 2.37568 2.74432 2.23232 2.87744 4.608 5.62176 2.3552 2.72384 1.41312 3.5328 3.77856 6.25664 2.37568 2.74432-0.38912 5.14048 1.98656 7.8848 2.38592 2.75456 5.43744 0.11264 7.82336 2.8672 2.38592 2.75456 1.35168 3.64544 3.7376 6.4 2.39616 2.7648 3.86048 1.49504 6.25664 4.25984 2.39616 2.77504-0.36864 5.1712 2.02752 7.94624 2.4064 2.77504 5.19168 0.36864 7.59808 3.14368s-0.768 5.49888 1.60768 8.31488c2.22208 2.63168 5.15072 0.19456 7.34208 2.84672 2.19136 2.6624-1.55648 5.74464 0.63488 8.40704 2.19136 2.67264 5.87776-0.3584 8.06912 2.31424 2.19136 2.67264 2.21184 2.31424 4.66944 4.74112 0.256 0.24576-0.50176-0.67584-0.19456-0.49152 0.9216 0.55296 0.4096 6.51264 1.3824 6.03136 3.51232-1.75104 2.62144-4.00384 5.5296-6.63552 2.90816-2.62144 4.06528-1.3312 6.97344-3.95264 2.92864-2.63168 0.8192-4.9664 3.74784-7.59808s2.8672-2.70336 5.79584-5.33504c2.93888-2.64192 1.5872-4.1472 4.51584-6.78912 2.93888-2.64192 3.4816-2.08896 6.47168-4.66944 2.80576-2.41664 4.2496-0.70656 7.10656-3.06176 2.85696-2.34496 0.60416-5.09952 3.46112-7.44448 2.85696-2.34496 2.72384-2.51904 5.5808-4.864 2.8672-2.34496 5.25312 0.5632 8.11008-1.792 2.8672-2.3552 4.2496-0.67584 7.1168-3.0208 2.8672-2.3552 0.62464-5.08928 3.49184-7.44448 2.85696-2.34496 4.70016-0.1024 7.55712-2.44736 2.85696-2.34496 1.7408-3.6864 4.59776-6.03136 2.84672-2.33472 2.06848-3.28704 4.9152-5.62176 2.84672-2.33472 2.0992-3.24608 4.94592-5.5808 2.84672-2.33472 5.45792 0.83968 8.30464-1.49504 2.85696-2.34496 1.36192-4.16768 4.21888-6.51264 2.8672-2.3552 4.72064-0.09216 7.58784-2.44736 2.87744-2.36544 1.91488-3.5328 4.79232-5.89824 2.8672-2.3552 0.47104-5.28384 3.33824-7.6288 2.8672-2.3552 3.87072-1.1264 6.72768-3.4816 2.8672-2.3552 3.05152-2.12992 5.92896-4.48512 2.87744-2.36544 2.36544-2.99008 5.25312-5.35552 2.87744-2.3552 4.7104-0.12288 7.58784-2.48832 2.87744-2.3552 0.256-5.56032 3.13344-7.91552 2.88768-2.36544 4.42368-0.48128 7.31136-2.85696 2.8672-2.3552 2.75456-2.48832 5.62176-4.84352 2.87744-2.36544 3.50208-1.60768 6.37952-3.97312 2.87744-2.3552 3.72736-1.32096 6.6048-3.6864 2.88768-2.37568 0.83968-4.87424 3.72736-7.24992 2.89792-2.37568 4.18816-0.79872 7.08608-3.1744l5.80608-4.7616c2.90816-2.37568 3.33824-1.85344 6.23616-4.23936 1.88416-1.54624 0.74752-5.7344 2.0992-7.6288 1.40288-1.95584 1.78176-3.70688 2.6112-5.91872 0.83968-2.23232 5.65248-3.4304 5.87776-5.7856 0.23552-2.36544-2.65216-4.73088-3.04128-7.08608-0.37888-2.32448 1.03424-5.23264 0.03072-7.424-0.9216-2.1504-3.59424-3.35872-5.14048-5.24288z" fill="#FFD300" opacity=".5" p-id="3300"></path></svg>