<?xml version="1.0" standalone="no"?><!DOCTYPE svg PUBLIC "-//W3C//DTD SVG 1.1//EN" "http://www.w3.org/Graphics/SVG/1.1/DTD/svg11.dtd"><svg t="1598890942390" class="icon" viewBox="0 0 1024 1024" version="1.1" xmlns="http://www.w3.org/2000/svg" p-id="2858" xmlns:xlink="http://www.w3.org/1999/xlink" width="128" height="128"><defs><style type="text/css"></style></defs><path d="M958.06681947 570.98951997H65.93318053c-29.16335819 0-53.6870912-23.86092942-53.6870912-53.6870912v-10.60485754c0-29.16335819 23.86092942-53.6870912 53.6870912-53.6870912h891.47083535c29.16335819 0 53.6870912 23.86092942 53.6870912 53.6870912v10.60485754c0 29.16335819-23.86092942 53.6870912-53.02428761 53.6870912z" p-id="2859"></path><path d="M570.98951997 65.93318053v891.47083535c0 29.16335819-23.86092942 53.6870912-53.6870912 53.6870912h-10.60485754c-29.16335819 0-53.6870912-23.86092942-53.6870912-53.6870912v-891.47083535c0-29.16335819 23.86092942-53.6870912 53.6870912-53.6870912h10.60485754c29.16335819 0.66280359 53.6870912 24.52373301 53.6870912 53.6870912z" p-id="2860"></path></svg>