<?xml version="1.0" standalone="no"?><!DOCTYPE svg PUBLIC "-//W3C//DTD SVG 1.1//EN" "http://www.w3.org/Graphics/SVG/1.1/DTD/svg11.dtd"><svg t="1600503971060" class="icon" viewBox="0 0 1024 1024" version="1.1" xmlns="http://www.w3.org/2000/svg" p-id="2705" xmlns:xlink="http://www.w3.org/1999/xlink" width="128" height="128"><defs><style type="text/css"></style></defs><path d="M905.94145925 428.57374c0-221.89421605-176.37203664-401.75839915-393.95388682-401.75839915-217.5694226 0-393.94145925 179.86418309-393.94145925 401.75839915 0 7.04643072 0.68351621 13.84431009 1.0314881 20.74160999-0.32311675 3.40515347-1.0314881 6.68603126-1.0314881 10.19060528 0 247.28373627 363.64304991 527.37625051 363.64304991 527.3762505s30.29840933 23.17741322 60.60924624 0C572.60924624 963.67993742 905.95388682 706.78969154 905.95388682 459.50595527c0-3.49214644-0.70837134-6.77302423-1.0314881-10.19060528 0.34797189-6.88487234 1.01906053-13.69517929 1.01906053-20.74160999zM512 583.13539584c-83.68723892 0-151.51690183-69.18426775-151.51690183-154.56165584 0-85.31525025 67.82966291-154.51194558 151.51690183-154.51194558 83.69966649 0 151.51690183 69.18426775 151.51690183 154.51194558 0 85.37738809-67.82966291 154.56165584-151.51690183 154.56165584z" fill="#999999" p-id="2706"></path></svg>