<?xml version="1.0" standalone="no"?><!DOCTYPE svg PUBLIC "-//W3C//DTD SVG 1.1//EN" "http://www.w3.org/Graphics/SVG/1.1/DTD/svg11.dtd"><svg t="1600254922953" class="icon" viewBox="0 0 1024 1024" version="1.1" xmlns="http://www.w3.org/2000/svg" p-id="9136" xmlns:xlink="http://www.w3.org/1999/xlink" width="128" height="128"><defs><style type="text/css"></style></defs><path d="M509.201223 1024C355.234379 1024 68.803486 794.466187 68.803486 577.424475V163.205538a18.772282 18.772282 0 0 1 18.840545-18.362705l24.915938-0.443709c0.95568 0 98.776335-1.945491 199.600555-41.879254 103.486471-40.855312 170.17927-87.922543 170.89603-88.400383l14.676512-10.444215a19.864488 19.864488 0 0 1 22.731527-0.068263l14.949562 10.512478c0.682628 0.47784 67.44369 47.545071 170.793636 88.400383 100.926615 39.933764 198.74727 41.913386 199.737081 41.913386l24.745281 0.409577a18.772282 18.772282 0 0 1 18.840545 18.396836l0.204789 414.253069C949.735487 794.500319 663.236331 1024 509.167092 1024zM881.813957 211.433237c-37.885878-2.867039-117.514486-12.628626-200.283184-45.394791a1009.027228 1009.027228 0 0 1-172.363681-87.61536A1014.11281 1014.11281 0 0 1 336.905805 166.072577c-82.598041 32.697902-162.02186 42.459489-200.41971 45.394791v365.991238C136.486095 747.672008 386.055053 955.737156 509.201223 955.737156c47.715728 0 140.689721-38.739164 232.09367-123.760536 88.127332-81.915413 140.723853-177.073817 140.723853-254.483882l-0.204789-366.02537zM473.875202 647.086707a33.312268 33.312268 0 0 1-23.891996 10.034638 33.721845 33.721845 0 0 1-23.994389-10.034638L324.277179 544.794835a34.336211 34.336211 0 0 1 0-48.26183 33.653582 33.653582 0 0 1 47.954648 0l77.751379 78.160956 196.255677-197.620933a33.585319 33.585319 0 0 1 47.886385 0c13.311255 13.311255 13.311255 34.882313 0 48.227699l-220.250066 221.820112z" p-id="9137"></path></svg>