<?xml version="1.0" standalone="no"?><!DOCTYPE svg PUBLIC "-//W3C//DTD SVG 1.1//EN" "http://www.w3.org/Graphics/SVG/1.1/DTD/svg11.dtd"><svg t="1600169879317" class="icon" viewBox="0 0 1024 1024" version="1.1" xmlns="http://www.w3.org/2000/svg" p-id="6061" xmlns:xlink="http://www.w3.org/1999/xlink" width="128" height="128"><defs><style type="text/css"></style></defs><path d="M778.6496 133.12H245.3504C172.05248 133.12 112.64 192.53248 112.64 265.8304v411.17696c0 73.29792 59.41248 132.7104 132.7104 132.7104h113.27488c12.94336 0 25.61024 3.7888 36.43392 10.89536l98.65216 64.8192a33.15712 33.15712 0 0 0 36.096 0.21504l102.3488-65.47456a66.3552 66.3552 0 0 1 35.75808-10.45504h112.01536C852.52096 809.71776 911.36 750.87872 911.36 678.28736V265.8304C911.36 192.53248 851.94752 133.12 778.6496 133.12z m76.3904 544.768l-0.01024 1.26976a76.9536 76.9536 0 0 1-76.94336 75.68384H647.44448a65.98656 65.98656 0 0 0-34.21184 9.97376L529.408 817.0496l-0.37888 0.23552a32.99328 32.99328 0 0 1-34.83648-0.45056l-80.64-51.59936-0.57344-0.3584a65.92512 65.92512 0 0 0-34.97984-10.0352H245.9136l-1.26976-0.01024A76.96384 76.96384 0 0 1 168.96 677.888V265.76896l0.01024-1.26976a76.9536 76.9536 0 0 1 76.94336-75.68384h532.1728a76.96384 76.96384 0 0 1 76.9536 76.9536V677.888z" p-id="6062"></path><path d="M698.28608 357.376a26.624 26.624 0 0 1 0.62464 53.23776l-0.62464 0.01024H327.68a26.624 26.624 0 0 1-0.62464-53.23776L327.68 357.376h370.60608z" p-id="6063"></path><path d="M454.656 589.1072H327.68c-14.6432 0-26.624-11.9808-26.624-26.624 0-14.6432 11.9808-26.624 26.624-26.624h126.976c14.6432 0 26.624 11.9808 26.624 26.624 0 14.6432-11.9808 26.624-26.624 26.624z" p-id="6064"></path></svg>