<?xml version="1.0" standalone="no"?><!DOCTYPE svg PUBLIC "-//W3C//DTD SVG 1.1//EN" "http://www.w3.org/Graphics/SVG/1.1/DTD/svg11.dtd"><svg t="1600169299543" class="icon" viewBox="0 0 1024 1024" version="1.1" xmlns="http://www.w3.org/2000/svg" p-id="3123" xmlns:xlink="http://www.w3.org/1999/xlink" width="128" height="128"><defs><style type="text/css"></style></defs><path d="M598.39488 580.61824c-13.824 0-25.91744-12.09344-25.91744-25.91744s12.09344-25.91744 25.91744-25.91744h31.09888c13.824 0 25.91744 12.09344 25.91744 25.91744s-10.36288 25.91744-25.91744 25.91744h-31.09888zM356.49536 580.61824c-13.824 0-25.91744-12.09344-25.91744-25.91744s12.09344-25.91744 25.91744-25.91744h119.22432c13.824 0 25.91744 12.09344 25.91744 25.91744s-12.09344 25.91744-25.91744 25.91744H356.49536zM356.49536 425.10336c-13.824 0-25.91744-12.09344-25.91744-25.91744s12.09344-25.91744 25.91744-25.91744h276.45952c13.824 0 25.91744 12.09344 25.91744 25.91744s-12.09344 25.91744-25.91744 25.91744H356.49536z" fill="#999999" opacity=".5" p-id="3124"></path><path d="M724.5312 171.1104c-70.85056-8.64256-141.69088-13.824-212.5312-13.824-70.84032 0-141.68064 3.45088-212.5312 13.824-81.21344 12.09344-141.68064 81.21344-141.68064 162.41664v297.19552c0 82.93376 62.19776 152.05376 145.14176 162.41664l13.824 29.37856c1.73056 3.45088 3.45088 5.18144 5.18144 8.64256 22.46656 36.28032 70.84032 46.65344 107.13088 22.46656l77.75232-51.83488H512c67.38944 0 133.04832-3.45088 200.42752-6.912 86.39488-5.18144 153.78432-77.75232 153.78432-164.1472V333.52704c0-81.2032-60.47744-150.3232-141.68064-162.41664z m88.1152 457.8816c0 58.74688-46.65344 108.8512-105.40032 112.31232-65.65888 5.18144-131.31776 6.912-196.97664 6.912H498.176c-5.18144 0-10.36288 1.73056-13.824 5.18144l-82.93376 55.296c-12.09344 8.64256-27.648 5.18144-36.28032-6.912 0-1.73056-1.73056-1.73056-1.73056-3.45088l-20.736-41.472c-3.45088-8.64256-12.09344-13.824-20.736-13.824h-6.912c-58.74688-3.45088-105.40032-53.56544-105.40032-112.31232V333.52704c0-55.296 41.472-103.66976 96.75776-110.58176 69.10976-8.64256 136.4992-13.824 205.6192-13.824 69.10976 0 136.4992 5.18144 203.88864 12.09344 55.296 6.912 96.75776 53.56544 96.75776 110.58176v297.19552z" fill="#999999" p-id="3125"></path></svg>