<?xml version="1.0" standalone="no"?><!DOCTYPE svg PUBLIC "-//W3C//DTD SVG 1.1//EN" "http://www.w3.org/Graphics/SVG/1.1/DTD/svg11.dtd"><svg t="1600169870241" class="icon" viewBox="0 0 1024 1024" version="1.1" xmlns="http://www.w3.org/2000/svg" p-id="5777" xmlns:xlink="http://www.w3.org/1999/xlink" width="128" height="128"><defs><style type="text/css"></style></defs><path d="M512 509.15328c-70.5536 0-127.96928 57.42592-127.96928 127.96928v88.9856a26.60352 26.60352 0 0 0 26.5216 26.5216 26.60352 26.60352 0 0 0 26.53184-26.5216v-88.9856c0-41.23648 33.55648-74.92608 74.92608-74.92608s74.92608 33.55648 74.92608 74.92608v88.9856a26.60352 26.60352 0 0 0 26.53184 26.5216 26.60352 26.60352 0 0 0 26.5216-26.5216v-88.9856C639.96928 566.5792 582.68672 509.15328 512 509.15328z" p-id="5778"></path><path d="M855.40864 332.9536l-240.7424-183.22432a169.08288 169.08288 0 0 0-102.59456-34.58048c-36.21888 0-72.27392 11.4688-102.59456 34.58048L168.57088 332.9536a84.60288 84.60288 0 0 0-33.4336 67.52256v353.01376c0 85.88288 69.65248 155.37152 155.37152 155.37152h442.9824c85.88288 0 155.37152-69.66272 155.37152-155.37152V400.47616a84.1728 84.1728 0 0 0-33.45408-67.52256z m-25.79456 425.14432c0 50.47296-41.12384 91.58656-91.58656 91.58656H286.11584c-50.47296 0-91.58656-41.1136-91.58656-91.58656v-359.8336c0-6.01088 2.84672-11.85792 7.69024-15.53408L447.8976 195.88096a104.78592 104.78592 0 0 1 64.18432-21.72928c23.3984 0 45.62944 7.5264 64.18432 21.72928l245.67808 186.84928c4.84352 3.67616 7.69024 9.5232 7.69024 15.53408v359.8336z" p-id="5779"></path></svg>