<?xml version="1.0" encoding="UTF-8"?>
<svg width="16px" height="19px" viewBox="0 0 16 19" version="1.1" xmlns="http://www.w3.org/2000/svg" xmlns:xlink="http://www.w3.org/1999/xlink">
    <title>icon_ren</title>
    <g id="页面-1" stroke="none" stroke-width="1" fill="none" fill-rule="evenodd">
        <g id="画板" transform="translate(-872.000000, -480.000000)" fill="#D7D7D7" fill-rule="nonzero">
            <g id="icon_ren" transform="translate(872.000000, 480.000000)">
                <path d="M8.0000546,0 C10.7524586,0 12.9835591,2.23711019 12.9835591,4.99654851 C12.9835591,7.7560963 10.7523494,9.99298753 8.0000546,9.99298753 C5.24775977,9.99298753 3.01644088,7.75598682 3.01644088,4.99643903 C3.01644088,2.23700071 5.24765057,-0.000109479798 8.0000546,0 M8.0000546,11.0910699 C9.44723426,11.0910699 10.8943047,11.1788727 12.3415936,11.3541499 C14.4294284,11.6073766 16,13.3837958 16,15.4922673 C16,17.4295123 14.4335779,19 12.5013479,19 L3.49865211,19 C1.56642211,19 0,17.4295123 0,15.4922673 C0,13.3837958 1.57046238,11.6073766 3.65829722,11.3541499 C5.09897083,11.1791615 6.54884717,11.0913092 8.0000546,11.0910699" id="形状"></path>
            </g>
        </g>
    </g>
</svg>