<?xml version="1.0" encoding="UTF-8"?>
<svg width="15px" height="21px" viewBox="0 0 15 21" version="1.1" xmlns="http://www.w3.org/2000/svg" xmlns:xlink="http://www.w3.org/1999/xlink">
    <title>icon_dizhi</title>
    <g id="页面-1" stroke="none" stroke-width="1" fill="none" fill-rule="evenodd">
        <g id="画板" transform="translate(-782.000000, -478.000000)" fill="#D7D7D7" fill-rule="nonzero">
            <g id="icon_dizhi" transform="translate(782.000000, 478.000000)">
                <path d="M14.8296172,9.44758489 C14.9432057,8.9105298 15,8.35710109 15,7.78402401 C15,3.4843086 11.6428271,0 7.5,0 C3.35717291,0 0,3.4843086 0,7.78402401 C0,8.35382636 0.0599495162,8.9105298 0.170382836,9.44758489 C0.224021876,9.6997388 0.28712663,9.94534326 0.362852335,10.187673 C0.375473286,10.2302444 0.391249474,10.2760906 0.403870425,10.318662 C0.425957089,10.3874313 0.45119899,10.4529258 0.473285654,10.5216951 C0.649978965,11.012904 0.874000841,11.4811898 1.14219605,11.9200031 C1.23685318,12.07719 1.33782078,12.2278274 1.44194363,12.3784648 L6.85002103,20.6438735 C7.15923433,21.1187088 7.8344552,21.1187088 8.14366849,20.6438735 L13.5517459,12.3784648 C13.6558687,12.2311021 13.7568363,12.07719 13.8514935,11.9200031 C13.9082878,11.8250361 13.9619268,11.730069 14.0155658,11.6351019 C14.0408077,11.5859811 14.0692049,11.5401349 14.0944468,11.491014 C14.2080353,11.2748821 14.3090029,11.0522007 14.4036601,10.8262446 C14.428902,10.7672995 14.4509886,10.7050797 14.4762305,10.6428599 C14.6245267,10.2564422 14.7444257,9.85692566 14.8296172,9.44758489 Z M5.44278502,5.64562785 C5.99179638,5.0758255 6.72381153,4.7614518 7.50315524,4.7614518 C8.27934371,4.7614518 9.01135886,5.0758255 9.56352545,5.64562785 C10.1125368,6.2154302 10.4154396,6.97516666 10.4154396,7.78402401 C10.4154396,8.00343067 10.393353,8.22283732 10.3491796,8.43569451 C10.2797644,8.77299131 10.1535549,9.09391447 9.97370635,9.38863982 C9.9358435,9.44758489 9.89798065,9.50652996 9.8601178,9.5622003 L9.8601178,9.56874976 C9.59192259,9.94861799 9.24169121,10.259717 8.84413126,10.4758489 C8.43079512,10.6985303 7.98275137,10.809871 7.50946571,10.809871 C7.03618006,10.809871 6.58498107,10.6985303 6.17480017,10.4758489 C5.77724022,10.259717 5.4238536,9.94861799 5.15881363,9.56874976 L5.15565839,9.56547503 C5.11779554,9.50980469 5.07677745,9.45085962 5.04206984,9.39191455 C4.86222129,9.09718919 4.73601178,8.77626603 4.66659655,8.44224397 C4.62242322,8.22938677 4.60033656,8.01325484 4.60033656,7.79057347 C4.59087085,6.97844139 4.89377366,6.21870492 5.44278502,5.64562785 L5.44278502,5.64562785 Z" id="形状"></path>
            </g>
        </g>
    </g>
</svg>