<?xml version="1.0" encoding="UTF-8"?>
<svg width="26px" height="28px" viewBox="0 0 26 28" version="1.1" xmlns="http://www.w3.org/2000/svg" xmlns:xlink="http://www.w3.org/1999/xlink">
    <title>icon_tongzhi</title>
    <g id="页面-1" stroke="none" stroke-width="1" fill="none" fill-rule="evenodd">
        <g id="画板" transform="translate(-947.000000, -476.000000)" fill="#E59404" fill-rule="nonzero">
            <g id="icon_tongzhi" transform="translate(947.000000, 476.000000)">
                <path d="M16.5730897,1.08988989 C16.3104742,0.955044656 15.9928911,0.972999095 15.7480328,1.13642801 L8.15601796,6.20428355 C7.79159407,6.44754112 7.69858439,6.93256004 7.94830593,7.2875964 C8.19799549,7.64263276 8.69580683,7.73324652 9.0602627,7.48998894 L15.4002783,3.25785591 L15.4002783,24.8162615 L7.03052728,19.7306697 L7.03052728,11.6622739 C7.03052728,11.6254299 7.02771172,11.5892716 7.0226565,11.5537992 C7.01555359,9.94195287 5.6675052,8.63277581 4.01140824,8.63277581 C2.35092795,8.63277581 1,9.94887281 1,11.5666104 L1,18.4751066 C1,18.9054829 1.35812086,19.2543786 1.79987681,19.2543786 C2.24163277,19.2543786 2.59975363,18.9054829 2.59975363,18.4751066 L2.59975363,11.5666104 C2.59975363,10.8082852 3.2330321,10.1913199 4.01140824,10.1913199 C4.78978439,10.1913199 5.42306286,10.808254 5.42306286,11.5666104 L5.42306286,18.2803821 C5.42306286,18.3167585 5.42581445,18.3525115 5.43077368,18.3875476 L5.43077368,20.1638203 C5.43077368,20.4503119 5.59001315,20.7007076 5.8268087,20.8361139 L15.7768604,26.8819247 C15.9061525,26.9605065 16.0530418,27 16.2001552,27 C16.3336386,27 16.467346,26.9674888 16.5882234,26.9021234 C16.8423283,26.7647533 17,26.5038842 17,26.2207279 L17,1.77932743 C17,1.49009284 16.8356733,1.22470394 16.5730897,1.08988989 Z M19,7 L19,8.58688306 C21.5007031,8.58688306 23.5351849,10.790905 23.5351849,13.5 C23.5351849,16.209095 21.5007324,18.4131169 19,18.4131169 L19,20 C22.3084022,20 25,17.0841024 25,13.5 C25,9.91589764 22.3084022,7 19,7 Z" id="形状"></path>
            </g>
        </g>
    </g>
</svg>