<?xml version="1.0" encoding="UTF-8"?>
<svg width="52px" height="52px" viewBox="0 0 52 52" version="1.1" xmlns="http://www.w3.org/2000/svg" xmlns:xlink="http://www.w3.org/1999/xlink">
    <title>icon_fabu</title>
    <g id="页面-1" stroke="none" stroke-width="1" fill="none" fill-rule="evenodd">
        <g id="画板" transform="translate(-1361.000000, -2003.000000)" fill="#FFFFFF">
            <g id="编组-9备份-2" transform="translate(1324.000000, 1964.000000)">
                <g id="icon_fabu" transform="translate(37.000000, 39.000000)">
                    <path d="M26,0 C27.6568542,-3.04359188e-16 29,1.34314575 29,3 L29,23 L49,23 C50.6568542,23 52,24.3431458 52,26 C52,27.6568542 50.6568542,29 49,29 L29,29 L29,49 C29,50.6568542 27.6568542,52 26,52 C24.3431458,52 23,50.6568542 23,49 L23,29 L3,29 C1.34314575,29 2.02906125e-16,27.6568542 0,26 C-2.02906125e-16,24.3431458 1.34314575,23 3,23 L23,23 L23,3 C23,1.34314575 24.3431458,3.04359188e-16 26,0 Z" id="形状结合"></path>
                </g>
            </g>
        </g>
    </g>
</svg>