<?xml version="1.0" encoding="UTF-8"?>
<svg width="48px" height="42px" viewBox="0 0 48 42" version="1.1" xmlns="http://www.w3.org/2000/svg" xmlns:xlink="http://www.w3.org/1999/xlink">
    <title>icon_huizh</title>
    <g id="页面-1" stroke="none" stroke-width="1" fill="none" fill-rule="evenodd">
        <g id="画板" transform="translate(-547.000000, -463.000000)">
            <g id="icon_huizh" transform="translate(547.000000, 463.000000)">
                <path d="M47.6656076,10.6602993 C47.3735135,10.3543444 46.9442447,10.2183636 46.5279994,10.2999357 L34.3359126,12.7270204 L24.9758459,0.460338865 C24.7346775,0.168876177 24.3750133,0 23.9954389,0 C23.6158645,0 23.2562003,0.168876177 23.0150319,0.460338865 L13.6549652,12.7270204 L1.47727848,10.2999357 C1.06026008,10.2174954 0.629865975,10.3535456 0.337270356,10.6602993 C0.0430495545,10.9668263 -0.0688746377,11.4038607 0.0420682523,11.8129855 L6.81731652,37.3486844 C7.55040272,40.0903235 10.0460141,41.9989978 12.8989599,42 L35.101518,42 C37.9558366,41.9984227 40.451899,40.0874446 41.1831614,37.3439114 L47.9584096,11.8082125 C48.0681777,11.4009785 47.9572979,10.966281 47.6656076,10.6602993 Z" id="形状" fill="#F8D250" fill-rule="nonzero"></path>
                <text id="会" font-family="STYuanti-SC-Regular, Yuanti SC" font-size="20" font-weight="normal" fill="#FFFFFF">
                    <tspan x="14" y="30">会</tspan>
                </text>
            </g>
        </g>
    </g>
</svg>