<?xml version="1.0" encoding="UTF-8"?>
<svg width="61px" height="61px" viewBox="0 0 61 61" version="1.1" xmlns="http://www.w3.org/2000/svg" xmlns:xlink="http://www.w3.org/1999/xlink">
    <title>icon_wo_xiaoxi</title>
    <defs>
        <path d="M30.0011713,17.0000011 C37.1688836,17.0000011 42.9999804,22.8322781 42.9999804,30.0000011 C43.0058252,33.357176 41.7075144,36.5853889 39.378891,39.0036867 L39.378891,39.0036867 L40.3834172,41.0541515 C40.6776198,41.4084657 40.7398418,41.9011653 40.5429626,42.3174974 C40.3485721,42.7329252 39.9302088,43.0000011 39.4686907,43.0000011 L39.4686907,43.0000011 L29.9987892,43.0000011 C22.831077,43.0000011 17,37.1677219 17,30.0000011 C17,22.8293143 22.831077,16.9970385 30.0011713,17.0000011 Z M27.8076933,27 C27.2692311,27 27,27.3333333 27,28 L27,28 L27,30 C27,30.6666667 27.2692311,31 27.8076933,31 C28.3461555,31 28.6153866,30.6666667 28.6153866,30 L28.6153866,30 L28.6153866,28 C28.6153866,27.3333333 28.3461555,27 27.8076933,27 Z M33.1923067,27 C32.6538445,27 32.3846134,27.3333333 32.3846134,28 L32.3846134,28 L32.3846134,30 C32.3846134,30.6666667 32.6538445,31 33.1923067,31 C33.7307689,31 34,30.6666667 34,30 L34,30 L34,28 C34,27.3333333 33.7307689,27 33.1923067,27 Z" id="path-1"></path>
        <filter x="-50.0%" y="-30.8%" width="200.0%" height="200.0%" filterUnits="objectBoundingBox" id="filter-2">
            <feOffset dx="0" dy="5" in="SourceAlpha" result="shadowOffsetOuter1"></feOffset>
            <feGaussianBlur stdDeviation="3.5" in="shadowOffsetOuter1" result="shadowBlurOuter1"></feGaussianBlur>
            <feColorMatrix values="0 0 0 0 0.630264534   0 0 0 0 0.97228827   0 0 0 0 0.60890294  0 0 0 0.328179633 0" type="matrix" in="shadowBlurOuter1"></feColorMatrix>
        </filter>
    </defs>
    <g id="页面-1" stroke="none" stroke-width="1" fill="none" fill-rule="evenodd">
        <g id="画板" transform="translate(-488.000000, -669.000000)">
            <g id="icon_wo_xiaoxi" transform="translate(488.000000, 669.000000)">
                <circle id="椭圆形" fill="#B1E877" opacity="0.100000001" cx="30.5" cy="30.5" r="30.5"></circle>
                <g id="形状结合" fill-rule="nonzero">
                    <use fill="black" fill-opacity="1" filter="url(#filter-2)" xlink:href="#path-1"></use>
                    <use fill="#B1E877" xlink:href="#path-1"></use>
                </g>
            </g>
        </g>
    </g>
</svg>