<?xml version="1.0" encoding="UTF-8"?>
<svg width="61px" height="61px" viewBox="0 0 61 61" version="1.1" xmlns="http://www.w3.org/2000/svg" xmlns:xlink="http://www.w3.org/1999/xlink">
    <title>icon_wo_huod</title>
    <defs>
        <path d="M42.6430222,21.1987 C42.3824931,20.9903121 42.0324584,20.9419228 41.7272742,21.0721057 C36.8042289,23.1696052 35.9252197,22.9642973 31.0489427,21.8214598 C30.5910688,21.7154019 30.1164878,21.6024516 29.598436,21.4826934 C27.9875098,21.1131504 26.3899382,21.034465 24.8558693,21.246609 C23.6192551,21.4211122 22.422732,21.780387 21.2964163,22.3175971 C19.3679763,23.2380224 18.2984587,24.374052 18.2550152,24.4219327 C18.0879186,24.6033002 18.0010041,24.8394128 18.0010041,25.0789011 C17.9943268,25.2157637 18.0210634,25.3594905 18.0778889,25.4929209 L27.9039477,48.4354173 C28.0543375,48.787856 28.3919107,49 28.7461633,49 C28.8698165,49 28.9934971,48.9760596 29.1138254,48.9213146 C29.5783767,48.7125746 29.7889718,48.1582601 29.5850814,47.6826592 L25.1265874,37.2669828 C25.2535929,36.8632312 25.6345821,35.8469881 26.5069141,34.8786257 C27.9841574,33.2362188 30.139872,32.4800286 32.9072027,32.6339955 C33.0776793,32.6442637 33.2481283,32.6476958 33.415225,32.6476958 C36.7039599,32.6476958 39.3877286,30.8512939 41.2058975,27.4261854 C42.5895766,24.8154442 42.9739181,22.1875707 42.9906251,22.0780806 C43.0374209,21.7427463 42.9070905,21.4074119 42.6430222,21.1987 Z" id="path-1"></path>
        <filter x="-52.0%" y="-28.6%" width="204.0%" height="192.9%" filterUnits="objectBoundingBox" id="filter-2">
            <feOffset dx="0" dy="5" in="SourceAlpha" result="shadowOffsetOuter1"></feOffset>
            <feGaussianBlur stdDeviation="3.5" in="shadowOffsetOuter1" result="shadowBlurOuter1"></feGaussianBlur>
            <feColorMatrix values="0 0 0 0 0.392156863   0 0 0 0 0.878431373   0 0 0 0 0.788235294  0 0 0 0.442799388 0" type="matrix" in="shadowBlurOuter1"></feColorMatrix>
        </filter>
    </defs>
    <g id="页面-1" stroke="none" stroke-width="1" fill="none" fill-rule="evenodd">
        <g id="画板" transform="translate(-296.000000, -669.000000)">
            <g id="icon_wo_huod" transform="translate(296.000000, 669.000000)">
                <circle id="椭圆形" fill="#BCFFF1" opacity="0.300000012" cx="30.5" cy="30.5" r="30.5"></circle>
                <g id="形状" fill-rule="nonzero">
                    <use fill="black" fill-opacity="1" filter="url(#filter-2)" xlink:href="#path-1"></use>
                    <use fill="#64E0C9" xlink:href="#path-1"></use>
                </g>
            </g>
        </g>
    </g>
</svg>