<?xml version="1.0" standalone="no"?><!DOCTYPE svg PUBLIC "-//W3C//DTD SVG 1.1//EN" "http://www.w3.org/Graphics/SVG/1.1/DTD/svg11.dtd"><svg t="1608116265732" class="icon" viewBox="0 0 1024 1024" version="1.1" xmlns="http://www.w3.org/2000/svg" p-id="3982" xmlns:xlink="http://www.w3.org/1999/xlink" width="200" height="200"><defs><style type="text/css"></style></defs><path d="M252.886688 479.729909a72.577141 72.577141 0 0 1-68.154688-97.379027l69.462289-190.877776a72.545249 72.545249 0 1 1 136.341268 49.614402l-69.462288 190.888406a72.587772 72.587772 0 0 1-68.186581 47.753995zM353.189212 840.489437A72.609034 72.609034 0 0 1 285.023893 743.099779l148.832574-409.034436a72.545249 72.545249 0 1 1 136.341269 49.625032l-148.832574 409.034436a72.577141 72.577141 0 0 1-68.17595 47.764626zM518.010657 1024a72.609034 72.609034 0 0 1-68.165319-97.379027l148.832574-409.034436a72.545249 72.545249 0 0 1 136.341268 49.625032l-148.832574 409.023806a72.598403 72.598403 0 0 1-68.175949 47.764625zM576.501858 226.937782a72.609034 72.609034 0 0 1-68.154688-97.379027l29.766515-81.804761A72.545249 72.545249 0 0 1 674.454953 97.379027l-29.766514 81.857915a72.566511 72.566511 0 0 1-68.186581 47.70084zM741.323303 410.448346a72.587772 72.587772 0 0 1-68.165319-97.379027l29.766515-81.857916a72.545249 72.545249 0 0 1 136.351899 49.614402l-29.766515 81.857915a72.587772 72.587772 0 0 1-68.18658 47.764626z" fill="#E0A234" p-id="3983"></path></svg>