<?xml version="1.0" standalone="no"?><!DOCTYPE svg PUBLIC "-//W3C//DTD SVG 1.1//EN" "http://www.w3.org/Graphics/SVG/1.1/DTD/svg11.dtd"><svg t="1598939928283" class="icon" viewBox="0 0 1024 1024" version="1.1" xmlns="http://www.w3.org/2000/svg" p-id="15691" xmlns:xlink="http://www.w3.org/1999/xlink" width="673" height="673"><defs><style type="text/css"></style></defs><path d="M511.752981 145.765125m-145.765124 0a145.765125 145.765125 0 1 0 291.530249 0 145.765125 145.765125 0 1 0-291.530249 0Z" p-id="15692"></path><path d="M650.958675 364.412811H372.547288a72.882562 72.882562 0 0 0-72.882563 78.713168l26.966548 325.056227a36.441281 36.441281 0 0 0 39.356584 33.525979h26.966548l9.474733 218.647687s0 3.644128 4.372954 3.644128h210.630605V1020.355872l16.034163-218.647687h24.051246a36.441281 36.441281 0 0 0 36.441281-33.525979l26.966548-325.056227A72.882562 72.882562 0 0 0 650.958675 364.412811z" p-id="15693"></path></svg>