<?xml version="1.0" encoding="UTF-8"?>
<svg width="40px" height="40px" viewBox="0 0 40 40" version="1.1" xmlns="http://www.w3.org/2000/svg" xmlns:xlink="http://www.w3.org/1999/xlink">
    <title>menu_icon_shequ</title>
    <g id="页面-1" stroke="none" stroke-width="1" fill="none" fill-rule="evenodd">
        <g id="画板" transform="translate(-379.000000, -312.000000)">
            <g id="menu_icon_meiri" transform="translate(377.000000, 312.000000)">
                <g id="编组-8" transform="translate(2.000000, 0.000000)">
                    <g id="shequ-2" transform="translate(1.000000, 2.000000)"></g>
                    <path d="M32.5894359,7.44121999 L32.5894359,7.42087 C29.2375724,4.06978001 24.6136362,2 19.5053651,2 C14.397094,2 9.77315771,4.06978001 6.42129422,7.42087 L6.34063341,7.50153 C3.04945051,10.85373 1,15.43692 1,20.50481 C1,22.49356 1.31302312,24.43199 1.90835907,26.22908 C2.46232387,27.9311259 3.26155565,29.5432844 4.28082281,31.01466 L4.28082281,37.57698 C4.28082281,38.35398 4.92684928,39 5.71458716,39 L19.504995,39 C24.6132661,39 29.2372024,36.92023 32.5683457,33.58875 L32.5886959,33.58875 C35.9405594,30.23729 38,25.6134 38,20.50481 C38.00037,15.39696 35.9412994,10.77307 32.5894359,7.44121999 Z M30.9224201,30.9926537 L30.4481207,31.4673019 C27.5249019,34.390172 23.6384367,36 19.5047081,36 L7.09236236,36 L7.09236236,29.8041152 L6.74605407,29.3057521 C5.89056408,28.071726 5.22058542,26.7189613 4.75748404,25.2905984 C4.25493591,23.773189 4,22.1630123 4,20.5047081 C4,16.4180607 5.59064676,12.5476381 8.46608689,9.61849047 L8.54211431,9.54246306 C11.4716107,6.61331548 15.364702,5 19.5047081,5 C23.4086107,5 27.0928011,6.43440695 29.9567325,9.05421369 L30.4711382,9.5658293 C33.391567,12.4684719 35,16.3531933 35,20.5047081 C35,24.4309307 33.5568743,28.1297686 30.9224201,30.9926537 L30.9224201,30.9926537 Z" id="形状" fill="#999999" fill-rule="nonzero"></path>
                    <path d="M15.7013909,26.2722366 C19.8035238,28.1004019 22.1786462,26.0654704 22.8635917,24.7473676 C23.1639258,24.1653523 22.9539846,23.4614993 22.3747508,23.136135 C21.8016469,22.832524 21.0860406,23.0531034 20.7857066,23.6351187 C20.778045,23.6491253 19.782038,25.4699769 16.6498902,24.0768057 C16.0538015,23.8152144 15.3642458,24.0870472 15.1052857,24.6923028 C14.8478574,25.2617986 15.0807834,25.923632 15.6048519,26.2180092 L15.7013909,26.2722366 Z" id="路径" fill="#999999" fill-rule="nonzero" transform="translate(19.000000, 25.000000) scale(-1, 1) rotate(5.000000) translate(-19.000000, -25.000000) "></path>
                </g>
            </g>
        </g>
    </g>
</svg>