<?xml version="1.0" encoding="UTF-8"?>
<svg width="40px" height="40px" viewBox="0 0 40 40" version="1.1" xmlns="http://www.w3.org/2000/svg" xmlns:xlink="http://www.w3.org/1999/xlink">
    <title>menu_icon_wode</title>
    <g id="页面-1" stroke="none" stroke-width="1" fill="none" fill-rule="evenodd">
        <g id="画板" transform="translate(-468.000000, -312.000000)" fill="#999999">
            <g id="menu_icon_wode" transform="translate(466.000000, 312.000000)">
                <g id="编组-9" transform="translate(2.000000, 0.000000)">
                    <path d="M35.5,36 C36.3284271,36 37,36.6715729 37,37.5 C37,38.3284271 36.3284271,39 35.5,39 L4.5,39 C3.67157288,39 3,38.3284271 3,37.5 C3,36.6715729 3.67157288,36 4.5,36 L35.5,36 Z M20,1 C27.7319865,1 34,7.2680135 34,15 C34,22.7319865 27.7319865,29 20,29 C12.2680135,29 6,22.7319865 6,15 C6,7.2680135 12.2680135,1 20,1 Z M20,4 C13.9248678,4 9,8.92486775 9,15 C9,21.0751322 13.9248678,26 20,26 C26.0751322,26 31,21.0751322 31,15 C31,8.92486775 26.0751322,4 20,4 Z" id="形状结合"></path>
                </g>
            </g>
        </g>
    </g>
</svg>