<?xml version="1.0" encoding="UTF-8"?>
<svg width="40px" height="40px" viewBox="0 0 40 40" version="1.1" xmlns="http://www.w3.org/2000/svg" xmlns:xlink="http://www.w3.org/1999/xlink">
    <title>menu_icon_home</title>
    <g id="页面-1" stroke="none" stroke-width="1" fill="none" fill-rule="evenodd">
        <g id="画板" transform="translate(-289.000000, -312.000000)" fill="#999999">
            <g id="menu_icon_gong" transform="translate(287.000000, 312.000000)">
                <g id="menu_icon_home" transform="translate(2.000000, 0.000000)">
                    <path d="M7.5,34 C6.67157288,34 6,33.3284271 6,32.5 C6,31.6715729 6.67157288,31 7.5,31 L31,31 L31,7.5 C31,6.67157288 31.6715729,6 32.5,6 C33.3284271,6 34,6.67157288 34,7.5 L34,32.5 L34,32.5 C34,33.2796961 33.4051119,33.9204487 32.64446,33.9931334 L32.5,34 L32.5,34 L7.5,34 Z" id="形状结合" transform="translate(20.000000, 20.000000) scale(1, -1) rotate(45.000000) translate(-20.000000, -20.000000) "></path>
                    <path d="M19.5,14 C26.4035594,14 32,19.5964406 32,26.5 C32,33.4035594 26.4035594,39 19.5,39 C12.5964406,39 7,33.4035594 7,26.5 C7,19.5964406 12.5964406,14 19.5,14 Z M19.5,17 C14.2532949,17 10,21.2532949 10,26.5 C10,31.7467051 14.2532949,36 19.5,36 C24.7467051,36 29,31.7467051 29,26.5 C29,21.2532949 24.7467051,17 19.5,17 Z" id="形状结合"></path>
                </g>
            </g>
        </g>
    </g>
</svg>