<?xml version="1.0" standalone="no"?><!DOCTYPE svg PUBLIC "-//W3C//DTD SVG 1.1//EN" "http://www.w3.org/Graphics/SVG/1.1/DTD/svg11.dtd"><svg t="1600251852140" class="icon" viewBox="0 0 1024 1024" version="1.1" xmlns="http://www.w3.org/2000/svg" p-id="2584" xmlns:xlink="http://www.w3.org/1999/xlink" width="128" height="128"><defs><style type="text/css"></style></defs><path d="M494.06498133 811.565056C321.46500267 811.565056 181.0432 671.14325333 181.0432 498.54327467S321.46500267 185.52149333 494.06498133 185.52149333s313.02178133 140.42180267 313.02178134 313.02178134S666.66496 811.565056 494.06498133 811.565056z m0-565.04046933c-138.969088 0-252.02961067 113.06052267-252.02961066 252.02961066s113.06052267 252.02961067 252.02961066 252.02961067 252.02961067-113.06052267 252.02961067-252.02961067-113.06052267-252.02961067-252.02961067-252.02961066z" fill="#174C9D" p-id="2585"></path><path d="M745.19893333 838.47850667c-53.90336 0-97.75786667-43.85450667-97.75786666-97.76878934s43.85450667-97.76878933 97.75786666-97.76878933 97.75786667 43.85450667 97.75786667 97.76878933-43.85450667 97.76878933-97.75786667 97.76878934z m0-134.53448534c-20.27246933 0-36.77661867 16.49322667-36.77661866 36.765696s16.49322667 36.765696 36.77661866 36.765696 36.77661867-16.49322667 36.77661867-36.765696-16.50414933-36.765696-36.77661867-36.765696z" fill="#174C9D" p-id="2586"></path><path d="M357.28042667 496.304128m-44.84846934 0a44.84846933 44.84846933 0 1 0 89.69693867 0 44.84846933 44.84846933 0 1 0-89.69693867 0Z" fill="#174C9D" p-id="2587"></path><path d="M496.304128 500.793344m-44.84846933 0a44.84846933 44.84846933 0 1 0 89.69693866 0 44.84846933 44.84846933 0 1 0-89.69693866 0Z" fill="#174C9D" p-id="2588"></path><path d="M630.83861333 500.793344m-44.84846933 0a44.84846933 44.84846933 0 1 0 89.69693867 0 44.84846933 44.84846933 0 1 0-89.69693867 0Z" fill="#174C9D" p-id="2589"></path></svg>