<?xml version="1.0" standalone="no"?><!DOCTYPE svg PUBLIC "-//W3C//DTD SVG 1.1//EN" "http://www.w3.org/Graphics/SVG/1.1/DTD/svg11.dtd"><svg t="1600254926800" class="icon" viewBox="0 0 1024 1024" version="1.1" xmlns="http://www.w3.org/2000/svg" p-id="9276" xmlns:xlink="http://www.w3.org/1999/xlink" width="128" height="128"><defs><style type="text/css"></style></defs><path d="M690.308458 0h-356.616916C252.179104 0 191.044776 61.134328 191.044776 142.646766v738.706468c0 76.41791 61.134328 142.646766 142.646766 142.646766h361.711443c76.41791 0 142.646766-61.134328 142.646766-142.646766V142.646766C832.955224 61.134328 771.820896 0 690.308458 0zM512 957.771144c-20.378109 0-40.756219-15.283582-40.756219-40.756219s15.283582-40.756219 40.756219-40.756219c20.378109 0 40.756219 15.283582 40.756219 40.756219 0 20.378109-20.378109 40.756219-40.756219 40.756219z m244.537313-127.363184H267.462687V188.497512h483.980099v641.910448z" p-id="9277"></path></svg>