<?xml version="1.0" standalone="no"?><!DOCTYPE svg PUBLIC "-//W3C//DTD SVG 1.1//EN" "http://www.w3.org/Graphics/SVG/1.1/DTD/svg11.dtd"><svg t="1600251432433" class="icon" viewBox="0 0 1024 1024" version="1.1" xmlns="http://www.w3.org/2000/svg" p-id="2584" xmlns:xlink="http://www.w3.org/1999/xlink" width="128" height="128"><defs><style type="text/css"></style></defs><path d="M852.44928 362.73151998c-0.08192-10.81344-7.10656-20.80768-17.5616-24.20736-10.45504-3.7888-21.63712-0.23552-28.52864 8.31488-3.82976 4.6592-93.42976 115.4048-259.15392 9.19552-104.3968-66.85696-260.80256-59.55584-333.62944-33.536-16.18944 5.5296-28.84608 17.2032-36.07552 32.70656s-7.87456 32.89088-1.96608 49.08032l98.8672 265.07264L385.4336 959.83615998a25.84576 25.84576 0 0 0 24.07424 16.4352c3.09248-0.02048 6.17472-0.43008 8.87808-1.21856a25.88672 25.88672 0 0 0 14.82752-33.3312L337.54112 691.30239998c35.39968-19.95776 121.64096-59.97568 213.68832-45.18912 84.31616 13.69088 153.35424-1.87392 205.568-46.2848 95.61088-81.80736 95.6928-230.92224 95.65184-237.09696zM724.06016 559.89247998c-39.92576 34.28352-95.08864 45.88544-163.93216 34.78528-102.49216-16.65024-196.07552 23.42912-240.72192 47.3088l-95.32416-256.21504a11.81696 11.81696 0 0 1 0.31744-9.27744 12.3904 12.3904 0 0 1 6.52288-5.8368c25.81504-9.07264 64.02048-15.13472 105.73824-15.44192 62.19776-0.45056 132.1984 11.79648 183.41888 43.49952 126.5152 80.98816 220.9792 54.81472 275.22048 22.36416-8.18176 43.33568-27.46368 101.41696-71.23968 138.81344z" fill="#FF5629" p-id="2585"></path></svg>