<?xml version="1.0" standalone="no"?><!DOCTYPE svg PUBLIC "-//W3C//DTD SVG 1.1//EN" "http://www.w3.org/Graphics/SVG/1.1/DTD/svg11.dtd"><svg t="1600169875081" class="icon" viewBox="0 0 1024 1024" version="1.1" xmlns="http://www.w3.org/2000/svg" p-id="5918" xmlns:xlink="http://www.w3.org/1999/xlink" width="128" height="128"><defs><style type="text/css"></style></defs><path d="M511.21152 663.28576c-163.18464 0-295.4752-132.29056-295.4752-295.4752S348.02688 72.33536 511.21152 72.33536s295.4752 132.29056 295.4752 295.4752c-0.21504 163.10272-132.37248 295.26016-295.4752 295.4752z m0-533.74976c-130.72384 0-236.6976 105.97376-236.6976 236.6976S380.48768 602.9312 511.21152 602.9312s236.6976-105.97376 236.6976-236.6976c0.21504-130.72384-105.5744-236.87168-236.30848-237.09696h-0.39936v0.39936z" p-id="5919"></path><path d="M131.30752 951.66464h-2.7648a28.80512 28.80512 0 0 1-26.04032-31.16032 414.23872 414.23872 0 0 1 256.8192-352.68608 28.80512 28.80512 0 0 1 23.27552 52.46976 355.072 355.072 0 0 0-222.88384 305.34656 28.79488 28.79488 0 0 1-28.40576 26.03008z" p-id="5920"></path><path d="M891.50464 951.66464a28.79488 28.79488 0 0 1-28.40576-26.04032 355.05152 355.05152 0 0 0-134.13376-247.74656A29.17376 29.17376 0 1 1 768.41984 634.88a406.33344 406.33344 0 0 1 153.06752 285.61408 28.80512 28.80512 0 0 1-26.04032 31.17056h-3.9424z" p-id="5921"></path><path d="M387.54304 310.54848a33.73056 33.73056 0 1 0 67.47136 0 33.73056 33.73056 0 0 0-67.47136 0zM567.42912 310.54848a33.73056 33.73056 0 1 0 67.47136 0 33.73056 33.73056 0 0 0-67.47136 0z" p-id="5922"></path></svg>