<?xml version="1.0" standalone="no"?><!DOCTYPE svg PUBLIC "-//W3C//DTD SVG 1.1//EN" "http://www.w3.org/Graphics/SVG/1.1/DTD/svg11.dtd"><svg t="1600171150544" class="icon" viewBox="0 0 1024 1024" version="1.1" xmlns="http://www.w3.org/2000/svg" p-id="6203" xmlns:xlink="http://www.w3.org/1999/xlink" width="128" height="128"><defs><style type="text/css"></style></defs><path d="M490.00448 446.02368c12.31872 0 21.99552-9.6768 21.99552-21.99552s-9.6768-21.99552-21.99552-21.99552h-87.97184a21.78048 21.78048 0 0 0-21.99552 21.99552v175.94368c0 12.31872 9.6768 21.99552 21.99552 21.99552h87.97184A21.78048 21.78048 0 0 0 512 599.97184a21.78048 21.78048 0 0 0-21.99552-21.99552h-65.97632v-43.9808h65.97632C502.3232 533.99552 512 524.31872 512 512s-9.6768-21.99552-21.99552-21.99552h-65.97632v-43.9808h65.97632zM314.0608 403.3536c-12.31872 0-21.99552 9.6768-21.99552 21.5552v109.08672l-92.3648-121.83552a21.48352 21.48352 0 0 0-24.6272-7.91552c-8.79616 3.08224-14.9504 11.43808-14.9504 20.67456v175.06304c0 11.8784 9.6768 21.99552 21.99552 21.99552a22.05696 22.05696 0 0 0 21.99552-21.99552V490.4448l92.3648 122.27584c4.4032 5.71392 10.99776 9.23648 17.59232 9.23648 2.2016 0 4.84352-0.44032 7.03488-1.32096 8.79616-3.08224 14.9504-11.43808 14.9504-20.67456V424.9088c0-11.8784-9.6768-21.5552-21.99552-21.5552z m593.80736-133.2736H116.13184c-48.384 0-87.97184 39.58784-87.97184 87.97184v307.89632c0 48.384 39.58784 87.97184 87.97184 87.97184h791.73632c48.384 0 87.97184-39.58784 87.97184-87.97184V358.05184c0-48.384-39.58784-87.97184-87.97184-87.97184z m43.99104 395.86816a44.10368 44.10368 0 0 1-43.9808 43.9808H116.13184a44.11392 44.11392 0 0 1-43.9808-43.9808V358.05184a44.11392 44.11392 0 0 1 43.9808-43.9808h791.73632a44.10368 44.10368 0 0 1 43.9808 43.9808v307.89632zM844.09344 402.03264c-10.99776-3.96288-23.7568 1.32096-27.70944 12.75904l-44.86144 118.76352-44.86144-118.76352c-6.15424-16.71168-34.304-16.71168-40.46848 0L641.3312 533.5552l-44.86144-118.76352c-3.96288-11.43808-16.27136-17.152-27.70944-12.75904a21.66784 21.66784 0 0 0-12.75904 27.70944l65.09568 172.42112c6.15424 16.71168 34.304 16.71168 40.46848 0l44.86144-118.76352 44.86144 118.76352a21.9136 21.9136 0 0 0 20.23424 14.08c9.23648 0 17.152-5.71392 20.23424-14.08l65.09568-172.42112a21.00224 21.00224 0 0 0-12.75904-27.70944z" fill="#FFA60B" p-id="6204"></path></svg>