<?xml version="1.0" standalone="no"?><!DOCTYPE svg PUBLIC "-//W3C//DTD SVG 1.1//EN" "http://www.w3.org/Graphics/SVG/1.1/DTD/svg11.dtd"><svg t="1600497166883" class="icon" viewBox="0 0 1024 1024" version="1.1" xmlns="http://www.w3.org/2000/svg" p-id="2705" xmlns:xlink="http://www.w3.org/1999/xlink" width="128" height="128"><defs><style type="text/css"></style></defs><path d="M251.7302843 356.24115517H58.0193056c-18.94292674 0-34.62485981-15.69518913-34.62485981-34.62485981s15.69518913-34.62485981 34.62485981-34.62485981h193.7109787c18.94292674 0 34.62485981 15.69518913 34.6248598 34.62485981s-15.68193307 34.62485981-34.6248598 34.62485981z" fill="#FF5629" p-id="2706"></path><path d="M58.0193056 571.59929926a34.8634691 34.8634691 0 0 1-34.62485981-34.6248598V321.60303929a34.8634691 34.8634691 0 0 1 34.62485981-34.62485982 34.8634691 34.8634691 0 0 1 34.62485981 34.62485982v215.3581441c0 18.94292674-15.15169019 34.62485981-34.09461693 34.62485981 0.01325607 0.55675502-0.53024288 0.55675502-0.53024288 0.01325606z m548.13857312 46.52881238a34.8634691 34.8634691 0 0 1-34.62485981-34.62485981V149.53922599c0-2.16073972-1.61724077-3.79123657-3.24773762-3.79123654h-0.54349894c-0.54349894 0-1.0869979 0-1.61724077 0.54349894s-1.10025397 0.54349894-1.64375293 1.08699789L271.74695286 350.28917887c-16.23868809 10.81695468-37.87259743 5.95197628-48.70280817-9.74321284a34.73090838 34.73090838 0 0 1 8.11271601-47.07231132l294.89457551-205.07143231c1.0869979-0.54349894 1.61724077-1.0869979 3.24773762-1.61724078a73.5049187 73.5049187 0 0 1 38.41609637-10.81695467c40.04659322 0 73.05421225 33.00761904 73.05421224 73.05421225v434.50752478c1.0869979 18.3994278-13.52119333 34.09461693-31.92062113 35.16835875-1.07374182-0.57001109-1.61724077-0.57001109-2.69098259-0.57001109z m-354.42759442 117.96578385H58.0193056c-18.94292674 0-34.62485981-15.69518913-34.62485981-34.6248598s15.69518913-34.62485981 34.62485981-34.62485982h193.7109787a34.8634691 34.8634691 0 0 1 34.6248598 34.62485982 34.51881123 34.51881123 0 0 1-34.6248598 34.6248598z" fill="#FF5629" p-id="2707"></path><path d="M58.0193056 736.09389549a34.8634691 34.8634691 0 0 1-34.62485981-34.6248598V486.0976355a34.8634691 34.8634691 0 0 1 34.62485981-34.6248598 34.8634691 34.8634691 0 0 1 34.62485981 34.6248598v215.35814412a34.87672517 34.87672517 0 0 1-34.62485981 34.63811587z m510.25271963 212.11040649a77.01777774 77.01777774 0 0 1-38.95959532-10.81695467c-1.0869979-0.54349894-1.61724077-1.0869979-3.24773763-1.61724077l-294.8945755-205.07143231c-15.69518913-11.36045362-18.3994278-33.55111798-7.03897418-48.70280817 10.81695468-14.60819124 31.92062113-18.3994278 47.07231132-8.11271601l292.73383579 203.99769049c0.54349894 0.54349894 1.0869979 0.54349894 1.61724076 1.08699789 0.54349894 0.54349894 1.0869979 0.54349894 1.61724078 0.54349897a3.71170014 3.71170014 0 0 0 3.79123657-3.79123657v-434.53403693c0-18.94292674 15.69518913-34.62485981 34.62485981-34.6248598s34.62485981 15.69518913 34.6248598 34.6248598v433.96402583c0.54349894 40.04659322-31.39037827 73.05421225-71.42371541 73.58445513 0.57001109-0.53024288 0.02651215-0.53024288-0.51698679-0.53024288z" fill="#FF5629" p-id="2708"></path><path d="M672.15986071 676.0306337a34.8634691 34.8634691 0 0 1-34.6248598-34.6248598c0-16.76893095 11.90395257-30.84687931 28.67288352-34.09461694 52.48078865-9.19971391 87.66240348-58.97626388 78.46268959-111.47030861a96.67653237 96.67653237 0 0 0-78.46268959-78.46268959c-18.94292674-2.70423867-31.92062113-20.56016752-29.21638247-39.50309426 2.70423867-18.94292674 20.56016752-31.92062113 39.50309426-29.21638247 0.54349894 0 1.0869979 0 1.61724077 0.54349895 90.36664215 15.69518913 150.97340289 101.72709578 135.27821376 192.09373792-11.90395257 69.26297568-66.01523807 123.37426119-134.73471481 135.27821376-2.16073972-0.54349894-4.32147945-0.54349894-6.49547523-0.54349896z m293.82083369-129.86973641h-104.97483339c-18.94292674 0-34.62485981-15.69518913-34.62485979-34.6248598s15.69518913-34.62485981 34.62485979-34.62485982h104.97483339c18.94292674 0 34.62485981 15.69518913 34.62485981 34.62485982s-15.1384341 34.62485981-34.62485981 34.6248598zM828.54174093 213.92396722a34.42601872 34.42601872 0 0 1-24.35140408-10.28671179 34.96951769 34.96951769 0 0 1 0-49.24630711l71.96721435-71.96721436c14.06469228-12.99095045 36.25535664-12.44745151 49.24630711 1.61724077a35.02254196 35.02254196 0 0 1 0 47.61581028l-71.96721435 71.96721435a35.59255306 35.59255306 0 0 1-24.89490303 10.29996786z m71.96721436 736.98457342a34.42601872 34.42601872 0 0 1-24.35140409-10.28671179l-71.96721435-71.96721434c-12.99095045-14.06469228-12.44745151-36.25535664 1.61724077-49.24630712a35.02254196 35.02254196 0 0 1 47.61581026 0l71.96721436 71.96721435a34.96951769 34.96951769 0 0 1 0 49.24630711 34.30671408 34.30671408 0 0 1-24.88164695 10.28671179z" fill="#FF5629" p-id="2709"></path><path d="M356.91721484 344.29743438l120.6700225-54.11128551a60.50071216 60.50071216 0 0 1 60.60676073 60.60676074v319.78947855a60.50071216 60.50071216 0 0 1-60.60676073 60.60676073l-120.6700225-54.1112855a60.50071216 60.50071216 0 0 1-60.60676074-60.60676073V404.89093904a60.50071216 60.50071216 0 0 1 60.60676074-60.59350466z" fill="#FF5629" p-id="2710"></path></svg>