<?xml version="1.0" standalone="no"?><!DOCTYPE svg PUBLIC "-//W3C//DTD SVG 1.1//EN" "http://www.w3.org/Graphics/SVG/1.1/DTD/svg11.dtd"><svg t="1601366125420" class="icon" viewBox="0 0 1024 1024" version="1.1" xmlns="http://www.w3.org/2000/svg" p-id="2705" xmlns:xlink="http://www.w3.org/1999/xlink" width="128" height="128"><defs><style type="text/css"></style></defs><path d="M434.7904 474.07104c0-78.72512-64.4096-143.13472-143.13472-143.13472s-143.13472 64.4096-143.13472 143.13472c0 37.21216 14.31552 70.85056 37.21216 95.8976C116.3264 612.90496 70.52288 687.33952 64.79872 769.6384c-0.7168 13.59872 9.30816 25.76384 23.61344 26.48064h1.4336c12.88192 0 24.33024-10.01472 25.04704-23.61344a205.44512 205.44512 0 0 1 114.50368-170.33216 136.57088 136.57088 0 0 0 61.5424 14.31552c79.44192 0.7168 143.85152-63.6928 143.85152-142.41792z m-143.13472 93.0304c-51.52768 0-93.04064-41.51296-93.04064-93.04064s41.51296-93.04064 93.04064-93.04064 93.04064 41.51296 93.04064 93.04064-41.51296 93.04064-93.04064 93.04064z" fill="#00C2EC" opacity=".5" p-id="2706"></path><path d="M958.68928 787.52768c-21.12512-102.6048-89.67168-186.2144-179.29216-230.54336a25.2928 25.2928 0 0 0-6.10304-4.18816 329.9328 329.9328 0 0 0-44.36992-16.45568c50.09408-31.488 83.73248-87.31648 83.73248-150.99904 0-98.7648-80.14848-178.91328-178.91328-178.91328-0.23552 0-0.4608 0.03072-0.69632 0.03072-0.23552 0-0.4608-0.03072-0.69632-0.03072-98.7648 0-178.91328 80.15872-178.91328 178.91328 0 63.6928 33.6384 119.51104 83.73248 150.99904a329.9328 329.9328 0 0 0-44.36992 16.45568 25.2928 25.2928 0 0 0-6.10304 4.18816c-89.62048 44.32896-158.16704 127.93856-179.29216 230.54336-2.85696 13.59872 5.72416 26.48064 19.32288 29.3376 1.4336 0.7168 3.57376 0.7168 5.00736 0.7168 11.44832 0 22.17984-7.87456 24.33024-20.03968C382.39232 671.46752 492.55424 578.24256 620.96384 572.416c1.10592-0.04096 2.21184-0.06144 3.31776-0.08192 2.9184-0.1024 5.82656-0.18432 8.76544-0.19456 2.92864 0.01024 5.84704 0.09216 8.76544 0.19456 1.10592 0.03072 2.21184 0.04096 3.31776 0.08192 128.41984 5.8368 238.57152 99.05152 264.89856 225.13664 2.1504 12.16512 12.88192 20.03968 24.33024 20.03968 1.4336 0 3.584 0 5.00736-0.7168 13.59872-2.8672 22.19008-15.74912 19.32288-29.34784zM504.92416 385.3312c0-70.61504 57.58976-128.39936 128.12288-128.77824 70.53312 0.37888 128.12288 58.1632 128.12288 128.77824 0 70.61504-57.58976 128.39936-128.12288 128.78848-70.53312-0.38912-128.12288-58.17344-128.12288-128.78848z" fill="#00C2EC" p-id="2707"></path><path d="M632.54528 474.55232a80.64 80.64 0 0 1-75.50976-52.80768 15.36 15.36 0 1 1 28.86656-10.53696c7.1168 19.51744 25.86624 32.62464 46.65344 32.62464s39.5264-13.1072 46.65344-32.62464a15.38048 15.38048 0 0 1 28.86656 10.53696 80.6912 80.6912 0 0 1-75.53024 52.80768z" fill="#00C2EC" opacity=".5" p-id="2708"></path></svg>