<?xml version="1.0" standalone="no"?><!DOCTYPE svg PUBLIC "-//W3C//DTD SVG 1.1//EN" "http://www.w3.org/Graphics/SVG/1.1/DTD/svg11.dtd"><svg t="1598890962585" class="icon" viewBox="0 0 1024 1024" version="1.1" xmlns="http://www.w3.org/2000/svg" p-id="3282" xmlns:xlink="http://www.w3.org/1999/xlink" width="128" height="128"><defs><style type="text/css"></style></defs><path d="M234.41187483 992.49378741a133.62303423 133.62303423 0 0 1-133.43998895-133.43998897L100.97188588 164.94620156A133.62303423 133.62303423 0 0 1 234.41187483 31.50621259l555.26777297 0a133.62303423 133.62303423 0 0 1 133.43998897 133.43998897l0 694.01607427a133.62303423 133.62303423 0 0 1-133.43998897 133.43998895z m0-902.23004882a74.86550821 74.86550821 0 0 0-74.7739856 74.77398558l0 694.01607427a74.86550821 74.86550821 0 0 0 74.7739856 74.77398558l555.26777297 0a74.86550821 74.86550821 0 0 0 74.7739856-74.77398558L864.4536334 164.94620156a74.86550821 74.86550821 0 0 0-74.7739856-74.77398558z" p-id="3283"></path><path d="M292.34569718 541.37876299a29.37876299 29.37876299 0 1 1 0-58.66600335l439.30860564 0a29.37876299 29.37876299 0 1 1 0 58.66600335zM292.34569718 680.12706427a29.37876299 29.37876299 0 1 1 0-58.29991287l299.73660072 0a29.37876299 29.37876299 0 1 1 0 58.75752601zM292.34569718 402.1728486a29.37876299 29.37876299 0 1 1 0-58.75752601l439.30860564 0a29.37876299 29.37876299 0 1 1 0 58.75752601z" p-id="3284"></path></svg>