<?xml version="1.0" standalone="no"?><!DOCTYPE svg PUBLIC "-//W3C//DTD SVG 1.1//EN" "http://www.w3.org/Graphics/SVG/1.1/DTD/svg11.dtd"><svg t="1600251785636" class="icon" viewBox="0 0 1024 1024" version="1.1" xmlns="http://www.w3.org/2000/svg" p-id="2584" xmlns:xlink="http://www.w3.org/1999/xlink" width="128" height="128"><defs><style type="text/css"></style></defs><path d="M669.745152 722.32686933H489.47746133a30.10286933 30.10286933 0 0 1-30.05917866-30.05917866 30.10286933 30.10286933 0 0 1 30.05917866-30.05917867h180.26769067a30.10286933 30.10286933 0 0 1 30.05917867 30.05917867 30.10286933 30.10286933 0 0 1-30.05917867 30.05917866zM354.254848 692.26769067a30.05917867 30.05917867 0 1 0 60.11835733 0 30.05917867 30.05917867 0 0 0-60.11835733 0z" fill="#FFD300" p-id="2585"></path><path d="M677.23810133 857.54948267H346.67451733c-91.09504 0-165.281792-74.11029333-165.281792-165.281792s74.186752-165.281792 165.36917334-165.281792h330.563584c91.09504 0 165.281792 74.11029333 165.281792 165.281792s-74.186752 165.281792-165.36917334 165.281792z m-330.47620266-270.44522667c-57.95566933 0-105.16343467 47.20776533-105.16343467 105.16343467s47.20776533 105.16343467 105.16343467 105.16343466h330.563584c57.95566933 0 105.16343467-47.20776533 105.16343466-105.16343466s-47.20776533-105.16343467-105.16343466-105.16343467H346.76189867z m165.281792-90.09015467c-91.09504 0-165.281792-74.11029333-165.281792-165.281792s74.11029333-165.281792 165.281792-165.281792 165.281792 74.11029333 165.281792 165.281792-74.186752 165.281792-165.281792 165.281792z m0-270.44522666c-57.95566933 0-105.16343467 47.20776533-105.16343467 105.16343466s47.20776533 105.16343467 105.16343467 105.16343467 105.16343467-47.20776533 105.16343466-105.16343467-47.20776533-105.16343467-105.16343466-105.16343466z" fill="#FFD300" p-id="2586"></path></svg>