<?xml version="1.0" standalone="no"?><!DOCTYPE svg PUBLIC "-//W3C//DTD SVG 1.1//EN" "http://www.w3.org/Graphics/SVG/1.1/DTD/svg11.dtd"><svg t="1600169287496" class="icon" viewBox="0 0 1024 1024" version="1.1" xmlns="http://www.w3.org/2000/svg" p-id="2841" xmlns:xlink="http://www.w3.org/1999/xlink" width="128" height="128"><defs><style type="text/css"></style></defs><path d="M208.34304 868.79232h-23.97184c-53.94432 0-99.8912-43.95008-99.8912-99.8912V499.21024c0-53.94432 43.95008-99.8912 99.8912-99.8912h25.96864c53.94432 0 99.8912 43.95008 99.8912 99.8912v269.70112c-2.00704 53.93408-45.95712 99.88096-101.888 99.88096z m-23.97184-407.54176a40.07936 40.07936 0 0 0-39.95648 39.95648v269.70112a40.07936 40.07936 0 0 0 39.95648 39.95648h25.96864a40.07936 40.07936 0 0 0 39.95648-39.95648V499.21024a40.07936 40.07936 0 0 0-39.95648-39.95648h-25.96864v1.9968z" fill="#999999" opacity=".5" p-id="2842"></path><path d="M901.56032 443.26912c-23.97184-25.96864-57.93792-39.95648-93.89056-39.95648l-145.83808-1.9968c7.9872-23.97184 13.98784-57.93792 9.984-93.89056-9.984-93.89056-79.91296-157.81888-133.84704-151.82848-27.96544 1.9968-57.93792 23.97184-53.94432 77.91616 0 1.9968 9.984 117.87264-67.92192 205.7728-23.97184 23.97184-35.96288 55.94112-35.96288 89.89696v207.7696a129.59744 129.59744 0 0 0 129.85344 129.85344l251.71968 1.9968c105.8816 0 171.80672-125.85984 177.79712-335.62624-1.98656-31.96928-13.9776-65.93536-37.94944-89.9072zM759.72608 808.8576l-251.71968-1.9968c-37.95968 0-69.91872-31.95904-69.91872-69.91872V531.16928c0-17.98144 7.9872-35.96288 19.97824-49.94048 95.88736-107.8784 83.90656-245.71904 83.90656-251.71968v-13.98784c3.9936 0 9.984 1.9968 19.97824 9.984 19.97824 13.98784 41.95328 45.94688 47.94368 89.89696 5.9904 51.93728-17.98144 101.888-17.98144 101.888-1.9968 3.9936-3.9936 7.9872-3.9936 13.98784v3.9936c1.9968 15.98464 13.98784 27.96544 29.96224 27.96544l187.79136 1.9968c19.97824 0 37.95968 7.9872 51.93728 21.97504 11.99104 13.98784 19.97824 29.96224 17.98144 47.94368-3.9936 163.82976-49.94048 273.70496-115.8656 273.70496z" fill="#999999" p-id="2843"></path></svg>