<?xml version="1.0" standalone="no"?><!DOCTYPE svg PUBLIC "-//W3C//DTD SVG 1.1//EN" "http://www.w3.org/Graphics/SVG/1.1/DTD/svg11.dtd"><svg t="1600159997489" class="icon" viewBox="0 0 1024 1024" version="1.1" xmlns="http://www.w3.org/2000/svg" p-id="2558" xmlns:xlink="http://www.w3.org/1999/xlink" width="128" height="128"><defs><style type="text/css"></style></defs><path d="M803.328 734.90432l-275.77344-424.2432a52.6336 52.6336 0 0 1-15.57504 2.59072 52.31616 52.31616 0 0 1-15.53408-2.59072L220.672 734.90432a53.00224 53.00224 0 0 0 44.45184 81.88928H758.8864a53.00224 53.00224 0 0 0 44.4416-81.88928z" fill="#00C2EC" opacity=".5" p-id="2559"></path><path d="M856.54528 366.24384a53.00224 53.00224 0 0 0 106.00448 0.04096v-0.04096a53.00224 53.00224 0 0 0-106.00448-0.04096v0.04096zM61.44 366.24384a53.00224 53.00224 0 1 0 106.01472 0.01024v-0.02048A53.00224 53.00224 0 1 0 61.44 366.22336v0.02048z" fill="#00C2EC" opacity=".8" p-id="2560"></path><path d="M769.88416 767.29344L144.45568 409.89696a52.65408 52.65408 0 0 1-26.73664 9.03168l43.9296 351.4368a53.02272 53.02272 0 0 0 52.61312 46.4384h542.50496a26.50112 26.50112 0 0 0 13.11744-49.5104zM458.99776 260.22912a53.00224 53.00224 0 0 0 106.00448 0.04096v-0.04096a53.00224 53.00224 0 0 0-106.00448-0.04096v0.04096z" fill="#00C2EC" opacity=".8" p-id="2561"></path><path d="M803.328 734.90432l-275.77344-424.2432a52.50048 52.50048 0 0 1-15.55456 2.59072v503.552h246.87616a53.01248 53.01248 0 0 0 44.45184-81.89952z" fill="#00C2EC" opacity=".5" p-id="2562"></path><path d="M879.53408 409.89696L254.09536 767.29344a26.5216 26.5216 0 0 0 13.16864 49.5104h542.47424a53.01248 53.01248 0 0 0 52.61312-46.4384l43.9296-351.42656a52.66432 52.66432 0 0 1-26.74688-9.04192z" fill="#00C2EC" p-id="2563"></path></svg>