<?xml version="1.0" standalone="no"?><!DOCTYPE svg PUBLIC "-//W3C//DTD SVG 1.1//EN" "http://www.w3.org/Graphics/SVG/1.1/DTD/svg11.dtd"><svg t="1603357134333" class="icon" viewBox="0 0 1024 1024" version="1.1" xmlns="http://www.w3.org/2000/svg" p-id="2857" xmlns:xlink="http://www.w3.org/1999/xlink" width="128" height="128"><defs><style type="text/css"></style></defs><path d="M551.13955555 553.64266667h225.62133334v53.02044444H551.13955555zM551.13955555 659.79733333h225.62133334v53.02044445H551.13955555z" fill="#ffa60b" p-id="2858"></path><path d="M908.40177778 2.27555555H115.59822222c-62.57777778 0-113.32266667 50.74488889-113.32266667 113.32266667v792.91733333c0 62.57777778 50.74488889 113.32266667 113.32266667 113.32266667h792.91733333c62.57777778 0 113.32266667-50.74488889 113.32266667-113.32266667V115.59822222c-0.11377778-62.57777778-50.85866667-113.32266667-113.43644444-113.32266667zM369.32266667 174.76266667l63.14666666 14.336c-20.25244445 63.94311111-44.60088889 141.42577778-64.85333333 188.64355555l-48.01422222-14.336c17.63555555-49.72088889 38.68444445-131.41333333 49.72088889-188.64355555z m-179.42755556 4.20977778c22.75555555 57.23022222 40.39111111 133.91644445 46.30755556 184.43377777L179.76888889 376.832c-3.41333333-49.72088889-21.04888889-127.08977778-42.09777778-186.02666667l52.224-11.83288888z m186.14044444 523.7191111c-11.83288889-27.76177778-37.09155555-74.97955555-59.73333333-117.07733333v310.72711111h-69.85955555V615.19644445c-24.46222222 70.76977778-55.52355555 138.92266667-86.69866667 184.43377777-6.71288889-23.552-25.25866667-58.14044445-37.888-79.98577777 42.89422222-56.43377778 86.69866667-156.55822222 111.95733333-241.664h-101.03466666v-73.2728889h113.664V127.65866667H316.30222222v277.04888888h87.60888889V477.86666667h-87.60888889v11.83288888c20.25244445 23.552 94.32177778 127.08977778 109.45422223 153.25866667l-49.7208889 59.73333333z m473.99822223 119.58044445c0 34.47466667-7.62311111 53.93066667-31.17511111 63.14666667-24.46222222 10.92266667-62.35022222 11.83288889-113.664 11.83288888-3.41333333-18.54577778-13.42577778-46.30755555-21.84533334-63.9431111 33.67822222 1.70666667 69.85955555 1.70666667 79.18933334 1.70666666 10.92266667 0 14.336-3.41333333 14.336-12.62933333v-56.43377778H551.13955555v131.29955555h-72.36266666v-401.63555555h371.25688889v326.656zM902.25777778 452.608H429.056v-58.14044445h193.64977778v-48.01422222h-149.04888889v-55.52355555h149.04888889V248.03555555H453.51822222v-57.23022222h169.18755556v-63.94311111h74.06933333v63.94311111h183.52355556V248.03555555H696.77511111v42.89422223h165.888v55.52355555H696.77511111v48.01422222H902.25777778v58.14044445z" fill="#ffa60b" p-id="2859"></path></svg>