<?xml version="1.0" standalone="no"?><!DOCTYPE svg PUBLIC "-//W3C//DTD SVG 1.1//EN" "http://www.w3.org/Graphics/SVG/1.1/DTD/svg11.dtd"><svg t="1600217758719" class="icon" viewBox="0 0 1024 1024" version="1.1" xmlns="http://www.w3.org/2000/svg" p-id="3157" xmlns:xlink="http://www.w3.org/1999/xlink" width="128" height="128"><defs><style type="text/css"></style></defs><path d="M512.08192 836.29056c-2.48832 0-4.97664-1.4336-7.46496-1.49504-2.48832-0.0512-4.8128-3.66592-7.30112-3.76832-2.48832-0.11264-5.34528 6.4512-7.82336 6.28736-2.48832-0.16384-5.13024 0.65536-7.59808 0.43008-2.47808-0.22528-4.00384-9.75872-6.47168-10.0352-2.47808-0.28672-5.29408 2.83648-7.76192 2.49856-2.46784-0.33792-5.84704 5.19168-8.2944 4.80256-2.4576-0.39936-4.89472-1.47456-7.33184-1.93536-2.44736-0.45056-3.81952-6.4512-6.25664-6.9632-2.43712-0.512-4.94592-0.49152-7.3728-1.06496-2.42688-0.5632-4.20864-3.4816-6.61504-4.096-2.4064-0.62464-6.22592 4.0448-8.61184 3.36896-2.39616-0.67584-3.4816-5.7344-5.85728-6.46144-2.37568-0.73728-6.93248 5.2736-9.28768 4.48512-2.3552-0.78848-3.10272-6.33856-5.44768-7.18848-2.33472-0.83968-6.71744 3.61472-9.03168 2.7136-2.31424-0.90112-1.8432-8.8576-4.13696-9.79968-2.29376-0.95232-6.16448 1.792-8.43776 0.78848-2.27328-1.00352-3.20512-4.94592-5.45792-6.00064-2.2528-1.05472-3.76832-3.4816-5.9904-4.59776-2.22208-1.10592-4.03456-2.84672-6.22592-4.00384-2.19136-1.15712-3.84-3.1232-6.01088-4.34176-2.17088-1.20832-6.87104 2.07872-9.0112 0.8192-2.14016-1.25952-5.9904 0.21504-8.09984-1.09568-2.10944-1.31072-2.06848-6.07232-4.1472-7.43424s-3.5328-3.61472-5.5808-5.02784c-2.048-1.40288-2.03776-5.59104-4.05504-7.04512-2.00704-1.45408-6.144 0.08192-8.13056-1.42336-1.97632-1.49504-6.76864 0.58368-8.71424-0.9728-1.9456-1.54624-4.096-2.9696-6.00064-4.56704-1.90464-1.5872 1.67936-9.59488-0.19456-11.23328-1.87392-1.62816-9.43104 3.1232-11.27424 1.44384-1.83296-1.66912-2.42688-4.77184-4.22912-6.49216s-1.75104-5.35552-3.51232-7.12704c-1.76128-1.76128-5.75488-1.36192-7.4752-3.15392-1.72032-1.80224 1.16736-7.87456-0.512-9.70752-1.67936-1.8432-6.33856-0.96256-7.97696-2.83648-1.6384-1.87392-0.19456-6.32832-1.78176-8.2432-1.59744-1.91488-2.73408-4.07552-4.28032-6.02112-1.54624-1.9456-2.9184-3.91168-4.42368-5.89824-1.50528-1.98656-8.59136 0.19456-10.04544-1.82272-1.45408-2.01728-3.4816-3.71712-4.89472-5.76512-1.41312-2.048-1.80224-4.864-3.16416-6.94272-1.36192-2.07872 0.50176-6.22592-0.80896-8.33536-1.31072-2.10944-5.09952-2.72384-6.35904-4.864-1.25952-2.14016 2.07872-6.89152 0.8704-9.0624-1.20832-2.17088-3.61472-3.60448-4.78208-5.80608-1.15712-2.2016-2.22208-4.38272-3.328-6.6048-1.10592-2.22208-5.40672-2.87744-6.46144-5.13024-1.05472-2.2528 3.21536-6.87104 2.21184-9.14432-1.00352-2.27328-2.9696-4.02432-3.92192-6.31808-0.95232-2.29376-1.81248-4.53632-2.70336-6.85056-0.90112-2.31424-6.68672-2.77504-7.5264-5.12-0.83968-2.33472-1.25952-4.85376-2.048-7.20896-0.78848-2.3552 3.72736-6.36928 3.00032-8.74496-0.72704-2.37568-1.9456-4.5056-2.63168-6.89152-0.67584-2.38592-8.83712-2.75456-9.46176-5.16096-0.62464-2.4064 0.49152-5.30432-0.07168-7.7312-0.5632-2.41664 4.096-5.98016 3.584-8.41728-0.512-2.42688-0.94208-4.80256-1.39264-7.24992-0.45056-2.43712-6.36928-3.93216-6.76864-6.38976-0.39936-2.44736 3.72736-5.57056 3.38944-8.0384-0.33792-2.4576-1.71008-4.75136-1.98656-7.2192-0.27648-2.46784-5.05856-4.49536-5.28384-6.98368-0.22528-2.47808 3.97312-5.3248 3.80928-7.81312-0.16384-2.47808-1.64864-4.87424-1.76128-7.35232-0.11264-2.47808-0.48128-4.9664-0.53248-7.45472-0.0512-2.47808 4.25984-4.98688 4.25984-7.4752s-5.89824-5.02784-5.84704-7.50592c0.0512-2.48832-2.60096-5.15072-2.48832-7.6288 0.11264-2.48832 7.63904-4.57728 7.80288-7.05536 0.16384-2.48832-0.89088-5.0176-0.6656-7.49568 0.22528-2.47808-5.26336-5.5808-4.97664-8.04864 0.28672-2.47808 9.54368-3.81952 9.8816-6.27712 0.33792-2.46784-5.71392-5.85728-5.31456-8.31488 0.39936-2.4576 5.9904-4.00384 6.4512-6.44096 0.45056-2.44736-6.32832-6.32832-5.82656-8.76544 0.512-2.43712 8.3456-3.25632 8.9088-5.6832 0.5632-2.42688-1.25952-5.38624-0.63488-7.79264s2.75456-4.37248 3.4304-6.7584c0.67584-2.39616-4.4032-6.5024-3.66592-8.87808 0.73728-2.37568 2.19136-4.59776 2.97984-6.95296 0.78848-2.3552 3.2768-4.17792 4.11648-6.51264 0.83968-2.33472 0.33792-5.23264 1.23904-7.54688 0.90112-2.31424 5.0176-3.36896 5.96992-5.66272 0.95232-2.29376 0.37888-5.24288 1.3824-7.51616 1.00352-2.27328 3.26656-3.98336 4.32128-6.22592 1.05472-2.2528 4.10624-3.49184 5.21216-5.71392 1.10592-2.22208 2.5088-4.21888 3.67616-6.42048 1.15712-2.19136 1.75104-4.63872 2.95936-6.8096 1.20832-2.17088 1.65888-4.73088 2.92864-6.87104 1.25952-2.14016 2.63168-4.17792 3.9424-6.28736 1.31072-2.10944 3.98336-3.28704 5.34528-5.36576s-3.31776-8.23296-1.91488-10.28096c1.40288-2.048 5.55008-2.23232 7.00416-4.2496 1.45408-2.00704 6.11328-1.61792 7.61856-3.60448 1.49504-1.97632-0.39936-6.57408 1.14688-8.51968 1.54624-1.9456 4.28032-2.93888 5.87776-4.84352 1.5872-1.90464 6.144-1.21856 7.77216-3.09248 1.62816-1.87392 0.65536-6.00064 2.33472-7.84384 1.66912-1.83296 2.49856-4.4544 4.21888-6.25664 1.72032-1.80224 2.92864-4.12672 4.70016-5.89824 1.76128-1.76128 7.7824 0.90112 9.5744-0.8192 1.80224-1.72032 2.64192-4.32128 4.47488-6.00064 1.8432-1.67936 0.3072-7.10656 2.18112-8.73472 1.87392-1.6384 7.33184 0.96256 9.23648-0.63488 1.91488-1.59744-0.52224-8.50944 1.42336-10.05568 1.9456-1.54624 5.45792-1.15712 7.43424-2.6624 1.98656-1.50528 4.32128-2.52928 6.33856-3.98336 2.01728-1.45408 6.76864 1.06496 8.81664-0.33792 2.048-1.41312 3.96288-2.816 6.0416-4.17792 2.07872-1.36192 2.048-5.91872 4.15744-7.22944 2.10944-1.31072 1.75104-6.77888 3.8912-8.04864 2.14016-1.25952 7.59808 3.2256 9.76896 2.01728 2.17088-1.20832 2.70336-5.39648 4.89472-6.56384 2.2016-1.15712 4.82304-1.50528 7.04512-2.6112 2.22208-1.10592 4.23936-2.6624 6.48192-3.71712 2.2528-1.05472 5.632 0.43008 7.90528-0.57344 2.27328-1.00352 3.46112-4.48512 5.75488-5.4272 2.29376-0.95232 3.74784-4.11648 6.06208-5.0176 2.31424-0.90112 5.34528-0.02048 7.68-0.86016 2.33472-0.83968 3.75808-4.5056 6.11328-5.29408 2.3552-0.78848 5.36576 0.23552 7.74144-0.49152 2.37568-0.72704 5.0176-0.68608 7.40352-1.36192 2.38592-0.67584 5.8368 2.65216 8.2432 2.02752 2.4064-0.62464 3.77856-5.36576 6.20544-5.92896 2.41664-0.5632 5.33504 1.08544 7.76192 0.57344 2.42688-0.512 3.85024-6.35904 6.2976-6.81984 2.43712-0.45056 6.52288 8.62208 8.98048 8.23296 2.44736-0.38912 3.65568-9.0112 6.11328-9.34912 2.4576-0.33792 5.86752 6.93248 8.33536 6.656 2.46784-0.27648 4.61824-2.90816 7.09632-3.13344 2.47808-0.22528 5.00736 0.99328 7.48544 0.82944s4.56704-7.14752 7.05536-7.26016c2.47808-0.11264 5.15072 4.39296 7.63904 4.33152 2.47808-0.0512 4.94592 3.28704 7.43424 3.28704s4.93568-2.54976 7.41376-2.49856c2.48832 0.0512 5.02784-2.08896 7.51616-1.97632 2.48832 0.11264 4.98688 0.08192 7.46496 0.256 2.48832 0.16384 4.94592 0.67584 7.41376 0.90112 2.47808 0.22528 5.41696-3.55328 7.89504-3.26656 2.47808 0.28672 4.51584 4.39296 6.98368 4.73088 2.46784 0.33792 4.94592 0.62464 7.40352 1.024 2.4576 0.39936 4.38272 3.72736 6.83008 4.17792 2.44736 0.45056 4.57728 2.1504 7.00416 2.65216 2.43712 0.512 4.88448 0.5632 7.31136 1.1264s6.01088-3.69664 8.41728-3.072 4.27008 3.33824 6.656 4.01408c2.39616 0.67584 3.90144 4.17792 6.27712 4.9152 2.37568 0.73728 7.04512-5.64224 9.40032-4.85376 2.3552 0.78848 3.28704 5.8368 5.62176 6.67648 2.33472 0.83968 4.66944 1.67936 6.99392 2.58048 2.31424 0.90112 5.6832-0.73728 7.97696 0.21504 2.29376 0.95232 4.94592 1.23904 7.2192 2.24256 2.27328 1.00352 1.86368 7.89504 4.11648 8.94976 2.2528 1.05472 5.60128-0.256 7.82336 0.84992 2.22208 1.10592 6.58432-1.85344 8.78592-0.68608 2.19136 1.15712 1.78176 7.18848 3.95264 8.40704 2.17088 1.20832 2.53952 5.41696 4.67968 6.67648 2.14016 1.25952 5.69344 0.04096 7.80288 1.35168 2.10944 1.31072 7.18848-1.98656 9.2672-0.62464 2.07872 1.36192 3.01056 4.52608 5.05856 5.9392 2.048 1.40288 1.00352 7.13728 3.0208 8.59136 2.00704 1.45408 8.192-2.73408 10.17856-1.2288 1.97632 1.49504 4.29056 2.70336 6.23616 4.2496 1.9456 1.54624 1.09568 6.58432 3.00032 8.17152 1.90464 1.5872 5.92896 0.72704 7.80288 2.3552 1.87392 1.62816-1.16736 8.72448 0.67584 10.40384 1.83296 1.66912 3.4816 3.38944 5.2736 5.10976 1.80224 1.72032 6.30784 0.58368 8.06912 2.34496 1.7408 1.7408 3.85024 3.072 5.53984 4.84352 1.69984 1.77152 7.24992 0.01024 8.89856 1.81248 1.65888 1.81248 2.6112 4.37248 4.21888 6.21568 1.61792 1.85344 1.60768 5.16096 3.1744 7.03488 1.57696 1.88416 4.56704 2.68288 6.08256 4.59776 1.52576 1.92512 1.93536 4.79232 3.40992 6.73792 1.4848 1.95584 3.31776 3.70688 4.75136 5.6832 1.44384 1.98656 4.80256 2.72384 6.1952 4.74112 1.39264 2.02752-1.2288 6.8096 0.11264 8.8576 1.35168 2.05824 3.9424 3.328 5.23264 5.40672 1.30048 2.07872 3.21536 3.84 4.4544 5.94944 1.24928 2.10944 3.584 3.66592 4.79232 5.80608 1.19808 2.14016 2.82624 4.1472 3.97312 6.30784 1.15712 2.17088-1.64864 6.42048-0.54272 8.6016 1.10592 2.19136-0.90112 5.8368 0.1536 8.04864 1.05472 2.21184 9.984 0.80896 10.98752 3.05152 1.00352 2.24256 0.48128 5.23264 1.42336 7.49568 0.95232 2.26304-4.49536 7.10656-3.60448 9.37984 0.89088 2.28352 5.6832 3.04128 6.53312 5.34528 0.83968 2.304-2.9696 6.20544-2.18112 8.51968 0.78848 2.32448 1.024 4.7104 1.76128 7.04512 0.73728 2.33472 9.27744 2.29376 9.96352 4.63872 0.68608 2.3552-5.64224 6.64576-5.0176 9.0112 0.62464 2.36544 5.66272 3.57376 6.23616 5.95968 0.57344 2.38592 3.47136 4.27008 3.9936 6.66624 0.52224 2.39616 1.0752 4.85376 1.54624 7.24992 0.47104 2.4064-6.42048 6.13376-6.01088 8.5504 0.4096 2.41664 2.3552 4.5056 2.7136 6.92224 0.3584 2.42688 7.5776 3.92192 7.87456 6.35904 0.3072 2.42688-5.66272 5.59104-5.41696 8.02816 0.24576 2.43712 2.77504 4.63872 2.9696 7.08608 0.19456 2.43712-1.23904 4.97664-1.10592 7.424 0.13312 2.44736 6.00064 4.6592 6.08256 7.10656 0.08192 2.44736-3.28704 5.02784-3.26656 7.4752 0.03072 2.44736-3.44064 4.87424-3.46112 7.3216-0.03072 2.44736 1.23904 4.88448 1.15712 7.33184-0.08192 2.44736-1.90464 4.77184-2.03776 7.20896-0.14336 2.44736 6.8608 5.38624 6.66624 7.8336-0.19456 2.43712-4.61824 4.54656-4.864 6.98368-0.24576 2.43712-0.6656 4.85376-0.9728 7.28064s0 4.94592-0.3584 7.36256 1.46432 5.2224 1.05472 7.63904c-0.4096 2.41664-1.7408 4.7104-2.21184 7.1168-0.47104 2.4064-3.70688 4.23936-4.22912 6.63552-0.52224 2.38592 2.60096 5.64224 2.02752 8.02816-0.57344 2.37568-8.35584 2.90816-8.99072 5.2736-0.62464 2.36544 5.86752 6.69696 5.18144 9.04192-0.68608 2.34496-2.14016 4.52608-2.87744 6.8608-0.73728 2.33472-4.73088 3.60448-5.51936 5.92896-0.78848 2.31424 1.7408 5.81632 0.90112 8.12032-0.83968 2.29376-3.04128 4.11648-3.93216 6.4-0.89088 2.27328-0.512 5.10976-1.46432 7.3728-0.94208 2.2528-5.25312 3.072-6.25664 5.30432-0.99328 2.23232-2.87744 4.00384-3.93216 6.22592-1.04448 2.21184-0.91136 4.95616-2.01728 7.13728-1.09568 2.18112 0.54272 5.79584-0.6144 7.95648-1.14688 2.16064-4.10624 3.35872-5.30432 5.49888-1.19808 2.12992 0.77824 6.144-0.47104 8.25344-1.24928 2.0992-6.71744 1.67936-8.00768 3.75808-1.29024 2.07872-5.16096 2.43712-6.5024 4.48512s-2.8672 3.85024-4.25984 5.87776c-1.3824 2.00704-0.57344 5.48864-2.01728 7.4752-1.4336 1.97632-3.91168 3.11296-5.39648 5.0688-1.47456 1.9456-0.24576 5.95968-1.77152 7.8848-1.52576 1.91488-5.61152 1.69984-7.18848 3.584-1.56672 1.87392 1.30048 7.5264-0.31744 9.37984-1.60768 1.8432-8.98048-1.4848-10.63936 0.32768-1.64864 1.80224 1.41312 7.96672-0.28672 9.73824-1.69984 1.77152-5.86752 1.13664-7.60832 2.87744-1.76128 1.76128-3.54304 3.4304-5.33504 5.15072-1.80224 1.72032-0.0512 7.26016-1.88416 8.92928-1.8432 1.67936-8.51968-2.06848-10.3936-0.43008-1.87392 1.6384-3.15392 3.85024-5.0688 5.44768-1.91488 1.59744-2.97984 4.13696-4.92544 5.6832-1.9456 1.54624-1.36192 6.37952-3.33824 7.8848-1.98656 1.50528-2.53952 5.08928-4.54656 6.54336-2.01728 1.45408-6.64576-0.67584-8.69376 0.72704-2.048 1.41312-2.12992 5.85728-4.20864 7.2192-2.07872 1.36192-6.81984-1.36192-8.92928-0.0512-2.10944 1.31072-1.67936 6.92224-3.81952 8.18176s-5.90848-0.16384-8.07936 1.04448c-2.17088 1.20832-7.2704-3.05152-9.46176-1.88416-2.2016 1.15712-1.71008 7.44448-3.93216 8.56064-2.22208 1.10592-5.632-0.24576-7.8848 0.80896-2.2528 1.05472-3.93216 3.28704-6.20544 4.29056-2.27328 1.00352-3.39968 4.7616-5.69344 5.71392-2.29376 0.95232-3.80928 4.10624-6.12352 5.00736-2.31424 0.90112-5.55008-0.39936-7.8848 0.44032-2.33472 0.83968-5.1712 0.37888-7.53664 1.16736-2.3552 0.78848-5.30432-0.23552-7.68 0.49152-2.37568 0.72704-4.33152 2.89792-6.71744 3.57376-2.38592 0.67584-3.93216 4.74112-6.33856 5.36576s-5.07904 0.55296-7.49568 1.11616-4.78208 1.8432-7.20896 2.34496c-2.42688 0.512-6.46144-7.0656-8.9088-6.61504-2.43712 0.45056-4.01408 5.79584-6.47168 6.18496-2.44736 0.38912-5.04832-0.0512-7.50592 0.28672s-4.63872 3.2256-7.10656 3.51232c-2.46784 0.27648-5.376-3.4816-7.85408-3.25632-2.47808 0.22528-4.82304 1.92512-7.31136 2.08896-2.47808 0.16384-5.08928-2.34496-7.5776-2.23232-2.47808 0.11264-4.83328 4.00384-7.3216 4.05504-2.44736 0.0512-4.97664-0.04096-7.46496-0.04096z m0-587.65312c-2.47808 0-4.95616-1.37216-7.43424-1.31072-2.48832 0.07168-5.15072-3.34848-7.6288-3.21536-2.47808 0.13312-4.49536 7.0144-6.9632 7.20896-2.47808 0.2048-4.74112 1.45408-7.19872 1.73056-2.46784 0.27648-6.0928-8.67328-8.54016-8.33536-2.4576 0.33792-4.47488 4.13696-6.912 4.54656-2.44736 0.4096-3.76832 6.72768-6.20544 7.19872-2.43712 0.48128-4.88448 0.32768-7.29088 0.88064-2.41664 0.54272-6.12352-4.34176-8.51968-3.72736-2.39616 0.6144-4.68992 1.81248-7.0656 2.49856-2.38592 0.68608-5.51936-0.88064-7.87456-0.13312-2.36544 0.74752-3.00032 6.7584-5.33504 7.5776-2.33472 0.8192-6.23616-2.59072-8.5504-1.71008-2.31424 0.88064-1.96608 8.3968-4.2496 9.33888-2.28352 0.95232-6.49216-2.68288-8.7552-1.66912-2.26304 1.01376-2.03776 7.20896-4.27008 8.28416-2.23232 1.0752-7.79264-4.59776-9.99424-3.46112-2.2016 1.13664-2.47808 5.87776-4.64896 7.07584-2.16064 1.19808-5.90848-0.33792-8.0384 0.9216-2.12992 1.25952-5.08928 1.29024-7.18848 2.6112-2.08896 1.32096-4.63872 2.12992-6.69696 3.50208-2.048 1.3824-4.72064 2.07872-6.73792 3.52256-2.01728 1.4336-0.98304 7.12704-2.95936 8.62208-1.97632 1.49504-1.88416 5.55008-3.81952 7.09632-1.93536 1.54624-6.37952-0.02048-8.27392 1.57696-1.88416 1.59744-4.47488 2.43712-6.31808 4.096-1.8432 1.64864-6.05184 0.8704-7.85408 2.58048-1.792 1.69984-1.05472 6.13376-2.816 7.89504-1.76128 1.76128-0.18432 6.7072-1.88416 8.50944-1.71008 1.80224-3.13344 3.72736-4.79232 5.57056-1.65888 1.85344-9.64608-1.80224-11.24352 0.09216-1.60768 1.8944 3.44064 9.27744 1.8944 11.2128-1.54624 1.93536-4.49536 2.69312-5.98016 4.66944-1.49504 1.97632-5.07904 2.4064-6.51264 4.41344-1.44384 2.01728-0.256 5.82656-1.62816 7.87456-1.3824 2.05824-7.9872 0.73728-9.30816 2.83648-1.32096 2.0992 0.8192 6.36928-0.44032 8.4992-1.25952 2.12992-5.98016 2.34496-7.17824 4.5056-1.19808 2.17088-2.84672 4.22912-3.98336 6.42048-1.13664 2.2016-2.41664 4.46464-3.49184 6.69696-1.0752 2.23232 4.20864 7.44448 3.19488 9.70752-1.01376 2.26304-1.34144 4.72064-2.28352 7.0144-0.95232 2.28352-2.99008 4.05504-3.87072 6.36928-0.88064 2.31424-5.30432 3.328-6.11328 5.67296-0.8192 2.33472 1.16736 5.62176 0.41984 7.97696-0.74752 2.3552-6.51264 3.24608-7.19872 5.632-0.68608 2.37568 0.02048 5.23264-0.59392 7.63904-0.6144 2.39616-1.26976 4.864-1.81248 7.28064-0.54272 2.41664 2.43712 5.60128 1.95584 8.0384-0.48128 2.42688-6.63552 3.87072-7.04512 6.31808-0.4096 2.43712 0.3072 5.1712-0.04096 7.6288-0.33792 2.44736-0.69632 5.00736-0.96256 7.4752-0.27648 2.4576 4.72064 5.46816 4.51584 7.936-0.2048 2.46784-0.79872 4.87424-0.93184 7.34208-0.13312 2.46784-5.76512 4.77184-5.8368 7.24992-0.07168 2.46784 0.4608 5.07904 0.4608 7.55712s7.82336 4.85376 7.8848 7.33184c0.07168 2.48832-1.60768 4.95616-1.47456 7.424 0.13312 2.47808-4.99712 5.33504-4.79232 7.80288 0.2048 2.47808 0.41984 5.03808 0.68608 7.49568 0.27648 2.46784 6.12352 4.2496 6.46144 6.69696 0.33792 2.4576-3.76832 5.60128-3.35872 8.0384 0.4096 2.44736 1.92512 4.74112 2.39616 7.168 0.48128 2.43712 5.43744 3.88096 5.98016 6.2976 0.54272 2.41664-3.1744 5.82656-2.56 8.23296 0.6144 2.39616 2.57024 4.4544 3.24608 6.83008 0.68608 2.38592 1.65888 4.6592 2.41664 7.02464 0.74752 2.36544-2.57024 6.12352-1.75104 8.46848 0.8192 2.33472 7.23968 2.65216 8.13056 4.9664 0.88064 2.31424 4.31104 3.50208 5.26336 5.79584 0.95232 2.28352-4.87424 7.45472-3.86048 9.71776 1.01376 2.26304 3.21536 4.02432 4.3008 6.25664 1.0752 2.23232 7.3216 1.82272 8.46848 4.02432 1.13664 2.2016-5.64224 8.64256-4.44416 10.81344 1.19808 2.16064 8.07936 1.11616 9.33888 3.24608 1.25952 2.12992-1.92512 6.99392-0.59392 9.09312 1.32096 2.08896 8.87808 0.11264 10.25024 2.17088 1.3824 2.048-3.36896 8.32512-1.92512 10.3424 1.4336 2.01728 4.93568 2.59072 6.43072 4.56704 1.49504 1.97632 1.82272 4.9152 3.36896 6.85056 1.54624 1.93536 7.76192 0 9.3696 1.8944 1.59744 1.88416 2.63168 4.1472 4.28032 6.00064 1.64864 1.8432 2.00704 4.8128 3.70688 6.61504 1.69984 1.792 4.4544 2.49856 6.21568 4.25984s1.1264 5.92896 2.9184 7.6288c1.80224 1.71008 4.77184 2.14016 6.61504 3.79904 1.85344 1.65888 2.82624 4.3008 4.72064 5.89824 1.8944 1.60768 2.44736 4.90496 4.37248 6.4512 1.93536 1.54624 3.74784 3.3792 5.72416 4.87424 1.97632 1.49504 4.42368 2.47808 6.44096 3.91168 2.01728 1.44384 4.608 2.1504 6.656 3.5328 2.05824 1.3824 4.10624 2.84672 6.20544 4.16768 2.0992 1.32096 3.42016 4.03456 5.55008 5.29408 2.12992 1.25952 7.90528-3.86048 10.06592-2.6624 2.17088 1.19808 2.74432 5.2224 4.93568 6.35904 2.2016 1.13664 2.6624 5.81632 4.89472 6.89152 2.23232 1.0752 6.31808-1.78176 8.58112-0.768 2.26304 1.01376 3.93216 3.35872 6.21568 4.31104 2.28352 0.95232 3.20512 5.51936 5.51936 6.4 2.31424 0.88064 5.89824-1.51552 8.23296-0.69632 2.33472 0.8192 5.0688 0.47104 7.424 1.21856 2.3552 0.74752 4.92544 0.72704 7.31136 1.40288 2.37568 0.68608 3.21536 7.23968 5.62176 7.85408 2.39616 0.6144 5.23264-0.07168 7.64928 0.48128 2.41664 0.54272 5.90848-3.8912 8.3456-3.40992 2.42688 0.48128 3.90144 6.3488 6.3488 6.7584 2.43712 0.4096 5.94944-6.03136 8.3968-5.6832 2.44736 0.33792 4.5568 3.08224 7.02464 3.35872 2.4576 0.27648 4.864 1.0752 7.34208 1.28 2.46784 0.2048 4.66944 5.1712 7.14752 5.30432 2.46784 0.13312 5.08928 0.14336 7.56736 0.21504 2.46784 0.07168 5.07904-3.75808 7.56736-3.75808 2.47808 0 4.85376-4.89472 7.3216-4.9664 2.48832-0.07168 5.2224 6.44096 7.69024 6.2976 2.47808-0.13312 4.75136-3.72736 7.20896-3.93216 2.47808-0.2048 5.0176 0.45056 7.48544 0.17408 2.46784-0.27648 4.864-1.09568 7.31136-1.44384 2.4576-0.33792 5.35552 2.00704 7.79264 1.59744 2.44736-0.4096 4.42368-3.54304 6.85056-4.02432 2.43712-0.48128 4.32128-3.328 6.72768-3.88096 2.41664-0.54272 5.2224 0.7168 7.61856 0.1024 2.39616-0.6144 3.9424-4.13696 6.31808-4.82304 2.38592-0.68608 5.2224 0.44032 7.58784-0.3072 2.36544-0.74752 4.9152-0.768 7.26016-1.5872 2.33472-0.8192 6.10304 2.18112 8.41728 1.30048 2.31424-0.88064 3.05152-5.7856 5.34528-6.72768 2.28352-0.95232 5.43744 0.12288 7.70048-0.88064 2.26304-1.01376 2.1504-6.99392 4.38272-8.06912 2.23232-1.0752 8.76544 6.43072 10.96704 5.29408 2.2016-1.13664 0.4608-9.66656 2.63168-10.87488 2.16064-1.19808 8.13056 4.18816 10.26048 2.92864 2.12992-1.25952 3.072-4.64896 5.16096-5.96992 2.08896-1.32096 5.00736-1.52576 7.0656-2.90816 2.048-1.3824 0.19456-8.41728 2.21184-9.86112 2.01728-1.4336 6.69696 0.8192 8.67328-0.67584 1.97632-1.49504 6.06208-0.39936 7.99744-1.95584 1.93536-1.54624 2.27328-5.1712 4.16768-6.77888 1.88416-1.59744 2.304-4.92544 4.1472-6.57408 1.8432-1.64864 3.54304-3.45088 5.34528-5.15072 1.792-1.69984 3.7888-3.20512 5.53984-4.95616 1.76128-1.76128 0.54272-6.32832 2.24256-8.12032 1.71008-1.81248 6.16448-0.99328 7.81312-2.83648 1.65888-1.85344 3.21536-3.76832 4.8128-5.66272 1.60768-1.8944 5.4784-1.96608 7.02464-3.90144 1.54624-1.9456 4.11648-3.20512 5.60128-5.18144 1.49504-1.98656 2.63168-4.352 4.05504-6.36928 1.4336-2.02752-1.25952-6.92224 0.11264-8.97024 1.3824-2.06848 4.51584-2.9696 5.82656-5.05856 1.32096-2.0992 5.14048-2.74432 6.4-4.87424 1.25952-2.14016-4.03456-7.99744-2.83648-10.15808 1.19808-2.17088 6.27712-2.21184 7.41376-4.4032 1.13664-2.2016 2.21184-4.44416 3.28704-6.67648 1.0752-2.23232-0.4096-5.62176 0.59392-7.87456 1.01376-2.26304 1.23904-4.77184 2.18112-7.05536 0.94208-2.29376 7.84384-2.22208 8.72448-4.53632 0.88064-2.31424-0.73728-5.59104 0.07168-7.936 0.80896-2.34496-2.816-6.10304-2.06848-8.45824 0.74752-2.36544 6.71744-3.11296 7.39328-5.48864 0.68608-2.38592 4.68992-3.95264 5.30432-6.3488 0.6144-2.39616-1.59744-5.5808-1.04448-7.9872 0.54272-2.41664-4.33152-5.95968-3.86048-8.38656 0.48128-2.42688 2.99008-4.41344 3.39968-6.8608 0.4096-2.43712 6.01088-4.11648 6.35904-6.57408 0.33792-2.44736-6.33856-5.79584-6.06208-8.25344 0.27648-2.4576 0.04096-4.87424 0.24576-7.34208s4.80256-4.58752 4.94592-7.0656c0.13312-2.46784-3.03104-5.05856-2.95936-7.5264 0.07168-2.47808 7.41376-4.88448 7.41376-7.36256s0.09216-5.08928 0.02048-7.55712c-0.07168-2.47808-4.13696-4.864-4.28032-7.33184-0.13312-2.46784-0.89088-4.9152-1.09568-7.38304-0.2048-2.46784-5.6832-4.352-5.94944-6.81984-0.27648-2.4576 0.41984-4.9152 0.07168-7.3728-0.34816-2.44736 1.42336-5.15072 1.00352-7.58784-0.4096-2.43712-2.63168-4.47488-3.11296-6.90176-0.48128-2.42688 0.43008-5.0688-0.11264-7.48544-0.54272-2.41664-1.536-4.64896-2.1504-7.05536-0.6144-2.39616-3.47136-4.07552-4.15744-6.46144-0.68608-2.37568 3.26656-6.08256 2.51904-8.448-0.74752-2.3552-2.93888-4.21888-3.75808-6.5536-0.80896-2.33472-2.32448-4.36224-3.20512-6.68672-0.88064-2.31424-2.9184-4.07552-3.87072-6.36928-0.94208-2.28352-2.304-4.28032-3.30752-6.54336-1.00352-2.2528 1.9968-6.31808 0.9216-8.5504-1.0752-2.22208 0.83968-6.01088-0.29696-8.21248-1.13664-2.19136-9.97376-0.26624-11.17184-2.43712-1.19808-2.16064-0.9216-5.03808-2.18112-7.17824-1.25952-2.12992 3.31776-7.82336 1.9968-9.92256-1.31072-2.08896-6.21568-1.91488-7.59808-3.98336-1.37216-2.048 1.2288-6.912-0.2048-8.92928-1.4336-2.01728-2.54976-4.42368-4.03456-6.41024-1.4848-1.97632-9.48224 1.06496-11.03872-0.8704-1.54624-1.93536 2.47808-8.45824 0.8704-10.35264-1.59744-1.88416-6.69696-0.78848-8.35584-2.63168-1.64864-1.8432-5.05856-2.00704-6.76864-3.81952-1.69984-1.792-3.39968-3.4816-5.16096-5.24288s1.6384-8.83712-0.1536-10.53696c-1.80224-1.71008-4.78208-2.28352-6.62528-3.9424-1.85344-1.65888-8.27392 1.96608-10.15808 0.36864-1.8944-1.60768 0.2048-8.01792-1.72032-9.56416-1.93536-1.54624-5.34528-1.25952-7.3216-2.75456-1.97632-1.49504-3.04128-4.27008-5.05856-5.70368-2.01728-1.44384-7.30112 1.91488-9.35936 0.53248-2.05824-1.3824-2.2016-5.57056-4.3008-6.89152s-2.42688-5.5808-4.5568-6.84032c-2.12992-1.25952-4.98688-1.37216-7.15776-2.57024-2.17088-1.19808-3.59424-3.91168-5.79584-5.04832-2.2016-1.13664-7.60832 4.18816-9.84064 3.11296-2.23232-1.0752-2.65216-5.91872-4.90496-6.92224-2.26304-1.01376-4.48512-2.12992-6.76864-3.072-2.28352-0.95232-4.82304-1.26976-7.13728-2.1504-2.31424-0.88064-5.36576 0.38912-7.70048-0.41984-2.33472-0.8192-4.34176-2.42688-6.7072-3.1744-2.3552-0.74752-3.91168-4.13696-6.28736-4.82304-2.37568-0.68608-5.7344 2.32448-8.13056 1.69984-2.39616-0.6144-3.09248-8.40704-5.50912-8.96-2.41664-0.54272-6.4 6.1952-8.82688 5.71392-2.42688-0.48128-4.6592-1.65888-7.09632-2.06848-2.43712-0.4096-4.36224-4.13696-6.81984-4.48512-2.44736-0.33792-5.33504 2.88768-7.80288 2.6112-2.4576-0.27648-4.75136-1.90464-7.2192-2.10944-2.46784-0.2048-4.98688 1.04448-7.46496 0.91136-2.46784-0.13312-4.78208-3.86048-7.2704-3.93216-2.47808-0.02048-4.99712 2.85696-7.4752 2.85696z" fill="#174C9D" p-id="3158"></path><path d="M537.89696 363.4176c0-2.59072-0.12288-4.22912-0.75776-6.62528-0.6656-2.47808-0.8704-4.2496-2.12992-6.41024-1.26976-2.2016-1.34144-4.63872-3.13344-6.42048-1.78176-1.78176-3.9936-2.24256-6.1952-3.51232-2.16064-1.24928-1.97632-9.24672-4.44416-9.91232-2.39616-0.63488-6.21568-0.58368-8.8064-0.58368s-3.87072 9.48224-6.25664 10.11712c-2.47808 0.6656-6.01088-2.90816-8.17152-1.65888-2.2016 1.26976-7.05536-0.0512-8.83712 1.73056-1.78176 1.78176-2.83648 5.26336-4.10624 7.45472-1.24928 2.17088 1.82272 6.30784 1.15712 8.77568-0.63488 2.39616-4.38272 4.43392-4.38272 7.02464 0 3.69664 6.22592 3.69664 6.22592 7.38304 0 3.69664-8.6528 3.69664-8.6528 7.39328 0 3.66592 5.48864 3.66592 5.48864 7.33184 0 3.67616 1.59744 3.67616 1.59744 7.34208 0 3.67616 1.30048 3.67616 1.30048 7.36256 0 3.69664-5.38624 3.69664-5.38624 7.39328 0 3.70688 3.0208 3.70688 3.0208 7.41376 0 3.69664-1.21856 3.69664-1.21856 7.38304s1.00352 3.6864 1.00352 7.38304-3.64544 3.69664-3.64544 7.39328c0 3.70688-1.44384 3.70688-1.44384 7.424 0 3.70688-1.45408 3.70688-1.45408 7.40352 0 3.70688 8.18176 3.70688 8.18176 7.40352 0 3.71712-8.36608 3.71712-8.36608 7.43424 0 3.70688 6.2464 3.70688 6.2464 7.424 0 3.70688 0.62464 3.70688 0.62464 7.41376 0 3.69664-5.96992 3.69664-5.96992 7.40352 0 3.71712 5.09952 3.71712 5.09952 7.44448s3.47136 3.72736 3.47136 7.45472c0 3.7376-6.7072 3.7376-6.7072 7.4752s-0.37888 2.38592-1.78176 5.8368c-1.37216 3.36896 1.29024 4.07552-1.28 6.656-2.57024 2.57024-0.512 4.61824-3.08224 7.18848-2.56 2.56-3.29728 1.83296-5.85728 4.4032-2.57024 2.57024-0.90112 4.22912-3.47136 6.79936-2.58048 2.58048-5.38624-0.22528-7.96672 2.3552-2.57024 2.57024-3.23584 1.91488-5.81632 4.48512-2.57024 2.57024-5.44768-0.29696-8.01792 2.28352-2.54976 2.54976-1.05472 4.0448-3.61472 6.59456-2.57024 2.57024 1.34144 6.48192-1.2288 9.05216-2.58048 2.58048-7.6288-2.4576-10.20928 0.12288s2.16064 7.3216-0.41984 9.90208c-2.59072 2.59072-3.1232 2.05824-5.71392 4.6592-2.60096 2.60096-3.6864 1.50528-6.28736 4.096-2.60096 2.60096-2.06848 3.14368-4.66944 5.74464-2.60096 2.60096-3.7888 1.42336-6.38976 4.02432-1.83296 1.83296 1.16736 6.7584-0.07168 8.89856-1.28 2.22208-1.30048 3.60448-1.9456 6.03136-0.65536 2.4576-4.89472 3.6864-4.89472 6.20544s-1.4336 5.2736-0.78848 7.72096c0.64512 2.41664 0.39936 5.7344 1.67936 7.94624 1.23904 2.14016 7.38304 0.41984 9.216 2.2528 1.83296 1.83296 0.72704 6.93248 2.8672 8.17152 2.21184 1.28 4.52608 3.56352 6.94272 4.20864 2.44736 0.65536 5.59104-5.51936 8.12032-5.51936 2.51904 0 4.66944 2.41664 7.1168 1.76128 2.41664-0.64512 7.424 3.7376 9.63584 2.4576 2.14016-1.23904 2.83648-5.76512 4.6592-7.59808 2.67264-2.67264 2.33472-3.01056 5.00736-5.6832 2.68288-2.68288 4.46464-0.89088 7.14752-3.57376 2.67264-2.67264 0.65536-4.68992 3.328-7.36256 2.67264-2.67264 1.80224-3.5328 4.47488-6.20544s0.50176-4.84352 3.1744-7.51616c2.68288-2.68288 5.91872 0.55296 8.6016-2.14016 2.68288-2.68288 1.65888-3.69664 4.34176-6.37952s1.92512-3.4304 4.608-6.11328c2.65216-2.65216 6.51264 1.19808 9.1648-1.45408 2.67264-2.67264-0.2048-5.55008 2.46784-8.23296 2.69312-2.69312 1.19808-4.17792 3.8912-6.87104 2.68288-2.68288 3.18464-2.18112 5.86752-4.864 2.69312-2.69312 1.93536-3.46112 4.62848-6.16448 2.70336-2.70336 3.47136-1.93536 6.17472-4.63872 2.7136-2.7136 4.84352-0.58368 7.54688-3.28704 2.7136-2.7136-0.43008-5.84704 2.28352-8.56064 1.56672-1.56672 4.74112-1.29024 5.86752-3.08224 1.15712-1.85344 4.8128-2.78528 5.49888-4.80256 0.69632-2.05824-1.04448-4.9664-0.8192-7.10656 0.22528-2.1504 4.51584-4.51584 4.28032-6.66624 0.11264-1.024 0.256-1.8432 0.256-2.88768 0-3.65568-4.03456-3.65568-4.03456-7.31136s-4.23936-3.65568-4.23936-7.31136 5.55008-3.65568 5.55008-7.31136c0-3.62496-3.82976-3.62496-3.82976-7.26016s4.10624-3.6352 4.10624-7.2704c0-3.64544 1.1776-3.64544 1.1776-7.28064 0-3.65568-6.74816-3.65568-6.74816-7.31136 0-3.66592 7.48544-3.66592 7.48544-7.33184 0-3.65568-2.28352-3.65568-2.28352-7.31136s-3.18464-3.65568-3.18464-7.30112c0-3.65568 5.79584-3.65568 5.79584-7.31136 0-3.67616-5.31456-3.67616-5.31456-7.34208s3.10272-3.66592 3.10272-7.33184-4.57728-3.66592-4.57728-7.33184l-0.02048-7.35232c0-3.67616 0.26624-3.67616 0.26624-7.34208s1.15712-3.66592 1.15712-7.34208c0-3.66592-0.48128-3.66592-0.48128-7.3216 0-3.6864 6.3488-3.6864 6.3488-7.36256 0-3.6864-1.85344-3.6864-1.85344-7.3728 0-3.69664 1.49504-4.87424 0.38912-8.3968-1.24928-3.97312-6.68672-2.68288-6.68672-6.37952z" fill="#174C9D" opacity=".5" p-id="3159"></path></svg>