<?xml version="1.0" standalone="no"?><!DOCTYPE svg PUBLIC "-//W3C//DTD SVG 1.1//EN" "http://www.w3.org/Graphics/SVG/1.1/DTD/svg11.dtd"><svg t="1599634153624" class="icon" viewBox="0 0 1024 1024" version="1.1" xmlns="http://www.w3.org/2000/svg" p-id="1339" xmlns:xlink="http://www.w3.org/1999/xlink" width="673" height="673"><defs><style type="text/css"></style></defs><path d="M973.82399996 562.176c-12.8 0-25.6-5.12-35.84000002-14.848l-415.74399998-411.648c-19.968-19.968-19.968-51.712-0.512-71.68s51.712-19.968 71.68-0.51199999l415.744 411.64799999a50.8416 50.8416 0 0 1 0.51199999 71.68c-9.216 10.75200001-22.528 15.36-35.83999999 15.36z" p-id="1340"></path><path d="M562.68799995 977.92c-12.8 0-25.6-5.12-35.83999999-14.848-19.968-19.968-19.968-51.712-0.512-71.68l411.64800001-415.744a50.8416 50.8416 0 0 1 71.67999999-0.512 50.8416 50.8416 0 0 1 0.512 71.67999999L598.52799996 962.56000001c-9.728 10.24-23.04 15.36-35.84000001 15.35999999z" p-id="1341"></path></svg>