<?xml version="1.0" standalone="no"?><!DOCTYPE svg PUBLIC "-//W3C//DTD SVG 1.1//EN" "http://www.w3.org/Graphics/SVG/1.1/DTD/svg11.dtd"><svg t="1600169294465" class="icon" viewBox="0 0 1024 1024" version="1.1" xmlns="http://www.w3.org/2000/svg" p-id="2982" xmlns:xlink="http://www.w3.org/1999/xlink" width="128" height="128"><defs><style type="text/css"></style></defs><path d="M657.85856 846.03904H366.14144c-103.82336 0-188.22144-84.39808-188.22144-188.13952V366.10048c0-103.74144 84.39808-188.13952 188.22144-188.13952h172.31872a29.06112 29.06112 0 1 1 0 58.14272H366.14144c-71.71072 0-130.07872 58.37824-130.07872 130.07872v291.72736c0 71.71072 58.37824 130.07872 130.07872 130.07872h291.72736c71.71072 0 130.07872-58.37824 130.07872-130.07872v-185.6512a29.06112 29.06112 0 1 1 58.14272 0v185.6512c-0.09216 103.74144-84.48 188.12928-188.23168 188.12928z" fill="#999999" p-id="2983"></path><path d="M824.00256 205.34272L717.9264 178.85184a29.07136 29.07136 0 0 0-35.24608 21.11488 28.98944 28.98944 0 0 0 21.11488 35.24608l32.4096 8.09984c-168.13056 83.36384-246.95808 248.65792-250.5728 256.4096a29.12256 29.12256 0 0 0 26.33728 41.35936 28.928 28.928 0 0 0 26.25536-16.70144c0.82944-1.81248 79.1552-166.16448 241.74592-237.30176l-5.02784 35.19488a28.99968 28.99968 0 0 0 24.64768 32.83968c1.44384 0.24576 2.80576 0.31744 4.17792 0.31744a29.05088 29.05088 0 0 0 28.66176-24.97536l13.16864-92.29312a28.9792 28.9792 0 0 0-21.59616-32.8192z" fill="#999999" opacity=".5" p-id="2984"></path></svg>