<?xml version="1.0" standalone="no"?><!DOCTYPE svg PUBLIC "-//W3C//DTD SVG 1.1//EN" "http://www.w3.org/Graphics/SVG/1.1/DTD/svg11.dtd"><svg t="1603356577760" class="icon" viewBox="0 0 1024 1024" version="1.1" xmlns="http://www.w3.org/2000/svg" p-id="2796" xmlns:xlink="http://www.w3.org/1999/xlink" width="128" height="128"><defs><style type="text/css"></style></defs><path d="M439.44086198 176.91736106a107.63060836 107.63060836 0 0 1 150.8842015 5.83914355l373.10113784 402.33346465c10.47018843 10.94610609 16.38255007 25.82768511 16.3825501 40.92891843a60.67950115 60.67950115 0 0 1-60.82593735 60.82593734h-148.54122229a9.35361238 9.35361238 0 0 0-9.35361239 9.35361241v175.43056985a149.73101642 149.73101642 0 0 1-149.71271188 149.7127119H412.5515144a149.73101642 149.73101642 0 0 1-149.71271189-149.7127119v-175.43056985a9.35361238 9.35361238 0 0 0-9.3536124-9.35361241h-148.54122225a62.19877674 62.19877674 0 0 1-40.92891844-15.21106046v-1.17148964c-25.22363578-22.25830268-26.32190727-60.38662874-3.51446884-85.37230567l371.92964822-401.16197505c2.05010683-2.15993398 3.93547293-4.06360461 5.83914357-5.83914354l1.17148961-1.17148961z m456.14876883-174.27738475c20.42785018 0 37.43275411 17.02320847 37.43275411 38.60424372a37.74393105 37.74393105 0 0 1-37.43275411 37.4327541H129.50864071c-21.59933979 0-38.60424372-17.02320847-38.60424373-37.4327541a38.25645773 38.25645773 0 0 1 38.60424373-38.60424372h766.0809901z" fill="#FFA60B" p-id="2797"></path></svg>