<?xml version="1.0" standalone="no"?><!DOCTYPE svg PUBLIC "-//W3C//DTD SVG 1.1//EN" "http://www.w3.org/Graphics/SVG/1.1/DTD/svg11.dtd"><svg t="1598939932331" class="icon" viewBox="0 0 1024 1024" version="1.1" xmlns="http://www.w3.org/2000/svg" p-id="15832" xmlns:xlink="http://www.w3.org/1999/xlink" width="673" height="673"><defs><style type="text/css"></style></defs><path d="M674.740527 161.943704a161.185185 161.185185 0 1 0-161.185185 161.943703 161.564444 161.564444 0 0 0 161.185185-161.943703z" p-id="15833"></path><path d="M763.866453 793.41037L683.46349 471.798519a189.62963 189.62963 0 0 0-370.536296-3.034075L228.352379 793.41037a54.234074 54.234074 0 0 0 9.481482 45.890371 53.475556 53.475556 0 0 0 41.718518 21.238518h71.68c10.24 30.72 25.41037 75.851852 37.925926 119.087408a52.337778 52.337778 0 0 0 50.062222 37.925926h113.398519a51.958519 51.958519 0 0 0 49.682963-37.925926c13.653333-43.614815 28.823704-90.263704 37.925926-120.604445h71.300741a53.475556 53.475556 0 0 0 50.82074-66.37037z" p-id="15834"></path></svg>